<?xml version="1.0" encoding="UTF-8" standalone="no"?>
<!-- Created with Inkscape (http://www.inkscape.org/) -->

<svg
   xmlns:dc="http://purl.org/dc/elements/1.1/"
   xmlns:cc="http://creativecommons.org/ns#"
   xmlns:rdf="http://www.w3.org/1999/02/22-rdf-syntax-ns#"
   xmlns:svg="http://www.w3.org/2000/svg"
   xmlns="http://www.w3.org/2000/svg"
   xmlns:sodipodi="http://sodipodi.sourceforge.net/DTD/sodipodi-0.dtd"
   xmlns:inkscape="http://www.inkscape.org/namespaces/inkscape"
   width="103.9873mm"
   height="108.22142mm"
   viewBox="0 0 368.45895 383.46172"
   id="svg4518"
   version="1.1"
   inkscape:version="0.91 r13725"
   sodipodi:docname="c4.svg">
  <defs
     id="defs4520" />
  <sodipodi:namedview
     id="base"
     pagecolor="#ffffff"
     bordercolor="#666666"
     borderopacity="1.0"
     inkscape:pageopacity="0.0"
     inkscape:pageshadow="2"
     inkscape:zoom="0.35"
     inkscape:cx="-375.57098"
     inkscape:cy="124.588"
     inkscape:document-units="px"
     inkscape:current-layer="layer1"
     showgrid="false"
     fit-margin-top="10"
     fit-margin-left="10"
     fit-margin-right="10"
     fit-margin-bottom="10"
     inkscape:window-width="1366"
     inkscape:window-height="705"
     inkscape:window-x="-8"
     inkscape:window-y="-8"
     inkscape:window-maximized="1" />
  <metadata
     id="metadata4523">
    <rdf:RDF>
      <cc:Work
         rdf:about="">
        <dc:format>image/svg+xml</dc:format>
        <dc:type
           rdf:resource="http://purl.org/dc/dcmitype/StillImage" />
        <dc:title></dc:title>
      </cc:Work>
    </rdf:RDF>
  </metadata>
  <g
     inkscape:label="Capa 1"
     inkscape:groupmode="layer"
     id="layer1"
     transform="translate(-187.71384,-273.48848)">
    <g
       style="display:inline"
       id="g4320"
       transform="matrix(2.5294248,0,0,2.5294248,-594.44349,-516.70413)">
      <path
         sodipodi:nodetypes="csccc"
         inkscape:connector-curvature="0"
         id="path4341"
         d="m 342.52807,352.03787 c -3.97834,9.66143 -5.90799,10.77958 -7.94714,15.06905 -8.69816,18.29709 17.82605,70.07407 30.2048,85.06214 4.7753,-3.15924 11.76327,-5.08978 9.00299,-12.0168 z"
         style="fill:#c87137;fill-rule:evenodd;stroke:none;stroke-width:1px;stroke-linecap:butt;stroke-linejoin:miter;stroke-opacity:1" />
      <path
         sodipodi:nodetypes="ccccc"
         inkscape:connector-curvature="0"
         id="path4343"
         d="m 364.64819,452.48258 c 25.06928,2.08765 40.19206,-8.77682 60.70899,-20.34624 13.62877,-7.21192 15.79278,-17.16766 16.00149,-26.32732 l -69.03841,34.24413 c -1.68718,5.95603 -4.11176,8.9709 -7.67207,12.42943 z"
         style="fill:#d38d5f;fill-rule:evenodd;stroke:none;stroke-width:1px;stroke-linecap:butt;stroke-linejoin:miter;stroke-opacity:1" />
      <path
         sodipodi:nodetypes="ccccc"
         inkscape:connector-curvature="0"
         id="path4339"
         d="m 342.52807,352.03787 c 20.63143,-25.62858 54.72383,-20.08894 60.42581,-19.43602 0,0 26.08146,60.80977 38.89427,73.03121 -9.7131,20.64101 -47.91291,37.47073 -69.28315,34.69517 -11.85677,-25.12638 -25.12358,-46.96266 -30.03693,-88.29036 z"
         style="fill:#deaa87;fill-rule:evenodd;stroke:none;stroke-width:1px;stroke-linecap:butt;stroke-linejoin:miter;stroke-opacity:1" />
      <path
         sodipodi:nodetypes="cscscc"
         inkscape:connector-curvature="0"
         id="path4378"
         d="m 337.23714,362.56265 c 0,0 0.13683,9.57197 1.22372,14.19521 2.95044,12.55007 14.19521,35.9775 14.19521,35.9775 0,0 -10.80321,-23.76482 -13.21623,-36.46699 -1.09667,-5.7729 -0.24475,-16.64266 -0.24475,-16.64266 z"
         style="fill:#000000;fill-opacity:0.33333333;fill-rule:evenodd;stroke:none;stroke-width:1px;stroke-linecap:butt;stroke-linejoin:miter;stroke-opacity:1" />
      <path
         inkscape:connector-curvature="0"
         id="path4380"
         d="m 369.78821,446.7549 c 0,0 6.36632,1.33292 9.54505,0.97898 11.46108,-1.27616 32.79582,-11.01352 32.79582,-11.01352 0,0 -21.82095,8.34403 -33.28531,10.03454 -2.98623,0.44034 -9.05556,0 -9.05556,0 z"
         style="fill:#000000;fill-opacity:0.33333333;fill-rule:evenodd;stroke:none;stroke-width:1px;stroke-linecap:butt;stroke-linejoin:miter;stroke-opacity:1"
         sodipodi:nodetypes="cscsc" />
      <path
         inkscape:connector-curvature="0"
         id="path4382"
         d="m 348.25066,418.3645 18.35586,32.06158 1.46848,-1.71322 z"
         style="fill:#000000;fill-opacity:0.33333333;fill-rule:evenodd;stroke:none;stroke-width:1px;stroke-linecap:butt;stroke-linejoin:miter;stroke-opacity:1" />
      <path
         inkscape:connector-curvature="0"
         id="path4421"
         d="m 345.31372,418.85398 9.7898,-16.8874 23.985,-16.15316 4.8949,10.52403 -25.20873,15.17419 -9.78979,15.66367 z"
         style="fill:#cccccc;fill-opacity:0.58024693;fill-rule:evenodd;stroke:none;stroke-width:1px;stroke-linecap:butt;stroke-linejoin:miter;stroke-opacity:1" />
      <path
         inkscape:connector-curvature="0"
         id="path4423"
         d="m 415.55551,368.19179 3.42643,-1.46848 5.38439,11.01353 -7.0976,2.44745 -3.67118,-11.01352 z"
         style="fill:#cccccc;fill-opacity:0.58024693;fill-rule:evenodd;stroke:none;stroke-width:1px;stroke-linecap:butt;stroke-linejoin:miter;stroke-opacity:1" />
      <path
         inkscape:connector-curvature="0"
         id="path4425"
         d="m 375.41734,381.40801 -22.27178,16.8874 -9.54506,18.11113 7.34235,13.95046 9.7898,-31.81684 18.84535,-11.25827 z"
         style="fill:#cccccc;fill-opacity:0.53497943;fill-rule:evenodd;stroke:none;stroke-width:1px;stroke-linecap:butt;stroke-linejoin:miter;stroke-opacity:1" />
      <path
         inkscape:connector-curvature="0"
         id="path4427"
         d="m 373.70413,377.73684 -22.76128,13.95046 -11.25826,14.92944 5.87387,12.48199 9.7898,-20.55857 21.04806,-14.43995 z"
         style="fill:#cccccc;fill-opacity:0.53497943;fill-rule:evenodd;stroke:none;stroke-width:1px;stroke-linecap:butt;stroke-linejoin:miter;stroke-opacity:1" />
      <path
         inkscape:connector-curvature="0"
         id="path4429"
         d="m 410.17112,362.31791 4.65015,7.34234 4.65016,-1.46846 -3.67118,-6.85286 z"
         style="fill:#cccccc;fill-opacity:0.53497943;fill-rule:evenodd;stroke:none;stroke-width:1px;stroke-linecap:butt;stroke-linejoin:miter;stroke-opacity:1" />
      <path
         sodipodi:nodetypes="cscsc"
         inkscape:connector-curvature="0"
         id="path4458"
         d="m 349.22964,350.08067 c 0,0 -3.1405,2.21175 -3.67118,4.16066 -2.23172,8.19587 6.36337,24.47449 6.36337,24.47449 0,0 -6.61985,-16.43446 -5.13964,-24.71924 0.27072,-1.51528 2.44745,-3.91591 2.44745,-3.91591 z"
         style="fill:#000000;fill-opacity:0.24279839;fill-rule:evenodd;stroke:none;stroke-width:1px;stroke-linecap:butt;stroke-linejoin:miter;stroke-opacity:1" />
      <path
         sodipodi:nodetypes="cssscsssc"
         inkscape:connector-curvature="0"
         id="path4460"
         d="m 371.99092,428.88852 c 0,0 0.26577,6.60493 2.69219,8.07658 3.53208,2.14226 8.24148,-0.90973 12.23725,-1.95795 10.68602,-2.8033 21.62537,-5.79244 31.0826,-11.50301 6.47833,-3.91182 16.8874,-15.17419 16.8874,-15.17419 0,0 -11.73868,10.4877 -18.60061,14.19521 -9.28455,5.01645 -19.5506,8.2642 -29.85889,10.52403 -3.44143,0.75444 -7.29777,2.39458 -10.52403,0.97898 -1.97231,-0.86541 -3.91591,-5.13965 -3.91591,-5.13965 z"
         style="fill:#000000;fill-opacity:0.24279839;fill-rule:evenodd;stroke:none;stroke-width:1px;stroke-linecap:butt;stroke-linejoin:miter;stroke-opacity:1" />
      <path
         sodipodi:nodetypes="cscsc"
         inkscape:connector-curvature="0"
         id="path4462"
         d="m 396.22066,334.41699 c 0,0 3.8357,-0.56992 5.38439,0.48949 3.90133,2.66877 5.38439,12.72673 5.38439,12.72673 0,0 -2.73671,-8.90931 -6.11863,-11.74775 -1.24508,-1.045 -4.65015,-1.46847 -4.65015,-1.46847 z"
         style="fill:#000000;fill-opacity:0.24279839;fill-rule:evenodd;stroke:none;stroke-width:1px;stroke-linecap:butt;stroke-linejoin:miter;stroke-opacity:1" />
      <path
         sodipodi:nodetypes="cssccscccc"
         inkscape:connector-curvature="0"
         id="path4464"
         d="m 372.72515,373.82092 c 0,0 -1.42657,5.03342 -1.22373,7.5871 0.61899,7.7924 3.26712,13.46674 7.34235,22.27178 1.78086,3.84776 4.63143,12.89415 9.54505,14.92943 5.61674,-0.831 11.26106,-2.88867 16.15317,-4.65015 4.92746,-1.82594 10.22657,-3.63471 13.95046,-7.34234 3.07769,-3.06426 6.11862,-11.50301 6.11862,-11.50301 l -36.22225,15.66367 -8.32132,-14.1952 z"
         style="fill:#000000;fill-opacity:0.16460906;fill-rule:evenodd;stroke:none;stroke-width:1px;stroke-linecap:butt;stroke-linejoin:miter;stroke-opacity:1" />
      <path
         sodipodi:nodetypes="ccscc"
         inkscape:connector-curvature="0"
         id="path4386"
         d="m 386.67561,414.69332 6.36337,-12.23724 c 0,0 34.01954,-17.37689 34.26428,-16.39791 0.24475,0.97898 -2.69219,9.3003 -2.69219,9.3003 -7.4631,8.57255 -24.34888,16.6556 -37.93546,19.33485 z"
         style="fill:#536c67;fill-rule:evenodd;stroke:none;stroke-width:1px;stroke-linecap:butt;stroke-linejoin:miter;stroke-opacity:1" />
      <path
         inkscape:connector-curvature="0"
         id="path4220"
         d="m 402.94884,409.7558 11.04978,20.62627 -1.71885,9.82203 7.36652,-4.41991 0.98221,-9.08538 -11.78644,-20.38072 z"
         style="fill:#e6e6e6;fill-opacity:0.25514407;fill-rule:evenodd;stroke:none;stroke-width:1px;stroke-linecap:butt;stroke-linejoin:miter;stroke-opacity:1" />
      <path
         sodipodi:nodetypes="ccccccc"
         inkscape:connector-curvature="0"
         id="path4222"
         d="m 413.26197,403.86258 11.29534,20.62627 3.68326,7.12097 -15.71525,8.59428 -3.19216,-8.10318 -1.71886,-25.04618 z"
         style="fill:#e6e6e6;fill-opacity:0.25514407;fill-rule:evenodd;stroke:none;stroke-width:1px;stroke-linecap:butt;stroke-linejoin:miter;stroke-opacity:1" />
      <path
         inkscape:connector-curvature="0"
         id="path4224"
         d="m 398.28337,411.47466 10.31314,20.38071 10.31313,4.66547 8.59428,-4.41992 -5.64767,-5.89321 -18.17076,-17.18856 z"
         style="fill:#e6e6e6;fill-opacity:0.25514407;fill-rule:evenodd;stroke:none;stroke-width:1px;stroke-linecap:butt;stroke-linejoin:miter;stroke-opacity:1" />
      <path
         sodipodi:nodetypes="ccccccc"
         inkscape:connector-curvature="0"
         id="path4226"
         d="m 379.62151,366.78441 -7.12097,-17.18855 -9.08538,-13.01419 10.55869,-3.19216 5.89322,-0.98221 c 2.95402,9.41278 8.78706,18.82557 13.50529,28.23835 z"
         style="fill:#e6e6e6;fill-opacity:0.34567901;fill-rule:evenodd;stroke:none;stroke-width:1px;stroke-linecap:butt;stroke-linejoin:miter;stroke-opacity:1" />
      <path
         sodipodi:nodetypes="ccccc"
         inkscape:connector-curvature="0"
         id="path4228"
         d="m 386.25139,363.3467 -16.20636,-28.72944 -10.55868,3.92881 c 11.87336,10.87957 12.7061,19.75175 18.17076,29.4661 z"
         style="fill:#e6e6e6;fill-opacity:0.34567901;fill-rule:evenodd;stroke:none;stroke-width:1px;stroke-linecap:butt;stroke-linejoin:miter;stroke-opacity:1" />
      <path
         sodipodi:nodetypes="ccccc"
         inkscape:connector-curvature="0"
         id="path4396"
         d="m 383.00444,361.82842 c -1.04173,-14.3116 -9.4872,-22.7167 -13.70572,-34.26429 l 1.95796,-0.97898 c 5.47079,10.91665 11.29255,12.34224 17.37689,32.06158 z"
         style="display:inline;fill:#374845;fill-opacity:1;fill-rule:evenodd;stroke:none;stroke-width:1px;stroke-linecap:butt;stroke-linejoin:miter;stroke-opacity:1" />
      <path
         sodipodi:nodetypes="sssssss"
         inkscape:connector-curvature="0"
         id="path4398"
         d="m 370.2777,328.78786 c -1.21777,0.12058 -2.83727,0.8956 -3.67118,0 -1.56059,-1.67605 -1.09768,-5.20197 0.4895,-6.85286 1.02399,-1.06511 2.98856,-0.9085 4.4054,-0.48949 1.11189,0.32882 2.36109,1.09149 2.6922,2.2027 0.46418,1.55782 -0.25844,3.56476 -1.46847,4.65016 -0.61932,0.55553 -1.61952,0.40751 -2.44745,0.48949 z"
         style="display:inline;fill:#374845;fill-opacity:1;fill-rule:evenodd;stroke:none;stroke-width:1px;stroke-linecap:butt;stroke-linejoin:miter;stroke-opacity:1" />
      <path
         sodipodi:nodetypes="ccccc"
         inkscape:connector-curvature="0"
         id="path4388"
         d="m 392.79423,402.94556 -16.39791,-42.58561 -4.16066,14.1952 c 2.39064,12.38717 5.24462,24.94282 14.6847,39.89343 z"
         style="display:inline;fill:#374845;fill-rule:evenodd;stroke:none;stroke-width:1px;stroke-linecap:butt;stroke-linejoin:miter;stroke-opacity:1" />
      <path
         sodipodi:nodetypes="ccccc"
         inkscape:connector-curvature="0"
         id="path4390"
         d="m 376.15158,360.35995 c 11.92069,-1.78782 19.74007,-6.50514 27.16669,-11.50301 11.81238,9.69233 15.50094,24.80052 23.25076,37.20122 l -33.7748,17.13215 c -11.0778,-11.90668 -14.60389,-27.04981 -16.64265,-42.83036 z"
         style="display:inline;fill:#6f918a;fill-rule:evenodd;stroke:none;stroke-width:1px;stroke-linecap:butt;stroke-linejoin:miter;stroke-opacity:1" />
      <path
         sodipodi:nodetypes="sssssss"
         inkscape:connector-curvature="0"
         id="path4392"
         d="m 397.44438,361.82842 c -3.75675,0.70884 -7.70154,3.68378 -8.81081,7.34235 -1.08605,3.58196 0.7166,7.95216 3.18168,10.76877 2.76585,3.16027 7.39863,6.02918 11.50301,5.13965 4.57532,-0.9916 9.27365,-5.84258 9.30031,-10.52404 0.027,-4.7429 -5.35943,-8.12959 -9.30031,-10.76877 -1.71484,-1.14842 -3.84579,-2.34063 -5.87388,-1.95796 z"
         style="display:inline;fill:#550000;fill-rule:evenodd;stroke:none;stroke-width:1px;stroke-linecap:butt;stroke-linejoin:miter;stroke-opacity:1" />
      <path
         sodipodi:nodetypes="asassssa"
         inkscape:connector-curvature="0"
         id="path4394"
         d="m 394.75219,360.35995 c -3.28522,2.18052 -5.2127,6.83859 -4.8949,10.76878 0.2608,3.22508 2.73291,6.22216 5.38439,8.07658 2.27006,1.58765 5.33046,2.32224 8.07658,1.95796 2.8593,-0.3793 5.96974,-1.77244 7.5871,-4.16067 1.88946,-2.79003 2.49656,-6.91456 1.22372,-10.03454 -1.38125,-3.38572 -5.09909,-5.69051 -8.56607,-6.85285 -2.78568,-0.93394 -6.36289,-1.38004 -8.81082,0.24474 z"
         style="display:inline;fill:#800000;fill-rule:evenodd;stroke:none;stroke-width:1px;stroke-linecap:butt;stroke-linejoin:miter;stroke-opacity:1" />
      <path
         sodipodi:nodetypes="sssssss"
         inkscape:connector-curvature="0"
         id="path4285"
         d="m 377.26521,387.94626 c 0.26314,-0.55888 0.96102,-1.03674 1.57569,-0.97543 0.54582,0.0545 1.38841,-0.13241 1.72575,0.30013 0.63345,0.81221 1.20005,2.52132 0.97543,3.52655 -0.16802,0.75194 -1.1228,1.18748 -1.87582,1.35059 -0.6232,0.13499 -1.43889,0.0893 -1.87582,-0.37517 -0.88223,-0.93775 -1.07368,-2.66181 -0.52523,-3.82667 z"
         style="fill:#000000;fill-opacity:0.32510292;fill-rule:evenodd;stroke:none;stroke-width:1px;stroke-linecap:butt;stroke-linejoin:miter;stroke-opacity:1" />
      <path
         sodipodi:nodetypes="ssassas"
         inkscape:connector-curvature="0"
         id="path4287"
         d="m 384.24326,426.28805 c -0.5218,1.18763 0.23989,2.89552 1.27556,3.67661 0.71998,0.543 1.86861,0.49651 2.70118,0.15006 1.11223,-0.46283 2.03585,-1.55318 2.40105,-2.70118 0.27463,-0.8633 0.29985,-2.0224 -0.30013,-2.70118 -0.35757,-0.40453 -1.03785,-0.4224 -1.57569,-0.37517 -1.62923,0.14306 -3.8441,0.45351 -4.50197,1.95086 z"
         style="fill:#000000;fill-opacity:0.21810704;fill-rule:evenodd;stroke:none;stroke-width:1px;stroke-linecap:butt;stroke-linejoin:miter;stroke-opacity:1" />
      <path
         sodipodi:nodetypes="cssscsssc"
         inkscape:connector-curvature="0"
         id="path4289"
         d="m 384.16823,426.66321 c 0,0 -0.36823,1.82496 0.075,2.55112 0.43158,0.70708 1.35021,1.13435 2.17595,1.20053 1.40369,0.1125 3.14468,-0.28956 3.97675,-1.42563 0.78381,-1.07019 0.15006,-3.97674 0.15006,-3.97674 0,0 0.15126,2.64423 -0.60026,3.60158 -0.70569,0.89897 -2.00901,1.38416 -3.15138,1.35059 -0.78263,-0.023 -1.61582,-0.43587 -2.10092,-1.05046 -0.47736,-0.60479 -0.5252,-2.25099 -0.5252,-2.25099 z"
         style="fill:#000000;fill-rule:evenodd;stroke:none;stroke-width:1px;stroke-linecap:butt;stroke-linejoin:miter;stroke-opacity:1" />
      <path
         sodipodi:nodetypes="cssscsssc"
         inkscape:connector-curvature="0"
         id="path4291"
         d="m 377.86547,388.24639 c 0,0 0.72388,-0.62578 1.12549,-0.52523 0.84917,0.21261 1.45374,1.23407 1.57569,2.10092 0.0783,0.55657 -0.11854,1.28613 -0.60026,1.57569 -0.34565,0.20777 -1.20053,-0.15007 -1.20053,-0.15007 0,0 1.11685,0.65973 1.57569,0.37517 0.56716,-0.35174 0.58161,-1.29655 0.4502,-1.95086 -0.19408,-0.96634 -0.74878,-2.2707 -1.72576,-2.40105 -0.51108,-0.0682 -1.20052,0.97543 -1.20052,0.97543 z"
         style="fill:#000000;fill-rule:evenodd;stroke:none;stroke-width:1px;stroke-linecap:butt;stroke-linejoin:miter;stroke-opacity:1" />
      <path
         sodipodi:nodetypes="czssssssssssssssssssssssssssssssssssssssssssc"
         inkscape:connector-curvature="0"
         id="path4283"
         d="m 379.72789,388.99927 c -0.17555,-1.50988 -11.10578,3.04677 -10.64582,5.96713 0.45997,2.92037 3.33354,4.22555 5.38288,3.00296 1.54802,-0.92351 0.7645,-3.90911 -0.24555,-5.40211 -1.10835,-1.63831 -3.46933,-2.87599 -5.40212,-2.45551 -2.43774,0.53033 -4.76806,3.15701 -4.91102,5.64767 -0.19905,3.46787 3.07427,6.56468 5.89322,8.59427 1.45074,1.04451 3.98965,2.82755 5.15657,1.47331 1.29118,-1.49845 -0.79246,-4.33126 -2.45551,-5.40212 -1.72044,-1.10781 -4.61117,-1.36147 -6.13877,0 -1.59924,1.42533 -1.48723,4.37789 -0.73665,6.38432 0.89318,2.38762 3.20614,4.4235 5.64767,5.15657 1.50792,0.45275 4.1545,0.75255 4.66546,-0.73665 0.58258,-1.69795 -1.89,-3.84717 -3.68326,-3.92882 -1.96918,-0.0897 -3.97838,2.00769 -4.41991,3.92882 -0.57539,2.50358 1.04696,5.39172 2.94661,7.12097 1.64653,1.49884 4.46593,3.09462 6.38432,1.96441 1.36928,-0.80671 2.03397,-3.47405 0.9822,-4.66547 -1.30456,-1.47778 -4.51096,-0.91426 -5.89322,0.4911 -1.72568,1.75452 -1.63168,5.18584 -0.4911,7.36653 1.32718,2.53746 4.57954,5.07783 7.36652,4.41991 2.0773,-0.49038 1.31183,-5.21168 3.43771,-5.40212 2.88461,-0.25841 2.68409,6.93224 4.98615,5.17489 3.06887,-2.34272 -1.37091,-8.58801 -5.2317,-8.6126 -2.72446,-0.0173 -1.7405,6.38171 -4.41991,6.87542 -1.89976,0.35005 -3.82756,-1.69716 -4.66547,-3.43771 -0.92377,-1.9189 -1.34907,-4.97268 0.24555,-6.38432 0.73798,-0.6533 2.3128,-0.50924 2.94661,0.24555 0.58138,0.69234 0.50211,2.19279 -0.24555,2.70106 -1.19947,0.81541 -3.09456,-0.25942 -4.17436,-1.22775 -1.58435,-1.4208 -2.78138,-3.79021 -2.45551,-5.89322 0.21344,-1.37742 1.3084,-3.13423 2.70106,-3.19216 0.69392,-0.0289 1.60465,0.79131 1.47331,1.4733 -0.11788,0.61211 -1.10037,0.65889 -1.71886,0.73666 -2.74311,0.34491 -4.50157,-2.62638 -5.15657,-5.15657 -0.39457,-1.52418 -0.56475,-3.7794 0.73666,-4.66547 1.24754,-0.84939 3.35271,-0.085 4.41991,0.98221 0.5336,0.5336 1.05148,1.70455 0.4911,2.20995 -0.57663,0.52005 -1.52165,-0.37724 -2.20996,-0.73665 -3.14863,-1.64409 -5.77585,-5.26715 -4.91101,-8.59427 0.50271,-1.93395 2.56435,-3.11206 4.53585,-3.43772 2.54263,-0.42 3.0418,1.2202 3.56732,2.45551 0.29015,0.68204 0.43726,1.92164 -0.24555,2.20996 -0.85973,0.36303 -1.68472,-1.56879 -1.68472,-1.56879 1.65081,-5.40516 9.78299,-2.49557 8.17542,-5.68245 z"
         style="display:inline;fill:#000080;fill-rule:evenodd;stroke:#0000ff;stroke-width:1px;stroke-linecap:butt;stroke-linejoin:miter;stroke-opacity:1" />
      <path
         inkscape:connector-curvature="0"
         id="path4308"
         d="m 379.11717,361.6391 -1.11505,0.50685 0.30411,2.02736 1.92599,-0.81095 z"
         style="fill:#000000;fill-rule:evenodd;stroke:#000000;stroke-width:1px;stroke-linecap:butt;stroke-linejoin:miter;stroke-opacity:1" />
      <path
         inkscape:connector-curvature="0"
         id="path4310"
         d="m 392.90325,397.11798 -1.52052,1.31779 1.82462,2.2301 1.41916,-1.41915 z"
         style="fill:#000000;fill-rule:evenodd;stroke:#000000;stroke-width:1px;stroke-linecap:butt;stroke-linejoin:miter;stroke-opacity:1" />
      <path
         inkscape:connector-curvature="0"
         id="path4312"
         d="m 423.31372,383.73738 -1.41916,0.50684 0.60821,1.82463 1.72326,-0.70958 z"
         style="fill:#000000;fill-rule:evenodd;stroke:#000000;stroke-width:1px;stroke-linecap:butt;stroke-linejoin:miter;stroke-opacity:1" />
      <path
         inkscape:connector-curvature="0"
         id="path4314"
         d="m 403.04007,350.4886 -1.52052,0.81095 1.11505,1.72326 1.62189,-1.11506 z"
         style="fill:#000000;fill-rule:evenodd;stroke:#000000;stroke-width:1px;stroke-linecap:butt;stroke-linejoin:miter;stroke-opacity:1" />
      <path
         sodipodi:nodetypes="sssss"
         inkscape:connector-curvature="0"
         id="path4316"
         d="m 398.18884,360.31662 c -0.46495,0.0642 -1.11257,0.45535 -1.06408,0.9222 0.0503,0.4843 0.79594,0.78522 1.2769,0.70939 0.47926,-0.0756 1.08478,-0.58764 0.99314,-1.06409 -0.0839,-0.43627 -0.76585,-0.62823 -1.20596,-0.5675 z"
         style="fill:#ffffff;fill-opacity:0.36625516;fill-rule:evenodd;stroke:none;stroke-width:1px;stroke-linecap:butt;stroke-linejoin:miter;stroke-opacity:1" />
      <path
         sodipodi:nodetypes="cascssc"
         inkscape:connector-curvature="0"
         id="path4318"
         d="m 401.31681,361.13226 c 0,0 3.12012,0.20024 4.4602,0.91232 2.04671,1.08755 3.5183,0.82642 4.96705,4.86567 1.65175,4.60527 0,8.41357 0,8.41357 0,0 -0.0682,-6.23058 -0.81095,-7.60262 -0.78887,-1.45723 -2.17854,-3.19066 -3.44652,-4.25746 -1.42394,-1.19802 -5.16978,-2.33148 -5.16978,-2.33148 z"
         style="fill:#ffffff;fill-opacity:0.36625516;fill-rule:evenodd;stroke:none;stroke-width:1px;stroke-linecap:butt;stroke-linejoin:miter;stroke-opacity:1" />
    </g>
  </g>
</svg>
