<?xml version="1.0" encoding="UTF-8" standalone="no"?>
<!-- Created with Inkscape (http://www.inkscape.org/) -->

<svg
   xmlns:dc="http://purl.org/dc/elements/1.1/"
   xmlns:cc="http://creativecommons.org/ns#"
   xmlns:rdf="http://www.w3.org/1999/02/22-rdf-syntax-ns#"
   xmlns:svg="http://www.w3.org/2000/svg"
   xmlns="http://www.w3.org/2000/svg"
   xmlns:sodipodi="http://sodipodi.sourceforge.net/DTD/sodipodi-0.dtd"
   xmlns:inkscape="http://www.inkscape.org/namespaces/inkscape"
   width="103.9873mm"
   height="108.22142mm"
   viewBox="0 0 368.45895 383.46172"
   id="svg4518"
   version="1.1"
   inkscape:version="0.91 r13725"
   sodipodi:docname="drop_bomb.svg">
  <defs
     id="defs4520" />
  <sodipodi:namedview
     id="base"
     pagecolor="#ffffff"
     bordercolor="#666666"
     borderopacity="1.0"
     inkscape:pageopacity="0.0"
     inkscape:pageshadow="2"
     inkscape:zoom="0.35"
     inkscape:cx="-375.57098"
     inkscape:cy="124.588"
     inkscape:document-units="px"
     inkscape:current-layer="layer1"
     showgrid="false"
     fit-margin-top="10"
     fit-margin-left="10"
     fit-margin-right="10"
     fit-margin-bottom="10"
     inkscape:window-width="1366"
     inkscape:window-height="705"
     inkscape:window-x="-8"
     inkscape:window-y="-8"
     inkscape:window-maximized="1" />
  <metadata
     id="metadata4523">
    <rdf:RDF>
      <cc:Work
         rdf:about="">
        <dc:format>image/svg+xml</dc:format>
        <dc:type
           rdf:resource="http://purl.org/dc/dcmitype/StillImage" />
        <dc:title></dc:title>
      </cc:Work>
    </rdf:RDF>
  </metadata>
  <g
     inkscape:label="Capa 1"
     inkscape:groupmode="layer"
     id="layer1"
     transform="translate(-187.71384,-273.48848)">
    <g
       style="display:inline"
       id="g4294"
       inkscape:transform-center-y="-37.469948"
       transform="matrix(-1.3836277,-0.63136382,0.63136382,-1.3836277,-392.40129,892.11572)"
       inkscape:transform-center-x="-20.882847">
      <path
         sodipodi:nodetypes="csscsscc"
         inkscape:connector-curvature="0"
         id="path4140"
         d="m -416.41467,532.5318 c 1.65141,1.23857 13.12618,12.63213 20.0743,16.5607 16.27495,9.2021 31.9109,11.47017 50.36825,14.44991 11.61552,1.8752 22.96835,0.5092 34.67979,0 0,0 -1.44677,-9.66926 -4.5414,-14.03705 -5.90347,-8.33222 -28.63716,-16.52701 -37.98262,-20.64273 -12.79696,-5.63575 -27.66126,-5.36711 -27.66126,-5.36711 -20.96355,0.0697 -17.46667,-0.66948 -34.93706,9.03628 z"
         style="fill:#1a1a1a;fill-rule:evenodd;stroke:none;stroke-width:1px;stroke-linecap:butt;stroke-linejoin:miter;stroke-opacity:1" />
      <path
         sodipodi:nodetypes="ssccccccss"
         inkscape:connector-curvature="0"
         id="path4138"
         d="m -314.28571,346.64792 c -24.36231,-4.82268 -50.40364,18.51302 -62.85715,40 -20.55773,35.46978 -3.23715,116.66432 -3.23715,116.66432 -8.41168,-1.90476 -19.726,1.21135 -30.23093,3.07153 -8.89166,15.63734 -5.77625,22.40292 -6.12763,25.79395 38.38549,0.69636 72.83153,12.88967 105.72285,31.16736 1.46693,-2.69084 10.23495,-14.07305 6.78866,-27.58153 -2.48016,-8.64026 -12.48599,-17.11149 -26.34296,-20.85854 0,0 68.38831,-54.08447 70.57002,-91.11424 1.84934,-31.38856 -23.44125,-71.03699 -54.28571,-77.14285 z"
         style="fill:#4d4d4d;fill-rule:evenodd;stroke:none;stroke-width:1px;stroke-linecap:butt;stroke-linejoin:miter;stroke-opacity:1" />
      <path
         sodipodi:nodetypes="csssccssssc"
         inkscape:connector-curvature="0"
         id="path4157"
         d="m -381.06476,395.51061 c 0,0 25.7466,-3.84003 39.22119,-2.47713 15.1604,1.53342 30.35163,5.977 43.76258,13.21134 10.57632,5.70523 20.48726,13.47923 27.66126,23.11986 2.50274,3.36325 4.95425,11.55993 4.95425,11.55993 2.63332,-4.52662 5.29318,-8.93383 5.77997,-23.11986 0,0 -4.6988,-23.21964 -10.32137,-33.44122 -6.53954,-11.88857 -11.23571,-21.24036 -22.707,-28.48696 -8.07169,-5.09903 -21.40541,-10.77723 -31.37694,-9.90851 -11.53262,1.00472 -25.6715,9.5549 -31.37695,14.44991 -21.0188,18.03316 -25.59699,35.09264 -25.59699,35.09264 z"
         style="fill:#483737;fill-rule:evenodd;stroke:none;stroke-width:1px;stroke-linecap:butt;stroke-linejoin:miter;stroke-opacity:1" />
      <path
         sodipodi:nodetypes="ccc"
         inkscape:connector-curvature="0"
         id="path4159"
         d="m -378.60221,503.05694 c 5.29397,-0.36906 35.70791,0.37213 48.07925,11.75089 0.95774,1.43155 -30.22872,-10.63546 -48.07925,-11.75089 z"
         style="fill:#000000;fill-opacity:0.41152266;fill-rule:evenodd;stroke:none;stroke-width:1px;stroke-linecap:butt;stroke-linejoin:miter;stroke-opacity:1" />
      <path
         sodipodi:nodetypes="cssccssscc"
         inkscape:connector-curvature="0"
         id="path4161"
         d="m -389.57418,534.89037 c 0,0 -18.62197,5 4.21922,13.51006 7.3217,2.72788 14.82917,5.09048 22.50248,6.56322 14.49179,2.78141 44.40025,4.62164 44.40025,4.62164 l 6.69913,3.81679 c 0,0 -17.83751,1.65023 -26.72169,0.9376 -13.65517,-1.09534 -26.95905,-3.94903 -40.31695,-7.96963 -6.39245,-1.92406 -13.50996,-4.98139 -19.22086,-8.43842 -6.81648,-4.12627 -17.61337,-15.77209 -17.61337,-15.77209 9.71134,1.13347 19.90369,1.7443 26.05179,2.73083 z"
         style="fill:#000000;fill-opacity:0.42798354;fill-rule:evenodd;stroke:none;stroke-width:1px;stroke-linecap:butt;stroke-linejoin:miter;stroke-opacity:1" />
      <path
         sodipodi:nodetypes="sssss"
         inkscape:connector-curvature="0"
         id="path4165"
         d="m -353.94525,395.57109 c -2.43059,-0.0419 -4.71857,2.7657 -5.15682,5.15682 -0.61786,3.37105 0.84817,8.75817 4.21922,9.37603 3.47799,0.63746 7.43989,-3.96543 7.50083,-7.50083 0.0553,-3.20586 -3.35737,-6.97676 -6.56323,-7.03202 z"
         style="fill:#000000;fill-opacity:0.23045265;fill-rule:evenodd;stroke:none;stroke-width:1px;stroke-linecap:butt;stroke-linejoin:miter;stroke-opacity:1" />
      <path
         sodipodi:nodetypes="sssss"
         inkscape:connector-curvature="0"
         id="path4167"
         d="m -322.53554,401.66551 c -2.53871,-0.49587 -5.95857,0.92818 -7.03202,3.28161 -1.41634,3.10517 -0.37786,8.63335 2.81281,9.84484 3.80958,1.44649 9.7941,-2.52153 10.31364,-6.56323 0.38064,-2.96112 -3.16432,-5.9909 -6.09443,-6.56322 z"
         style="fill:#000000;fill-opacity:0.23045265;fill-rule:evenodd;stroke:none;stroke-width:1px;stroke-linecap:butt;stroke-linejoin:miter;stroke-opacity:1" />
      <path
         sodipodi:nodetypes="sssss"
         inkscape:connector-curvature="0"
         id="path4169"
         d="m -293.00103,412.91675 c -2.01896,-1.23121 -5.47431,-0.8416 -7.03203,0.9376 -2.16168,2.46903 -2.75574,8.06302 0,9.84484 2.878,1.86088 8.03366,-1.06584 9.37604,-4.21922 0.90991,-2.13747 -0.36063,-5.35371 -2.34401,-6.56322 z"
         style="fill:#000000;fill-opacity:0.23045265;fill-rule:evenodd;stroke:none;stroke-width:1px;stroke-linecap:butt;stroke-linejoin:miter;stroke-opacity:1" />
      <path
         sodipodi:nodetypes="sssss"
         inkscape:connector-curvature="0"
         id="path4171"
         d="m -275.18657,431.20001 c -1.49637,-0.86026 -3.94296,-0.75827 -5.15682,0.46881 -2.75622,2.78623 -4.22889,9.59231 -0.9376,11.72004 2.99543,1.93647 8.26871,-1.76619 9.37603,-5.15682 0.80303,-2.45888 -1.03909,-5.74282 -3.28161,-7.03203 z"
         style="fill:#000000;fill-opacity:0.23045265;fill-rule:evenodd;stroke:none;stroke-width:1px;stroke-linecap:butt;stroke-linejoin:miter;stroke-opacity:1" />
      <path
         sodipodi:nodetypes="csssccsssscc"
         inkscape:connector-curvature="0"
         id="path4173"
         d="m -331.91157,348.69092 c 0,0 -17.8545,14.06416 -23.90888,23.44009 -8.12598,12.58406 -12.9417,27.42747 -15.47046,42.19214 -4.32663,25.2619 -4.51522,51.90661 -2.87366,77.80849 0.2281,3.5992 1.76106,10.67497 1.76106,10.67497 l -8.05811,0.34248 c 0,0 -4.65502,-28.51921 -5.83094,-42.88337 -1.02002,-12.4597 -1.23186,-25.0636 0,-37.50414 1.0207,-10.30811 2.19065,-20.87733 6.09442,-30.4721 2.59725,-6.38358 6.75384,-12.12367 11.25124,-17.34566 7.07988,-8.22053 24.37769,-21.56488 24.37769,-21.56488 z"
         style="fill:#000000;fill-opacity:0.15226339;fill-rule:evenodd;stroke:none;stroke-width:1px;stroke-linecap:butt;stroke-linejoin:miter;stroke-opacity:1" />
      <path
         inkscape:connector-curvature="0"
         id="path4175"
         d="m -264.87293,397.44629 -0.93761,37.03534 -19.22086,29.5345 -29.06571,29.5345 -16.4922,21.29057 13.67939,-10.50813 22.50248,-23.90888 21.09608,-22.03368 9.37603,-19.22087 3.75041,-18.28326 z"
         style="fill:#000000;fill-opacity:0.15226339;fill-rule:evenodd;stroke:none;stroke-width:1px;stroke-linecap:butt;stroke-linejoin:miter;stroke-opacity:1"
         sodipodi:nodetypes="ccccccccccc" />
      <path
         sodipodi:nodetypes="ssascsas"
         inkscape:connector-curvature="0"
         id="path4177"
         d="m -321.59793,351.03493 c 2.11565,-4.08304 9.31604,-0.10713 13.59524,1.5768 4.51719,1.77759 9.07013,3.58006 12.95606,6.43522 3.09265,2.27231 5.85754,5.38734 7.9688,8.30959 3.62407,5.0162 9.16365,15.55649 9.16365,15.55649 0,0 -8.21346,-13.63212 -16.06684,-19.43366 -5.85912,-4.32831 -10.48827,-5.66159 -15.93884,-8.05483 -3.80773,-1.67189 -12.79646,-2.23121 -11.67807,-4.38961 z"
         style="fill:#ffffff;fill-opacity:0.16049386;fill-rule:evenodd;stroke:none;stroke-width:1px;stroke-linecap:butt;stroke-linejoin:miter;stroke-opacity:1" />
      <path
         sodipodi:nodetypes="sssss"
         inkscape:connector-curvature="0"
         id="path4163"
         d="m -377.38533,399.3215 c -1.3254,-0.0389 -2.50816,1.52231 -2.81281,2.81281 -0.45414,1.92376 -0.0359,5.12107 1.87521,5.62562 2.03271,0.53664 4.57103,-2.12011 4.68801,-4.21921 0.1047,-1.87879 -1.86951,-4.16395 -3.75041,-4.21922 z"
         style="fill:#000000;fill-opacity:0.23045265;fill-rule:evenodd;stroke:none;stroke-width:1px;stroke-linecap:butt;stroke-linejoin:miter;stroke-opacity:1" />
      <path
         sodipodi:nodetypes="cssscsssc"
         inkscape:connector-curvature="0"
         id="path4194"
         d="m -372.22851,389.00786 c 0,0 17.47766,-0.40275 26.7217,1e-5 11.88352,0.51776 23.68961,2.97881 34.69132,7.50082 9.86334,4.0541 18.65904,9.89725 26.72169,16.87686 5.01536,4.34166 14.53285,12.18884 14.53285,12.18884 0,0 -10.70126,-9.60895 -16.41982,-15.24936 -6.76464,-6.6722 -14.53276,-10.86923 -23.30445,-14.52109 -12.11991,-5.04581 -24.77604,-8.4091 -37.89925,-8.04333 -8.94615,0.24934 -25.04404,1.24725 -25.04404,1.24725 z"
         style="fill:#000000;fill-opacity:0.39917698;fill-rule:evenodd;stroke:none;stroke-width:1px;stroke-linecap:butt;stroke-linejoin:miter;stroke-opacity:1" />
      <path
         sodipodi:nodetypes="sssssss"
         inkscape:connector-curvature="0"
         id="path4196"
         d="m -378.39109,400.68866 c -0.88909,0.0673 -1.90203,0.56116 -2.30561,1.35624 -0.61692,1.2154 -0.31926,2.91524 0.40687,4.06872 0.64849,1.03014 1.90751,2.01339 3.11936,1.89874 1.27458,-0.12058 2.54337,-1.33338 2.8481,-2.57686 0.30982,-1.26424 -0.44779,-2.72965 -1.35624,-3.66185 -0.67965,-0.69741 -1.74145,-1.15855 -2.71248,-1.08499 z"
         style="fill:#666666;fill-rule:evenodd;stroke:none;stroke-width:1px;stroke-linecap:butt;stroke-linejoin:miter;stroke-opacity:1" />
      <path
         sodipodi:nodetypes="ssassssss"
         inkscape:connector-curvature="0"
         id="path4198"
         d="m -355.335,397.56931 c -1.01994,7.1e-4 -2.18132,0.0485 -2.98373,0.67812 -1.27246,0.99844 -2.00729,2.73076 -2.16999,4.33997 -0.19305,1.90934 0.29932,4.05703 1.49187,5.56058 0.89237,1.12509 2.36153,2.04914 3.79747,2.03436 1.65973,-0.0171 3.18757,-1.24667 4.33997,-2.44123 1.09498,-1.13503 2.15131,-2.62735 2.16999,-4.20435 0.022,-1.86 -0.98328,-3.8629 -2.44124,-5.01809 -1.1261,-0.89224 -2.76761,-0.95036 -4.20434,-0.94936 z"
         style="fill:#666666;fill-rule:evenodd;stroke:none;stroke-width:1px;stroke-linecap:butt;stroke-linejoin:miter;stroke-opacity:1" />
      <path
         sodipodi:nodetypes="sssssssss"
         inkscape:connector-curvature="0"
         id="path4200"
         d="m -324.54834,402.72302 c -0.5425,0 -3.36372,0.94618 -4.20435,2.30561 -1.2373,2.0009 -1.22457,4.90171 -0.27125,7.05245 0.7412,1.6722 2.42194,3.11553 4.20435,3.52622 1.99802,0.46037 4.35659,-0.22335 5.96746,-1.49186 1.7634,-1.38863 3.30164,-5.43881 3.11935,-5.96746 0,0 -0.37516,-2.95296 -1.35624,-3.9331 -1.08221,-1.08117 -2.83114,-1.23977 -4.33997,-1.49186 -1.02557,-0.17135 -3.11935,0 -3.11935,0 z"
         style="fill:#666666;fill-rule:evenodd;stroke:none;stroke-width:1px;stroke-linecap:butt;stroke-linejoin:miter;stroke-opacity:1" />
      <path
         sodipodi:nodetypes="ssssassss"
         inkscape:connector-curvature="0"
         id="path4202"
         d="m -293.89731,413.03045 c -1.67321,-0.176 -3.21074,1.32967 -4.33997,2.57685 -1.00453,1.10945 -1.59981,2.60223 -1.89873,4.06873 -0.262,1.28538 -0.46676,2.76777 0.13562,3.93309 0.54807,1.06025 1.72741,1.75943 2.8481,2.16999 1.65769,0.60728 3.79839,1.21667 5.28934,0.27125 1.60943,-1.02055 1.94285,-3.3972 2.16999,-5.28934 0.17984,-1.49814 0.0292,-3.14275 -0.67812,-4.4756 -0.74982,-1.413 -1.93538,-3.08763 -3.52623,-3.25497 z"
         style="fill:#666666;fill-rule:evenodd;stroke:none;stroke-width:1px;stroke-linecap:butt;stroke-linejoin:miter;stroke-opacity:1" />
      <path
         sodipodi:nodetypes="ssssssss"
         inkscape:connector-curvature="0"
         id="path4204"
         d="m -272.87558,433.37405 c -0.73668,-0.88642 -1.98331,-1.68646 -3.11935,-1.49186 -1.70143,0.29144 -2.73457,2.20584 -3.66185,3.66185 -0.85273,1.33896 -1.63777,2.88819 -1.62749,4.47559 0.0116,1.78839 0.36966,4.09049 1.89873,5.01809 1.63484,0.99176 4.16673,0.46948 5.69621,-0.67812 1.57164,-1.17924 2.16843,-3.4649 2.30561,-5.42496 0.13399,-1.9144 -0.26526,-4.08468 -1.49186,-5.56059 z"
         style="fill:#666666;fill-rule:evenodd;stroke:none;stroke-width:1px;stroke-linecap:butt;stroke-linejoin:miter;stroke-opacity:1" />
      <path
         sodipodi:nodetypes="cscsc"
         inkscape:connector-curvature="0"
         id="path4206"
         d="m -399.71405,506.49552 c 0,0 -4.66076,6.15879 -5.75404,10.18793 -1.2742,4.69589 -0.23203,14.7107 -0.23203,14.7107 0,0 1.53457,-9.02403 2.70298,-13.54212 1.05307,-4.07208 3.28309,-11.35651 3.28309,-11.35651 z"
         style="fill:#000000;fill-opacity:0.61316869;fill-rule:evenodd;stroke:none;stroke-width:1px;stroke-linecap:butt;stroke-linejoin:miter;stroke-opacity:1" />
      <path
         sodipodi:nodetypes="cscsc"
         inkscape:connector-curvature="0"
         id="path4208"
         d="m -378.23229,506.49552 c 0,0 -3.73213,8.72701 -4.63878,13.2923 -0.87744,4.41821 -1.13303,14.49643 -1.13303,14.49643 0,0 3.55593,-8.94483 4.48721,-13.79193 0.79944,-4.16093 1.2846,-13.9968 1.2846,-13.9968 z"
         style="fill:#000000;fill-opacity:0.61316869;fill-rule:evenodd;stroke:none;stroke-width:1px;stroke-linecap:butt;stroke-linejoin:miter;stroke-opacity:1" />
      <path
         sodipodi:nodetypes="cscsc"
         inkscape:connector-curvature="0"
         id="path4210"
         d="m -349.3283,512.33942 c 0,0 -1.85286,10.60236 -2.80124,14.13898 -1.18351,4.41343 -4.25516,14.32709 -4.25516,14.32709 0,0 7.14377,-8.04429 8.26052,-12.77491 0.82258,-3.48452 -1.20412,-15.69116 -1.20412,-15.69116 z"
         style="fill:#000000;fill-opacity:0.61316869;fill-rule:evenodd;stroke:none;stroke-width:1px;stroke-linecap:butt;stroke-linejoin:miter;stroke-opacity:1" />
      <path
         sodipodi:nodetypes="cscsc"
         inkscape:connector-curvature="0"
         id="path4212"
         d="m -324.6617,521.89396 c 0,0 -0.0407,9.70011 -1.03479,13.14911 -1.2041,4.17743 -6.27144,15.38804 -6.27144,15.38804 0,0 9.26772,-8.76233 10.44613,-13.26514 0.94772,-3.62131 -3.1399,-15.27201 -3.1399,-15.27201 z"
         style="fill:#000000;fill-opacity:0.61316869;fill-rule:evenodd;stroke:none;stroke-width:1px;stroke-linecap:butt;stroke-linejoin:miter;stroke-opacity:1" />
      <path
         sodipodi:nodetypes="cscsc"
         inkscape:connector-curvature="0"
         id="path4214"
         d="m -307.64939,536.03293 c 0,0 -1.40482,7.27963 -2.68522,10.74087 -1.48799,4.02241 -5.75404,11.50808 -5.75404,11.50808 0,0 7.73243,-6.54241 9.20646,-11.12447 1.13828,-3.53838 -0.7672,-11.12448 -0.7672,-11.12448 z"
         style="fill:#000000;fill-opacity:0.61316869;fill-rule:evenodd;stroke:none;stroke-width:1px;stroke-linecap:butt;stroke-linejoin:miter;stroke-opacity:1" />
      <path
         sodipodi:nodetypes="ssccssccs"
         inkscape:connector-curvature="0"
         id="path4216"
         d="m -314.55424,527.21006 c 2.73018,4.96072 2.81805,11.28813 1.91801,16.87852 -0.87302,5.42253 -6.90485,14.96051 -6.90485,14.96051 l 8.05566,4.35342 c 0,0 5.09104,-6.85756 6.41321,-10.75717 1.2159,-3.58617 1.71236,-8.95784 1.5637,-12.74162 -0.16204,-4.12439 -3.75728,-10.77564 -3.75728,-10.77564 -14.55091,-14.5608 -23.17972,-13.30943 -23.26688,-14.11711 0,0 12.7336,6.30325 15.97843,12.19909 z"
         style="fill:#000000;fill-opacity:0.25925927;fill-rule:evenodd;stroke:none;stroke-width:1px;stroke-linecap:butt;stroke-linejoin:miter;stroke-opacity:1" />
      <path
         sodipodi:nodetypes="csccscc"
         inkscape:connector-curvature="0"
         id="path4218"
         d="m -400.48125,504.5775 c 0,0 -7.52288,10.01603 -8.40418,13.93324 -1.63421,7.2637 0.21473,13.95374 0.21473,13.95374 l -8.30547,0.0355 c 0,0 -0.0397,-9.36351 1.06577,-13.58555 1.10174,-4.20752 5.45548,-12.41895 5.45548,-12.41895 z"
         style="fill:#000000;fill-opacity:0.25925927;fill-rule:evenodd;stroke:none;stroke-width:1px;stroke-linecap:butt;stroke-linejoin:miter;stroke-opacity:1" />
      <path
         inkscape:connector-curvature="0"
         id="path4248"
         d="m -317.76058,436.01273 -8.56608,15.09261 6.52654,-6.52654 -24.4745,33.85639 24.4745,-26.10613 -17.94797,30.59313 22.84287,-29.77731 -4.8949,10.60562 20.39541,-29.3694 -13.86888,15.50051 4.48699,-11.01352 -10.60562,12.64516 11.01353,-24.0666 -10.60562,14.6847 z"
         style="fill:#000000;fill-opacity:0.14403292;fill-rule:evenodd;stroke:none;stroke-width:1px;stroke-linecap:butt;stroke-linejoin:miter;stroke-opacity:1" />
      <path
         sodipodi:nodetypes="cssscsssc"
         inkscape:connector-curvature="0"
         id="path4276"
         d="m -379.62182,402.25313 c 0,0 -0.65732,1.50991 -0.53694,2.28203 0.16077,1.03118 0.70267,2.17053 1.61084,2.68473 0.54513,0.30864 1.30642,0.25343 1.87931,0 0.60833,-0.2691 1.34237,-1.4766 1.34237,-1.4766 0,0 -1.13725,0.50619 -1.74508,0.53694 -0.45573,0.0231 -0.97309,-4.1e-4 -1.34237,-0.26847 -0.66474,-0.48254 -0.99998,-1.35318 -1.20813,-2.14779 -0.13606,-0.51942 0,-1.61084 0,-1.61084 z"
         style="fill:#000000;fill-opacity:0.55144037;fill-rule:evenodd;stroke:none;stroke-width:1px;stroke-linecap:butt;stroke-linejoin:miter;stroke-opacity:1" />
      <path
         sodipodi:nodetypes="csssscsssc"
         inkscape:connector-curvature="0"
         id="path4278"
         d="m -357.47274,399.16568 c 0,0 -1.44965,1.27392 -1.74508,2.14779 -0.47313,1.39947 -0.34151,3.03124 0.13424,4.42982 0.31996,0.94058 0.93972,1.83448 1.74508,2.41626 0.7227,0.52207 1.66718,0.92631 2.5505,0.80542 1.21733,-0.1666 3.08745,-2.01355 3.08745,-2.01355 0,0 -3.01966,0.86079 -4.42982,0.40271 -0.45238,-0.14695 -0.83562,-0.52799 -1.07389,-0.93966 -0.68576,-1.18481 -1.45453,-2.52409 -1.4766,-3.89286 -0.0176,-1.08857 1.20812,-3.35593 1.20812,-3.35593 z"
         style="fill:#000000;fill-opacity:0.40740739;fill-rule:evenodd;stroke:none;stroke-width:1px;stroke-linecap:butt;stroke-linejoin:miter;stroke-opacity:1" />
      <path
         sodipodi:nodetypes="cssssssscssssssc"
         inkscape:connector-curvature="0"
         id="path4280"
         d="m -325.39013,404.40092 c 0,0 -1.99796,1.58723 -2.41627,2.68473 -0.57921,1.51967 -0.39708,3.01377 0.40272,4.42982 0.59455,1.05266 1.67932,1.87856 2.81897,2.28203 1.13887,0.40319 2.50823,0.46233 3.6244,0 0.99387,-0.41168 1.78725,-0.87238 2.41626,-1.74508 0.76053,-1.05519 1.48705,-2.73231 1.61084,-4.02711 0.11056,-1.15639 -0.24105,-1.74067 -1.0739,-2.5505 -0.52908,-0.51445 -2.01355,-1.34237 -2.01355,-1.34237 0,0 1.67728,1.80401 1.87932,2.95321 0.14286,0.81261 -0.16133,1.68166 -0.53695,2.41627 -0.49059,0.95947 -1.20922,1.88678 -2.14779,2.41626 -1.07013,0.6037 -2.43953,0.99638 -3.62439,0.67119 -0.91738,-0.25178 -1.69427,-1.04308 -2.14779,-1.87932 -0.60335,-1.11252 -0.82434,-2.5261 -0.53695,-3.75863 0.23392,-1.00321 1.74508,-2.5505 1.74508,-2.5505 z"
         style="fill:#000000;fill-opacity:0.40740739;fill-rule:evenodd;stroke:none;stroke-width:1px;stroke-linecap:butt;stroke-linejoin:miter;stroke-opacity:1" />
      <path
         sodipodi:nodetypes="cssssscsssssc"
         inkscape:connector-curvature="0"
         id="path4282"
         d="m -298.27429,422.12018 c 0,0 0.88093,1.92604 1.74508,2.41627 0.89852,0.50973 2.09095,0.54078 3.08745,0.26847 0.74261,-0.20293 1.4852,-0.68107 1.87932,-1.34237 0.55406,-0.92967 1.00664,-1.87305 1.07389,-2.95321 0.0556,-0.89318 -0.37674,-2.10812 -0.67118,-2.95321 -0.54491,-1.56398 -3.08745,-3.89287 -3.08745,-3.89287 0,0 2.02905,2.60479 2.41626,4.16134 0.28105,1.12981 0.72498,1.80425 0.53695,2.95321 -0.12808,0.78248 -0.76538,2.27517 -1.34237,2.81898 -0.43445,0.40944 -1.14851,0.38058 -1.74508,0.40271 -0.58813,0.0218 -1.20256,-0.0403 -1.74508,-0.26848 -0.82494,-0.34691 -2.14779,-1.61084 -2.14779,-1.61084 z"
         style="fill:#000000;fill-opacity:0.40740739;fill-rule:evenodd;stroke:none;stroke-width:1px;stroke-linecap:butt;stroke-linejoin:miter;stroke-opacity:1" />
      <path
         sodipodi:nodetypes="csssscssssc"
         inkscape:connector-curvature="0"
         id="path4284"
         d="m -280.15231,440.64487 c 0,0 -0.0956,3.33393 1.07389,4.16134 0.84331,0.59665 2.10373,0.0469 3.08745,-0.26847 1.08884,-0.34905 2.28153,-0.81974 2.95321,-1.74508 0.727,-1.00156 0.83617,-2.38718 0.80542,-3.6244 -0.0461,-1.85569 -1.4766,-5.36947 -1.4766,-5.36947 0,0 0.94715,3.92445 0.80542,5.90642 -0.0697,0.97477 -0.17411,2.073 -0.80542,2.81897 -0.67233,0.79445 -1.80381,1.113 -2.81898,1.34237 -0.74197,0.16764 -1.6491,0.42195 -2.28202,0 -0.968,-0.64533 -1.34237,-3.22168 -1.34237,-3.22168 z"
         style="fill:#000000;fill-opacity:0.48148151;fill-rule:evenodd;stroke:none;stroke-width:1px;stroke-linecap:butt;stroke-linejoin:miter;stroke-opacity:1" />
      <path
         sodipodi:nodetypes="sssss"
         inkscape:connector-curvature="0"
         id="path4286"
         d="m -366.0107,544.3515 c -2.70303,-1.01128 -6.76855,-4.69029 -8.35294,-2.27808 -1.33467,2.03201 2.4365,4.50459 4.55614,5.69519 4.33864,2.43702 13.39104,6.66877 14.80749,1.89839 1.16007,-3.90694 -7.19355,-3.8874 -11.01069,-5.3155 z"
         style="fill:#000000;fill-rule:evenodd;stroke:#000000;stroke-width:1px;stroke-linecap:butt;stroke-linejoin:miter;stroke-opacity:1" />
      <path
         sodipodi:nodetypes="ccsccc"
         inkscape:connector-curvature="0"
         id="path4288"
         d="m -373.73445,544.26471 -23.40994,0.46646 c 0,0 9.86235,6.02353 16.32982,8.44334 5.52046,2.06549 19.36002,5.22511 19.36002,5.22511 l -4.17647,-11.39037 z"
         style="fill:#000000;fill-rule:evenodd;stroke:#000000;stroke-width:1px;stroke-linecap:butt;stroke-linejoin:miter;stroke-opacity:1" />
      <path
         sodipodi:nodetypes="ccssccc"
         inkscape:connector-curvature="0"
         id="path4290"
         d="m -370.18717,543.59214 -22.82776,-9.2461 c 0,0 9.21109,1.80982 14.58691,2.94704 6.30994,1.33482 13.29917,2.57502 19.40702,4.64655 4.38052,1.48568 13.17668,5.09132 13.17668,5.09132 l -18.64767,-0.0217 z"
         style="fill:#000000;fill-rule:evenodd;stroke:none;stroke-width:1px;stroke-linecap:butt;stroke-linejoin:miter;stroke-opacity:1" />
      <path
         sodipodi:nodetypes="cccsscc"
         inkscape:connector-curvature="0"
         id="path4292"
         d="m -359.55616,549.28732 28.11434,4.39705 15.92844,7.77438 c 0,0 -5.75449,1.05195 -8.73262,1.11734 -6.22056,0.13658 -12.57374,-0.004 -18.73807,-0.84975 -3.95909,-0.54307 -11.77005,-2.0105 -11.77005,-2.0105 z"
         style="fill:#000000;fill-rule:evenodd;stroke:#000000;stroke-width:1px;stroke-linecap:butt;stroke-linejoin:miter;stroke-opacity:1" />
    </g>
  </g>
</svg>
