<?xml version="1.0" encoding="UTF-8" standalone="no"?>
<!-- Created with Inkscape (http://www.inkscape.org/) -->

<svg
   xmlns:dc="http://purl.org/dc/elements/1.1/"
   xmlns:cc="http://creativecommons.org/ns#"
   xmlns:rdf="http://www.w3.org/1999/02/22-rdf-syntax-ns#"
   xmlns:svg="http://www.w3.org/2000/svg"
   xmlns="http://www.w3.org/2000/svg"
   xmlns:sodipodi="http://sodipodi.sourceforge.net/DTD/sodipodi-0.dtd"
   xmlns:inkscape="http://www.inkscape.org/namespaces/inkscape"
   width="103.9873mm"
   height="108.22142mm"
   viewBox="0 0 368.45895 383.46172"
   id="svg4518"
   version="1.1"
   inkscape:version="0.91 r13725"
   sodipodi:docname="grenade.svg">
  <defs
     id="defs4520" />
  <sodipodi:namedview
     id="base"
     pagecolor="#ffffff"
     bordercolor="#666666"
     borderopacity="1.0"
     inkscape:pageopacity="0.0"
     inkscape:pageshadow="2"
     inkscape:zoom="0.35"
     inkscape:cx="-375.57098"
     inkscape:cy="124.588"
     inkscape:document-units="px"
     inkscape:current-layer="layer1"
     showgrid="false"
     fit-margin-top="10"
     fit-margin-left="10"
     fit-margin-right="10"
     fit-margin-bottom="10"
     inkscape:window-width="1366"
     inkscape:window-height="705"
     inkscape:window-x="-8"
     inkscape:window-y="-8"
     inkscape:window-maximized="1" />
  <metadata
     id="metadata4523">
    <rdf:RDF>
      <cc:Work
         rdf:about="">
        <dc:format>image/svg+xml</dc:format>
        <dc:type
           rdf:resource="http://purl.org/dc/dcmitype/StillImage" />
        <dc:title></dc:title>
      </cc:Work>
    </rdf:RDF>
  </metadata>
  <g
     inkscape:label="Capa 1"
     inkscape:groupmode="layer"
     id="layer1"
     transform="translate(-187.71384,-273.48848)">
    <g
       style="display:inline"
       id="g4324"
       transform="matrix(1.3139906,0,0,1.3139906,706.98269,-137.45818)">
      <path
         inkscape:transform-center-y="-19.016763"
         inkscape:transform-center-x="-25.377127"
         sodipodi:nodetypes="sccasccs"
         inkscape:connector-curvature="0"
         id="path4336"
         d="m -152.82962,393.03883 c -19.56353,-80.72345 -148.04718,-82.33906 -116.4981,37.12347 l 4.77579,-4.83669 c 0,0 -4.65197,-62.84593 18.23936,-73.4373 27.56834,-12.75533 80.25617,-0.90633 81.62928,40.5101 2.16521,65.30854 -77.93716,34.40565 -77.93716,34.40565 l -3.46881,8.78483 c 68.07791,33.97774 98.85894,-19.44608 93.25964,-42.55006 z"
         style="fill:#000000;fill-rule:evenodd;stroke:none;stroke-width:1px;stroke-linecap:butt;stroke-linejoin:miter;stroke-opacity:1" />
      <path
         sodipodi:nodetypes="ssssasassss"
         inkscape:connector-curvature="0"
         id="path4332"
         d="m -274.92714,411.26055 c -18.16474,6.48268 -37.07018,21.60455 -46.52928,38.41253 -8.93052,15.86873 -7.42131,33.0611 -4.42705,49.27975 3.59215,19.45722 12.20476,39.21174 26.07068,53.32638 13.98972,14.24066 33.38482,26.33785 53.32639,27.25571 21.24946,0.97806 42.62813,-10.42816 59.25154,-23.70062 10.87444,-8.68237 19.92691,-20.972 23.70061,-34.36589 5.90051,-20.9425 4.86234,-45.11301 -3.55509,-65.17669 -4.75946,-11.34459 -15.36317,-19.46632 -24.88565,-27.25571 -10.69682,-8.75 -22.10394,-18.14258 -35.55092,-21.33056 -15.41744,-3.65513 -32.4783,-1.77063 -47.40123,3.5551 z"
         style="fill:#2d5016;fill-rule:evenodd;stroke:none;stroke-width:1px;stroke-linecap:butt;stroke-linejoin:miter;stroke-opacity:1" />
      <path
         sodipodi:nodetypes="sssscsssascs"
         inkscape:connector-curvature="0"
         id="path4338"
         d="m -283.4209,462.73026 c -20.7168,11.23798 -24.16937,12.53239 -18.75032,35.46951 3.80268,16.09552 13.91158,27.70276 27.24408,37.48901 14.84398,10.8957 32.54517,21.03169 50.95632,21.33055 17.75116,0.28815 49.33532,-16.34465 49.33532,-16.34465 0,0 -7.69922,11.06302 -13.9746,15.59559 -18.35077,13.2544 -41.84787,24.80309 -63.80146,23.26465 -16.22772,-1.13719 -31.17822,-12.17779 -42.66111,-23.70062 -15.59948,-15.65374 -28.34506,-36.27074 -31.99583,-58.06651 -3.11275,-18.58369 0.0385,-39.77373 9.65872,-55.69644 9.8092,-16.23551 89.13622,-34.37752 89.13622,-34.37752 0,0 13.65032,17.71666 -55.14734,55.03643 z"
         style="fill:#000000;fill-opacity:0.32510292;fill-rule:evenodd;stroke:none;stroke-width:1px;stroke-linecap:butt;stroke-linejoin:miter;stroke-opacity:1" />
      <path
         sodipodi:nodetypes="cssacccc"
         inkscape:connector-curvature="0"
         id="path4213"
         d="m -325.27913,458.82498 c 0,0 13.42594,2.11073 21.16689,0.43197 13.7216,-2.97577 29.13112,-8.5423 41.03787,-15.98317 12.94878,-8.09206 21.68179,-13.29923 28.07856,-23.75877 2.31432,-3.78422 3.02383,-12.95932 3.02383,-12.95932 l -20.30294,-2.15989 -61.34082,34.12622 c -7.48931,6.44325 -8.66131,12.73791 -11.66339,20.30296 z"
         style="fill:#1a1a1a;fill-rule:evenodd;stroke:none;stroke-width:1px;stroke-linecap:butt;stroke-linejoin:miter;stroke-opacity:1" />
      <path
         sodipodi:nodetypes="ccscccc"
         inkscape:connector-curvature="0"
         id="path4215"
         d="m -328.99193,477.92968 c 0,0 38.16833,18.24423 42.23635,-32.37502 11.23182,-5.79697 26.20031,-13.77801 35.77659,-21.71986 6.74738,-5.59577 7.34362,-18.57505 7.34362,-18.57505 l -7.34362,-1.29593 -63.93269,35.85414 z"
         style="fill:#000000;fill-opacity:0.26337448;fill-rule:evenodd;stroke:none;stroke-width:1px;stroke-linecap:butt;stroke-linejoin:miter;stroke-opacity:1" />
      <path
         sodipodi:nodetypes="csscssc"
         inkscape:connector-curvature="0"
         id="path4238"
         d="m -219.8766,423.83479 c 0,0 17.81873,9.20705 25.48668,15.55119 9.58233,7.92802 21.00667,15.88698 25.0547,27.64657 7.04905,20.47758 -4.75176,64.79664 -4.75176,64.79664 0,0 7.79132,-29.63785 0.86396,-49.24544 -3.55247,-10.05511 -16.60815,-31.39834 -23.75877,-39.30997 -6.71287,-7.4273 -22.89481,-19.43899 -22.89481,-19.43899 z"
         style="fill:#ffffff;fill-opacity:0.11934156;fill-rule:evenodd;stroke:none;stroke-width:1px;stroke-linecap:butt;stroke-linejoin:miter;stroke-opacity:1" />
      <path
         inkscape:transform-center-y="43.290686"
         inkscape:transform-center-x="4.988153"
         sodipodi:nodetypes="csscc"
         inkscape:connector-curvature="0"
         id="path4334"
         d="m -334.14065,458.82192 c -12.56331,21.13224 9.69705,33.0506 -6.48092,91.16663 -0.80986,2.90927 20.29826,13.62261 26.03395,0.22453 17.54239,-40.97753 -3.81707,-84.94605 -1.84463,-89.95004 5.75344,-9.07238 -7.19176,-15.14908 -17.7084,-1.44112 z"
         style="fill:#1a1a1a;fill-rule:evenodd;stroke:none;stroke-width:1px;stroke-linecap:butt;stroke-linejoin:miter;stroke-opacity:1" />
      <path
         sodipodi:nodetypes="ccccc"
         inkscape:connector-curvature="0"
         id="path4195"
         d="m -328.7546,449.92537 15.69386,5.11697 c -0.56222,1.68958 -1.10128,3.39798 -1.95637,4.84941 l -15.7487,-4.42907 z"
         style="fill:#1a1a1a;fill-rule:evenodd;stroke:none;stroke-width:1px;stroke-linecap:butt;stroke-linejoin:miter;stroke-opacity:1" />
      <path
         sodipodi:nodetypes="ccccc"
         inkscape:connector-curvature="0"
         id="path4191"
         d="m -332.25111,418.46195 20.09468,22.66659 c 34.96013,6.04646 62.55659,-22.80113 64.95993,-29.64614 4.5208,-12.94016 -0.50752,-21.1967 -1.70394,-31.84997 -17.96778,-2.95825 -56.50744,4.89511 -83.35067,38.82952 z"
         style="fill:#333333;fill-rule:evenodd;stroke:none;stroke-width:1px;stroke-linecap:butt;stroke-linejoin:miter;stroke-opacity:1" />
      <path
         sodipodi:nodetypes="cscsc"
         inkscape:connector-curvature="0"
         id="path4193"
         d="m -332.64714,418.02199 c 0,0 32.56718,-7.72562 47.957,-14.82307 12.92599,-5.96118 35.76174,-23.11454 35.76174,-23.11454 0,0 -21.38387,19.6053 -34.45383,25.73037 -15.35558,7.1962 -49.26491,12.20724 -49.26491,12.20724 z"
         style="fill:#000000;fill-opacity:0.36625516;fill-rule:evenodd;stroke:none;stroke-width:1px;stroke-linecap:butt;stroke-linejoin:miter;stroke-opacity:1" />
      <path
         sodipodi:nodetypes="cccscc"
         inkscape:connector-curvature="0"
         id="path4305"
         d="m -302.93886,473.16762 c -1.62709,-17.11066 14.74721,-33.21512 14.74721,-33.21512 -1.80665,-4.86152 -3.67503,-9.7095 -3.59577,-14.9851 0,0 -26.67518,15.07518 -27.09494,16.5723 -0.41976,1.49711 4.19759,22.45671 4.19759,22.45671 z"
         style="fill:#4d4d4d;fill-rule:evenodd;stroke:none;stroke-width:1px;stroke-linecap:butt;stroke-linejoin:miter;stroke-opacity:1" />
      <path
         sodipodi:nodetypes="ccsccsc"
         inkscape:connector-curvature="0"
         id="path4303"
         d="m -325.6699,426.00854 c 13.50183,-3.99444 20.89972,-2.8029 35.60407,-2.80849 0,0 -14.781,13.55041 -17.15077,22.08243 -2.55077,9.18364 4.06203,28.07089 4.06203,28.07089 l -48.29294,-1.87139 c 0,0 0.31704,-20.79692 4.96469,-29.56801 2.96808,-5.60138 20.81292,-15.90543 20.81292,-15.90543 z"
         style="fill:#333333;fill-rule:evenodd;stroke:none;stroke-width:1px;stroke-linecap:butt;stroke-linejoin:miter;stroke-opacity:1" />
      <path
         sodipodi:nodetypes="ccsc"
         inkscape:connector-curvature="0"
         id="path4322"
         d="m -323.39897,427.42395 c 11.09159,-1.63802 21.09994,-2.19281 30.71319,-2.3525 0,0 -11.08071,-0.92557 -16.59465,-0.45878 -4.78146,0.40478 -14.11854,2.81128 -14.11854,2.81128 z"
         style="fill:#000000;fill-opacity:0.3374486;fill-rule:evenodd;stroke:none;stroke-width:1px;stroke-linecap:butt;stroke-linejoin:miter;stroke-opacity:1" />
    </g>
  </g>
</svg>
