<?xml version="1.0" encoding="UTF-8" standalone="no"?>
<!-- Created with Inkscape (http://www.inkscape.org/) -->

<svg
   xmlns:dc="http://purl.org/dc/elements/1.1/"
   xmlns:cc="http://creativecommons.org/ns#"
   xmlns:rdf="http://www.w3.org/1999/02/22-rdf-syntax-ns#"
   xmlns:svg="http://www.w3.org/2000/svg"
   xmlns="http://www.w3.org/2000/svg"
   xmlns:sodipodi="http://sodipodi.sourceforge.net/DTD/sodipodi-0.dtd"
   xmlns:inkscape="http://www.inkscape.org/namespaces/inkscape"
   width="103.9873mm"
   height="108.22142mm"
   viewBox="0 0 368.45895 383.46172"
   id="svg4518"
   version="1.1"
   inkscape:version="0.91 r13725"
   sodipodi:docname="hand_bomb.svg">
  <defs
     id="defs4520" />
  <sodipodi:namedview
     id="base"
     pagecolor="#ffffff"
     bordercolor="#666666"
     borderopacity="1.0"
     inkscape:pageopacity="0.0"
     inkscape:pageshadow="2"
     inkscape:zoom="0.35"
     inkscape:cx="-375.57098"
     inkscape:cy="124.588"
     inkscape:document-units="px"
     inkscape:current-layer="layer1"
     showgrid="false"
     fit-margin-top="10"
     fit-margin-left="10"
     fit-margin-right="10"
     fit-margin-bottom="10"
     inkscape:window-width="1366"
     inkscape:window-height="705"
     inkscape:window-x="-8"
     inkscape:window-y="-8"
     inkscape:window-maximized="1" />
  <metadata
     id="metadata4523">
    <rdf:RDF>
      <cc:Work
         rdf:about="">
        <dc:format>image/svg+xml</dc:format>
        <dc:type
           rdf:resource="http://purl.org/dc/dcmitype/StillImage" />
        <dc:title></dc:title>
      </cc:Work>
    </rdf:RDF>
  </metadata>
  <g
     inkscape:label="Capa 1"
     inkscape:groupmode="layer"
     id="layer1"
     transform="translate(-187.71384,-273.48848)">
    <g
       style="display:inline"
       id="g7795"
       transform="matrix(1.3441541,0.59596421,-0.59596421,1.3441541,1039.4967,106.62436)"
       inkscape:transform-center-x="-133.41786"
       inkscape:transform-center-y="-106.42508">
      <path
         sodipodi:nodetypes="ccccc"
         inkscape:connector-curvature="0"
         id="path7691"
         d="m -326.57132,411.74911 c -9.7552,39.61614 -35.70559,68.72144 -56.0505,98.9245 l 28.23522,18.07934 c 16.51806,-36.42148 31.81748,-65.77701 43.51438,-105.81436 z"
         style="fill:#17280b;fill-rule:evenodd;stroke:none;stroke-width:1px;stroke-linecap:butt;stroke-linejoin:miter;stroke-opacity:1" />
      <path
         sodipodi:nodetypes="csscc"
         inkscape:connector-curvature="0"
         id="path7695"
         d="m -392.08779,515.20881 c 0,0 0.49494,5.62984 2.10419,7.78173 4.87879,6.52388 13.13549,10.10246 20.82661,12.78766 5.68893,1.98618 18.14638,2.48735 18.14638,2.48735 z"
         style="fill:#17280b;fill-opacity:1;fill-rule:evenodd;stroke:none;stroke-width:1px;stroke-linecap:butt;stroke-linejoin:miter;stroke-opacity:1" />
      <path
         sodipodi:nodetypes="ccccc"
         inkscape:connector-curvature="0"
         id="path7693"
         d="m -381.32164,498.13902 c -5.39829,4.60329 -8.72992,10.62447 -10.95281,16.44907 7.91055,16.56124 34.73188,22.05228 41.24866,23.69264 6.25744,-6.45577 9.29649,-16.59801 6.96791,-21.87756 0,0 -18.25434,-23.5927 -37.26376,-18.26415 z"
         style="display:inline;fill:#2d5016;fill-opacity:1;fill-rule:evenodd;stroke:none;stroke-width:1px;stroke-linecap:butt;stroke-linejoin:miter;stroke-opacity:1" />
      <path
         sodipodi:nodetypes="ccccc"
         inkscape:connector-curvature="0"
         id="path7689"
         d="m -355.61285,404.90158 c 13.19181,18.37856 30.82258,35.69069 76.02758,38.01378 30.76721,-29.44522 42.39714,-70.37281 57.63381,-109.13636 -8.80243,-25.79809 -36.24567,-54.27608 -78.48009,-42.91879 -20.65217,27.85097 -40.94552,57.31662 -55.1813,114.04137 z"
         style="display:inline;fill:#2d5016;fill-rule:evenodd;stroke:none;stroke-width:1px;stroke-linecap:butt;stroke-linejoin:miter;stroke-opacity:1" />
      <path
         sodipodi:nodetypes="cscsc"
         inkscape:connector-curvature="0"
         id="path7712"
         d="m -298.32668,294.23298 c 0,0 19.84449,-4.25497 30.57504,-0.66193 22.80501,7.63607 43.22004,36.33207 43.22004,36.33207 0,0 -23.46957,-26.07159 -44.21294,-33.69176 -9.853,-3.61954 -29.58214,-1.97838 -29.58214,-1.97838 z"
         style="display:inline;fill:#000000;fill-opacity:0.39917698;fill-rule:evenodd;stroke:none;stroke-width:1px;stroke-linecap:butt;stroke-linejoin:miter;stroke-opacity:1" />
      <path
         sodipodi:nodetypes="cscsc"
         inkscape:connector-curvature="0"
         id="path7714"
         d="m -353.47931,404.4002 c 0,0 18.5702,18.94321 29.46935,23.92307 12.49727,5.71004 42.82377,12.47431 42.82377,12.47431 0,0 -29.02441,-10.79237 -41.6127,-16.43849 -10.5447,-4.72953 -30.68042,-19.95889 -30.68042,-19.95889 z"
         style="display:inline;fill:#000000;fill-opacity:0.39917698;fill-rule:evenodd;stroke:none;stroke-width:1px;stroke-linecap:butt;stroke-linejoin:miter;stroke-opacity:1" />
      <path
         sodipodi:nodetypes="cscsc"
         inkscape:connector-curvature="0"
         id="path7716"
         d="m -268.04995,295.04036 c 0,0 -25.82498,36.49825 -33.70959,53.78129 -10.84711,23.7768 -25.58532,71.79885 -25.58532,71.79885 0,0 15.98664,-43.82894 27.41825,-69.92585 6.39866,-14.60732 31.87666,-55.65429 31.87666,-55.65429 z"
         style="display:inline;fill:#000000;fill-opacity:0.65020578;fill-rule:evenodd;stroke:none;stroke-width:1px;stroke-linecap:butt;stroke-linejoin:miter;stroke-opacity:1" />
      <path
         sodipodi:nodetypes="ssssss"
         inkscape:connector-curvature="0"
         id="path7718"
         d="m -266.83888,301.49939 c -1.22241,-0.21174 -2.84685,1.18171 -2.82583,2.42214 0.0146,0.8615 1.15693,1.6013 2.01845,1.61476 0.67273,0.0105 0.97647,-0.99831 1.61476,-1.21107 0.25532,-0.0851 0.6723,0.23277 0.80738,0 0.54453,-0.93833 -0.54579,-2.64067 -1.61476,-2.82583 z"
         style="display:inline;fill:#000000;fill-opacity:0.22222224;fill-rule:evenodd;stroke:none;stroke-width:1px;stroke-linecap:butt;stroke-linejoin:miter;stroke-opacity:1" />
      <path
         sodipodi:nodetypes="sssss"
         inkscape:connector-curvature="0"
         id="path7720"
         d="m -276.74832,314.57474 c -0.65088,-0.34177 -1.62502,0.18546 -2.06503,0.77439 -0.72283,0.96746 -1.11442,2.76219 -0.25813,3.6138 0.79544,0.79111 2.69971,0.65198 3.35568,-0.25812 0.82973,-1.15121 0.22386,-3.47034 -1.03252,-4.13007 z"
         style="display:inline;fill:#000000;fill-opacity:0.22222224;fill-rule:evenodd;stroke:none;stroke-width:1px;stroke-linecap:butt;stroke-linejoin:miter;stroke-opacity:1" />
      <path
         sodipodi:nodetypes="sssss"
         inkscape:connector-curvature="0"
         id="path7722"
         d="m -286.44147,330.56717 c -0.51175,-0.17929 -1.01811,0.54432 -1.25902,1.0301 -0.47491,0.95764 -1.01357,2.62665 -0.11445,3.20477 0.64581,0.41524 1.7276,-0.33809 2.0602,-1.03011 0.47326,-0.98467 0.34433,-2.84353 -0.68673,-3.20476 z"
         style="display:inline;fill:#000000;fill-opacity:0.22222224;fill-rule:evenodd;stroke:none;stroke-width:1px;stroke-linecap:butt;stroke-linejoin:miter;stroke-opacity:1" />
      <path
         sodipodi:nodetypes="sssss"
         inkscape:connector-curvature="0"
         id="path7724"
         d="m -295.48008,349.37325 c -0.72354,-0.34886 -1.69915,0.47798 -2.10649,1.17027 -0.71218,1.21036 -1.16848,3.43402 0,4.213 0.84389,0.5626 2.31758,-0.28285 2.80866,-1.17028 0.68933,-1.24569 0.58025,-3.59466 -0.70217,-4.21299 z"
         style="display:inline;fill:#000000;fill-opacity:0.22222224;fill-rule:evenodd;stroke:none;stroke-width:1px;stroke-linecap:butt;stroke-linejoin:miter;stroke-opacity:1" />
      <path
         sodipodi:nodetypes="sssss"
         inkscape:connector-curvature="0"
         id="path7726"
         d="m -299.59105,369.47448 c -1.32332,-0.82084 -3.52468,0.48631 -4.29394,1.84026 -0.50951,0.89678 -0.45751,2.50757 0.40894,3.06709 1.19556,0.77206 3.27194,-0.0619 4.08947,-1.22683 0.70583,-1.00577 0.83969,-3.03284 -0.20447,-3.68052 z"
         style="display:inline;fill:#000000;fill-opacity:0.22222224;fill-rule:evenodd;stroke:none;stroke-width:1px;stroke-linecap:butt;stroke-linejoin:miter;stroke-opacity:1" />
      <path
         sodipodi:nodetypes="sssss"
         inkscape:connector-curvature="0"
         id="path7728"
         d="m -308.2448,390.27858 c -0.73649,-0.27973 -1.78879,0.28821 -2.14593,0.99043 -0.38157,0.75025 -0.22513,2.04069 0.49521,2.47609 0.83445,0.50437 2.39431,0.0584 2.80623,-0.82536 0.40597,-0.87099 -0.25717,-2.29995 -1.15551,-2.64116 z"
         style="display:inline;fill:#000000;fill-opacity:0.22222224;fill-rule:evenodd;stroke:none;stroke-width:1px;stroke-linecap:butt;stroke-linejoin:miter;stroke-opacity:1" />
      <path
         sodipodi:nodetypes="ssssss"
         inkscape:connector-curvature="0"
         id="path7730"
         d="m -313.87151,408.02838 c -0.54735,0.56529 -1.16493,1.19063 -1.30941,1.96411 -0.12315,0.65928 -0.0995,1.56099 0.43647,1.96412 0.932,0.70098 2.79303,0.71545 3.49176,-0.21823 0.98334,-1.314 0.44277,-4.2176 -1.09117,-4.80118 -0.58489,-0.22251 -1.09235,0.64161 -1.52765,1.09118 z"
         style="display:inline;fill:#000000;fill-opacity:0.22222224;fill-rule:evenodd;stroke:none;stroke-width:1px;stroke-linecap:butt;stroke-linejoin:miter;stroke-opacity:1" />
      <path
         sodipodi:nodetypes="cssscccccc"
         inkscape:connector-curvature="0"
         id="path7777"
         d="m -285.37198,289.14698 c 0,0 -19.33991,13.1775 -26.20277,22.39146 -12.65605,16.9918 -19.29448,37.93519 -25.72636,58.12251 -3.3942,10.65315 -7.12278,21.70095 -6.6698,32.87257 0.30136,7.43233 6.19338,21.43862 6.19338,21.43862 -6.10369,-4.40162 -11.88949,-10.71054 -17.32244,-19.13655 4.98133,-25.53366 13.36257,-39.47177 19.53297,-57.87097 l 12.55831,-22.563 22.86787,-33.82539 z"
         style="fill:#000000;fill-opacity:0.18518521;fill-rule:evenodd;stroke:none;stroke-width:1px;stroke-linecap:butt;stroke-linejoin:miter;stroke-opacity:1" />
      <path
         sodipodi:nodetypes="cssscccccc"
         inkscape:connector-curvature="0"
         id="path7779"
         d="m -226.77306,323.92521 c 0,0 -2.86777,15.10242 -5.24056,22.39145 -4.80227,14.75221 -10.62572,29.28429 -18.10373,42.87726 -5.77552,10.49832 -13.11471,20.09106 -20.4858,29.53767 -6.23091,7.98538 -20.00939,22.86787 -20.00939,22.86787 l 11.43394,1.90566 22.39146,-29.53767 15.72166,-32.87256 19.05656,-48.59423 z"
         style="fill:#000000;fill-opacity:0.18518521;fill-rule:evenodd;stroke:none;stroke-width:1px;stroke-linecap:butt;stroke-linejoin:miter;stroke-opacity:1" />
      <path
         sodipodi:nodetypes="cscccc"
         inkscape:connector-curvature="0"
         id="path7781"
         d="m -333.54135,432.82047 c 0,0 4.20453,4.75546 6.79157,6.54003 2.74777,1.89544 7.79772,8.04926 7.79772,8.04926 l 3.52156,-11.06773 -16.35007,-7.54619 z"
         style="fill:#000000;fill-opacity:0.21399177;fill-rule:evenodd;stroke:none;stroke-width:1px;stroke-linecap:butt;stroke-linejoin:miter;stroke-opacity:1" />
      <path
         sodipodi:nodetypes="cscsc"
         inkscape:connector-curvature="0"
         id="path7783"
         d="m -379.57307,498.47228 9.81004,0.75461 c 10.83749,0.83364 24.92262,16.81274 24.39933,17.85931 0.28806,-1.4479 -15.03258,-16.02247 -24.90241,-17.35623 z"
         style="fill:#000000;fill-opacity:0.32098772;fill-rule:evenodd;stroke:none;stroke-width:1px;stroke-linecap:butt;stroke-linejoin:miter;stroke-opacity:1" />
      <path
         sodipodi:nodetypes="ccsc"
         inkscape:connector-curvature="0"
         id="path7785"
         d="m -378.81845,497.9692 c -5.75711,6.20464 -9.41407,12.40928 -11.82236,18.61392 0,0 4.3939,-5.24969 6.54002,-8.80388 1.74065,-2.88269 5.28234,-9.81004 5.28234,-9.81004 z"
         style="fill:#000000;fill-opacity:0.60493828;fill-rule:evenodd;stroke:none;stroke-width:1px;stroke-linecap:butt;stroke-linejoin:miter;stroke-opacity:1" />
      <path
         sodipodi:nodetypes="cscsc"
         inkscape:connector-curvature="0"
         id="path7787"
         d="m -370.51765,497.9692 c 0,0 -5.74385,7.39785 -7.79773,11.57081 -2.34174,4.75785 -5.03078,15.09237 -5.03078,15.09237 0,0 4.25581,-9.60742 6.54002,-14.33775 2.00563,-4.15342 6.28849,-12.32543 6.28849,-12.32543 z"
         style="fill:#000000;fill-opacity:0.60493828;fill-rule:evenodd;stroke:none;stroke-width:1px;stroke-linecap:butt;stroke-linejoin:miter;stroke-opacity:1" />
      <path
         sodipodi:nodetypes="cscsc"
         inkscape:connector-curvature="0"
         id="path7789"
         d="m -359.70145,502.49691 c 0,0 -6.12727,6.47262 -8.30081,10.31312 -2.99203,5.28672 -6.28848,17.10468 -6.28848,17.10468 0,0 7.1635,-10.64461 10.06158,-16.35006 1.80517,-3.55383 4.52771,-11.06774 4.52771,-11.06774 z"
         style="fill:#000000;fill-opacity:0.60493828;fill-rule:evenodd;stroke:none;stroke-width:1px;stroke-linecap:butt;stroke-linejoin:miter;stroke-opacity:1" />
      <path
         sodipodi:nodetypes="cscsc"
         inkscape:connector-curvature="0"
         id="path7791"
         d="m -352.15527,508.03078 c 0,0 -1.58539,8.01599 -3.01847,11.82235 -2.02151,5.36927 -7.79773,15.34391 -7.79773,15.34391 0,0 7.37749,-8.76704 9.30696,-14.84082 1.11812,-3.51973 1.50924,-12.32544 1.50924,-12.32544 z"
         style="fill:#000000;fill-opacity:0.60493828;fill-rule:evenodd;stroke:none;stroke-width:1px;stroke-linecap:butt;stroke-linejoin:miter;stroke-opacity:1" />
      <path
         sodipodi:nodetypes="cscsc"
         inkscape:connector-curvature="0"
         id="path7793"
         d="m -346.11832,515.32543 c 0,0 -0.0215,6.06578 -1.50924,9.81003 -1.66732,4.19616 -7.0431,11.57082 -7.0431,11.57082 0,0 6.61638,-6.95409 8.3008,-11.31928 1.45672,-3.7751 0.25154,-10.06157 0.25154,-10.06157 z"
         style="fill:#000000;fill-opacity:0.60493828;fill-rule:evenodd;stroke:none;stroke-width:1px;stroke-linecap:butt;stroke-linejoin:miter;stroke-opacity:1" />
    </g>
  </g>
</svg>
