<?xml version="1.0" encoding="UTF-8" standalone="no"?>
<!-- Created with Inkscape (http://www.inkscape.org/) -->

<svg
   xmlns:dc="http://purl.org/dc/elements/1.1/"
   xmlns:cc="http://creativecommons.org/ns#"
   xmlns:rdf="http://www.w3.org/1999/02/22-rdf-syntax-ns#"
   xmlns:svg="http://www.w3.org/2000/svg"
   xmlns="http://www.w3.org/2000/svg"
   xmlns:sodipodi="http://sodipodi.sourceforge.net/DTD/sodipodi-0.dtd"
   xmlns:inkscape="http://www.inkscape.org/namespaces/inkscape"
   width="103.9873mm"
   height="108.22142mm"
   viewBox="0 0 368.45895 383.46172"
   id="svg4518"
   version="1.1"
   inkscape:version="0.91 r13725"
   sodipodi:docname="land_mine.svg">
  <defs
     id="defs4520" />
  <sodipodi:namedview
     id="base"
     pagecolor="#ffffff"
     bordercolor="#666666"
     borderopacity="1.0"
     inkscape:pageopacity="0.0"
     inkscape:pageshadow="2"
     inkscape:zoom="0.35"
     inkscape:cx="-375.57098"
     inkscape:cy="124.588"
     inkscape:document-units="px"
     inkscape:current-layer="layer1"
     showgrid="false"
     fit-margin-top="10"
     fit-margin-left="10"
     fit-margin-right="10"
     fit-margin-bottom="10"
     inkscape:window-width="1366"
     inkscape:window-height="705"
     inkscape:window-x="-8"
     inkscape:window-y="-8"
     inkscape:window-maximized="1" />
  <metadata
     id="metadata4523">
    <rdf:RDF>
      <cc:Work
         rdf:about="">
        <dc:format>image/svg+xml</dc:format>
        <dc:type
           rdf:resource="http://purl.org/dc/dcmitype/StillImage" />
        <dc:title></dc:title>
      </cc:Work>
    </rdf:RDF>
  </metadata>
  <g
     inkscape:label="Capa 1"
     inkscape:groupmode="layer"
     id="layer1"
     transform="translate(-187.71384,-273.48848)">
    <g
       style="display:inline"
       id="g7663"
       transform="matrix(2.6189639,0,0,2.6189639,-1004.2633,-529.65714)">
      <g
         id="g7611">
        <path
           style="color:#000000;clip-rule:nonzero;display:inline;overflow:visible;visibility:visible;opacity:1;isolation:auto;mix-blend-mode:normal;color-interpolation:sRGB;color-interpolation-filters:linearRGB;solid-color:#000000;solid-opacity:1;fill:#005500;fill-opacity:1;fill-rule:evenodd;stroke:none;stroke-opacity:1;color-rendering:auto;image-rendering:auto;shape-rendering:auto;text-rendering:auto;enable-background:accumulate"
           id="path4364"
           sodipodi:type="arc"
           sodipodi:cx="526.70648"
           sodipodi:cy="385.20071"
           sodipodi:rx="62.615452"
           sodipodi:ry="36.587067"
           sodipodi:start="0"
           sodipodi:end="6.2831155"
           sodipodi:open="true"
           d="m 589.32193,385.20071 a 62.615452,36.587067 0 0 1 -62.61436,36.58707 62.615452,36.587067 0 0 1 -62.61654,-36.58579 62.615452,36.587067 0 0 1 62.61217,-36.58834 62.615452,36.587067 0 0 1 62.61873,36.58451" />
        <path
           style="fill:#000000;fill-opacity:0.23868312;fill-rule:evenodd;stroke:none;stroke-width:1px;stroke-linecap:butt;stroke-linejoin:miter;stroke-opacity:1"
           d="m 475.17234,364.89513 c 0,0 -3.37233,5.06635 -3.31428,8.0907 0.0639,3.32794 -0.49536,7.67405 1.1266,10.58068 1.99568,3.57634 5.26336,7.64571 8.61698,9.9965 5.49425,3.85131 11.67317,5.65575 17.99183,7.91273 7.0146,2.50557 16.76154,4.48346 24.16907,5.26521 6.90758,0.72898 13.96452,-0.72804 20.69299,-2.4525 5.55129,-1.42276 13.93142,-3.03838 18.95751,-5.79148 5.71974,-3.13305 10.37936,-6.41279 14.64859,-11.34282 1.3164,-1.52016 2.88667,-4.35454 3.62085,-6.22664 1.31707,-3.35843 2.29762,-5.98367 1.83511,-9.56135 -0.31121,-2.40732 -5.18687,-6.93087 -5.18687,-6.93087 l -32.34237,8.12391 c 0,0 -34.18176,6.5911 -35.40801,6.28454 -1.22625,-0.30657 -21.61267,-9.19689 -21.61267,-9.19689 l -11.49611,-6.89766 z"
           id="path4372"
           inkscape:connector-curvature="0"
           sodipodi:nodetypes="cssssssssssccsccc" />
        <path
           style="color:#000000;clip-rule:nonzero;display:inline;overflow:visible;visibility:visible;opacity:1;isolation:auto;mix-blend-mode:normal;color-interpolation:sRGB;color-interpolation-filters:linearRGB;solid-color:#000000;solid-opacity:1;fill:#008000;fill-opacity:1;fill-rule:evenodd;stroke:none;stroke-opacity:1;color-rendering:auto;image-rendering:auto;shape-rendering:auto;text-rendering:auto;enable-background:accumulate"
           id="path4366"
           sodipodi:type="arc"
           sodipodi:cx="527.19751"
           sodipodi:cy="371.6954"
           sodipodi:rx="52.793419"
           sodipodi:ry="27.501688"
           sodipodi:start="0"
           sodipodi:end="6.2831155"
           sodipodi:open="true"
           d="m 579.99093,371.6954 a 52.793419,27.501688 0 0 1 -52.7925,27.50169 52.793419,27.501688 0 0 1 -52.79434,-27.50073 52.793419,27.501688 0 0 1 52.79066,-27.50264 52.793419,27.501688 0 0 1 52.79618,27.49976" />
        <path
           style="color:#000000;clip-rule:nonzero;display:inline;overflow:visible;visibility:visible;opacity:1;isolation:auto;mix-blend-mode:normal;color-interpolation:sRGB;color-interpolation-filters:linearRGB;solid-color:#000000;solid-opacity:1;fill:#00aa00;fill-opacity:1;fill-rule:evenodd;stroke:none;stroke-opacity:1;color-rendering:auto;image-rendering:auto;shape-rendering:auto;text-rendering:auto;enable-background:accumulate"
           id="path4368"
           sodipodi:type="arc"
           sodipodi:cx="527.78094"
           sodipodi:cy="362.62265"
           sodipodi:rx="22.224602"
           sodipodi:ry="9.3198099"
           sodipodi:start="0"
           sodipodi:end="6.2831155"
           sodipodi:open="true"
           d="m 550.00555,362.62265 a 22.224602,9.3198099 0 0 1 -22.22422,9.31981 22.224602,9.3198099 0 0 1 -22.22499,-9.31948 22.224602,9.3198099 0 0 1 22.22344,-9.32014 22.224602,9.3198099 0 0 1 22.22577,9.31916" />
        <path
           style="fill:#000000;fill-opacity:0.44444448;fill-rule:evenodd;stroke:none;stroke-width:1px;stroke-linecap:butt;stroke-linejoin:miter;stroke-opacity:1"
           d="m 502.76299,357.23106 c 0,0 -11.4141,0.68313 -16.24783,3.37219 -4.98999,2.77598 -11.80266,12.41579 -11.80266,12.41579 0,0 7.61767,-8.18743 12.41579,-10.88298 4.762,-2.67526 15.6347,-4.905 15.6347,-4.905 z"
           id="path4395"
           inkscape:connector-curvature="0"
           sodipodi:nodetypes="cscsc" />
        <path
           style="fill:#000000;fill-opacity:0.44444448;fill-rule:evenodd;stroke:none;stroke-width:1px;stroke-linecap:butt;stroke-linejoin:miter;stroke-opacity:1"
           d="m 508.12784,370.71982 c 0,0 -6.12474,4.09104 -7.81735,7.20423 -2.59994,4.78203 -2.75907,16.09455 -2.75907,16.09455 0,0 2.30293,-10.21609 4.59845,-14.8683 1.52436,-3.08934 5.97797,-8.43048 5.97797,-8.43048 z"
           id="path4397"
           inkscape:connector-curvature="0"
           sodipodi:nodetypes="cscsc" />
        <path
           style="fill:#000000;fill-opacity:0.44444448;fill-rule:evenodd;stroke:none;stroke-width:1px;stroke-linecap:butt;stroke-linejoin:miter;stroke-opacity:1"
           d="m 541.54319,373.47889 c 0,0 5.53764,4.05749 6.89766,7.05094 1.88678,4.15287 1.07297,13.64205 1.07297,13.64205 0,0 2.45168,-9.84138 0.45984,-14.10189 -1.5107,-3.23136 -8.43047,-6.5911 -8.43047,-6.5911 z"
           id="path4399"
           inkscape:connector-curvature="0"
           sodipodi:nodetypes="cscsc" />
        <path
           style="fill:#000000;fill-opacity:0.44444448;fill-rule:evenodd;stroke:none;stroke-width:1px;stroke-linecap:butt;stroke-linejoin:miter;stroke-opacity:1"
           d="m 556.2582,360.29669 c 0,0 9.30782,1.88471 13.02892,4.59844 3.88883,2.83606 8.73704,11.4961 8.73704,11.4961 0,0 -4.15061,-10.20101 -8.43048,-13.1822 -3.73347,-2.60059 -13.33548,-2.91234 -13.33548,-2.91234 z"
           id="path4401"
           inkscape:connector-curvature="0"
           sodipodi:nodetypes="cscsc" />
        <path
           style="fill:#000000;fill-opacity:0.44444448;fill-rule:evenodd;stroke:none;stroke-width:1px;stroke-linecap:butt;stroke-linejoin:miter;stroke-opacity:1"
           d="m 534.15229,348.06664 c 1.41199,-1.49681 3.38425,-2.2466 5.39448,-2.94575 -1.27116,0.96997 -2.88969,1.69679 -3.21421,3.32941 z"
           id="path4403"
           inkscape:connector-curvature="0"
           sodipodi:nodetypes="cccc" />
        <path
           style="fill:#000000;fill-opacity:0.44444448;fill-rule:evenodd;stroke:none;stroke-width:1px;stroke-linecap:butt;stroke-linejoin:miter;stroke-opacity:1"
           d="m 507.85937,346.04339 c 3.52349,0.26889 5.94378,1.64098 8.16199,3.21516 -0.92945,0.22484 -1.96018,0.65222 -2.98852,1.07485 -0.76539,-2.0694 -2.91057,-3.21895 -5.17347,-4.29001 z"
           id="path4405"
           inkscape:connector-curvature="0"
           sodipodi:nodetypes="cccc" />
        <path
           style="fill:#000000;fill-opacity:0.44855969;fill-rule:evenodd;stroke:none;stroke-width:1px;stroke-linecap:butt;stroke-linejoin:miter;stroke-opacity:1"
           d="m 474.41202,372.41473 c 0,0 -3.89923,-0.9051 -5.1707,1.29267 -2.34668,4.05629 -4.73981,15.51212 -4.73981,15.51212 0,0 3.44855,-10.8665 5.60159,-14.86578 1.21222,-2.2517 4.30892,-1.93901 4.30892,-1.93901 z"
           id="path4407"
           inkscape:connector-curvature="0"
           sodipodi:nodetypes="cscsc" />
        <path
           style="fill:#000000;fill-opacity:0.44855969;fill-rule:evenodd;stroke:none;stroke-width:1px;stroke-linecap:butt;stroke-linejoin:miter;stroke-opacity:1"
           d="m 479.58272,383.18703 c 0,0 -4.73492,1.02055 -5.38614,2.58535 -1.98249,4.76366 -2.58536,16.3739 -2.58536,16.3739 0,0 2.22922,-10.63495 3.66259,-15.29666 0.541,-1.75948 4.30891,-3.66259 4.30891,-3.66259 z"
           id="path4409"
           inkscape:connector-curvature="0"
           sodipodi:nodetypes="cscsc" />
        <path
           style="fill:#000000;fill-opacity:0.44855969;fill-rule:evenodd;stroke:none;stroke-width:1px;stroke-linecap:butt;stroke-linejoin:miter;stroke-opacity:1"
           d="m 490.57046,391.80487 c 0,0 -5.47489,1.36484 -6.03248,3.44713 -1.2446,4.64787 -0.21545,16.15845 -0.21545,16.15845 l 1.29268,-15.943 z"
           id="path4411"
           inkscape:connector-curvature="0"
           sodipodi:nodetypes="csccc" />
        <path
           style="fill:#000000;fill-opacity:0.44855969;fill-rule:evenodd;stroke:none;stroke-width:1px;stroke-linecap:butt;stroke-linejoin:miter;stroke-opacity:1"
           d="m 505.00535,396.76013 c 0,0 -4.32183,3.43365 -4.52437,5.1707 -0.56858,4.87621 2.15446,15.943 2.15446,15.943 0,0 -0.75243,-11.06071 -0.64634,-15.943 0.0359,-1.65292 3.01625,-5.1707 3.01625,-5.1707 z"
           id="path4413"
           inkscape:connector-curvature="0"
           sodipodi:nodetypes="cscsc" />
        <path
           style="fill:#000000;fill-opacity:0.44855969;fill-rule:evenodd;stroke:none;stroke-width:1px;stroke-linecap:butt;stroke-linejoin:miter;stroke-opacity:1"
           d="m 523.1028,399.56093 -0.21544,7.10971 c 0,0 0.83662,14.3856 1.72357,14.43488 0,0 0.41127,-10.14564 0,-14.43489 -0.21643,-2.25724 -1.50813,-7.1097 -1.50813,-7.1097 z"
           id="path4415"
           inkscape:connector-curvature="0"
           sodipodi:nodetypes="ccssc" />
        <path
           style="fill:#000000;fill-opacity:0.44855969;fill-rule:evenodd;stroke:none;stroke-width:1px;stroke-linecap:butt;stroke-linejoin:miter;stroke-opacity:1"
           d="m 543.78562,398.05281 c 0,0 2.62322,3.69685 3.01625,4.95525 1.61272,5.16357 1.50812,16.15845 1.50812,16.15845 0,0 2.31895,-11.19952 0.21544,-16.15845 -0.6547,-1.54343 -4.73981,-4.95525 -4.73981,-4.95525 z"
           id="path4417"
           inkscape:connector-curvature="0"
           sodipodi:nodetypes="cscsc" />
        <path
           style="fill:#000000;fill-opacity:0.44855969;fill-rule:evenodd;stroke:none;stroke-width:1px;stroke-linecap:butt;stroke-linejoin:miter;stroke-opacity:1"
           d="m 562.52942,392.66665 c 0,0 3.87607,2.50533 4.30892,3.66259 1.84503,4.9328 1.50812,15.72755 1.50812,15.72755 0,0 2.79797,-12.21273 -0.21544,-17.02023 -0.6823,-1.08851 -5.6016,-2.36991 -5.6016,-2.36991 z"
           id="path4419"
           inkscape:connector-curvature="0"
           sodipodi:nodetypes="cscsc" />
        <path
           style="fill:#000000;fill-opacity:0.44855969;fill-rule:evenodd;stroke:none;stroke-width:1px;stroke-linecap:butt;stroke-linejoin:miter;stroke-opacity:1"
           d="m 573.30172,385.98783 c 0,0 3.72218,-0.47358 4.95526,0.64634 4.03645,3.66602 3.66257,15.943 3.66257,15.943 0,0 -2.39068,-10.01955 -4.73981,-14.43488 -0.41175,-0.7739 -3.87802,-2.15446 -3.87802,-2.15446 z"
           id="path4422"
           inkscape:connector-curvature="0"
           sodipodi:nodetypes="cacsc" />
        <path
           style="fill:#000000;fill-opacity:0.44855969;fill-rule:evenodd;stroke:none;stroke-width:1px;stroke-linecap:butt;stroke-linejoin:miter;stroke-opacity:1"
           d="m 579.98054,374.78464 c 0,0 3.78417,-0.66242 4.52437,0.43089 2.45299,3.62315 4.73981,13.78855 4.73981,13.78855 0,0 -3.51786,-8.72342 -5.38615,-12.28043 -0.74672,-1.42167 -3.87803,-1.93901 -3.87803,-1.93901 z"
           id="path4424"
           inkscape:connector-curvature="0"
           sodipodi:nodetypes="cscsc" />
      </g>
      <path
         sodipodi:nodetypes="csscc"
         inkscape:connector-curvature="0"
         id="path7633"
         d="m 508.58768,362.74919 -1.07296,-8.73704 c -2.03141,-16.54162 40.15971,-14.77521 40.15972,-3.06563 l 0,11.80267 c -6.92226,7.38447 -29.28296,10.91613 -39.08676,0 z"
         style="fill:#eb1616;fill-opacity:1;fill-rule:evenodd;stroke:none;stroke-width:1px;stroke-linecap:butt;stroke-linejoin:miter;stroke-opacity:1" />
      <path
         style="color:#000000;clip-rule:nonzero;display:inline;overflow:visible;visibility:visible;opacity:1;isolation:auto;mix-blend-mode:normal;color-interpolation:sRGB;color-interpolation-filters:linearRGB;solid-color:#000000;solid-opacity:1;fill:#ff2a2a;fill-opacity:1;fill-rule:evenodd;stroke:none;stroke-opacity:1;color-rendering:auto;image-rendering:auto;shape-rendering:auto;text-rendering:auto;enable-background:accumulate"
         id="path4370"
         sodipodi:type="arc"
         sodipodi:cx="527.48993"
         sodipodi:cy="350.13174"
         sodipodi:rx="19.928986"
         sodipodi:ry="8.9603491"
         sodipodi:start="0"
         sodipodi:end="6.2831155"
         sodipodi:open="true"
         d="m 547.41891,350.13174 a 19.928986,8.9603491 0 0 1 -19.92863,8.96035 19.928986,8.9603491 0 0 1 -19.92934,-8.96003 19.928986,8.9603491 0 0 1 19.92795,-8.96066 19.928986,8.9603491 0 0 1 19.93002,8.95972" />
      <path
         sodipodi:nodetypes="sssss"
         inkscape:connector-curvature="0"
         id="path7659"
         d="m 515.17878,344.66199 c -1.23519,-0.25837 -3.26709,0.14434 -3.52547,1.37953 -0.19233,0.91945 0.90707,0.65164 1.83938,0.76641 1.18277,0.14561 2.72503,-0.43944 1.99266,-1.37954 0,0 0.4007,-0.61846 -0.30657,-0.7664 z"
         style="fill:#ffffff;fill-opacity:0.21810704;fill-rule:evenodd;stroke:none;stroke-width:1px;stroke-linecap:butt;stroke-linejoin:miter;stroke-opacity:1" />
      <path
         sodipodi:nodetypes="cscsc"
         inkscape:connector-curvature="0"
         id="path7661"
         d="m 519.62395,343.7423 c 0,0 6.29511,-1.58493 9.50344,-1.53282 4.00765,0.0651 11.80267,2.29922 11.80267,2.29922 0,0 -7.85391,-0.95761 -11.80267,-1.07297 -3.16811,-0.0925 -9.50344,0.30657 -9.50344,0.30657 z"
         style="fill:#ffffff;fill-opacity:0.21810704;fill-rule:evenodd;stroke:none;stroke-width:1px;stroke-linecap:butt;stroke-linejoin:miter;stroke-opacity:1" />
    </g>
  </g>
</svg>
