<?xml version="1.0" encoding="UTF-8" standalone="no"?>
<!-- Created with Inkscape (http://www.inkscape.org/) -->

<svg
   xmlns:dc="http://purl.org/dc/elements/1.1/"
   xmlns:cc="http://creativecommons.org/ns#"
   xmlns:rdf="http://www.w3.org/1999/02/22-rdf-syntax-ns#"
   xmlns:svg="http://www.w3.org/2000/svg"
   xmlns="http://www.w3.org/2000/svg"
   xmlns:sodipodi="http://sodipodi.sourceforge.net/DTD/sodipodi-0.dtd"
   xmlns:inkscape="http://www.inkscape.org/namespaces/inkscape"
   width="103.9873mm"
   height="108.22142mm"
   viewBox="0 0 368.45895 383.46172"
   id="svg4518"
   version="1.1"
   inkscape:version="0.91 r13725"
   sodipodi:docname="molotov.svg">
  <defs
     id="defs4520" />
  <sodipodi:namedview
     id="base"
     pagecolor="#ffffff"
     bordercolor="#666666"
     borderopacity="1.0"
     inkscape:pageopacity="0.0"
     inkscape:pageshadow="2"
     inkscape:zoom="0.35"
     inkscape:cx="-375.57098"
     inkscape:cy="124.588"
     inkscape:document-units="px"
     inkscape:current-layer="layer1"
     showgrid="false"
     fit-margin-top="10"
     fit-margin-left="10"
     fit-margin-right="10"
     fit-margin-bottom="10"
     inkscape:window-width="1366"
     inkscape:window-height="705"
     inkscape:window-x="-8"
     inkscape:window-y="-8"
     inkscape:window-maximized="1" />
  <metadata
     id="metadata4523">
    <rdf:RDF>
      <cc:Work
         rdf:about="">
        <dc:format>image/svg+xml</dc:format>
        <dc:type
           rdf:resource="http://purl.org/dc/dcmitype/StillImage" />
        <dc:title></dc:title>
      </cc:Work>
    </rdf:RDF>
  </metadata>
  <g
     inkscape:label="Capa 1"
     inkscape:groupmode="layer"
     id="layer1"
     transform="translate(-187.71384,-273.48848)">
    <g
       style="display:inline"
       id="g8294"
       transform="matrix(0.64636979,-0.486271,0.486271,0.64636979,339.57994,-61.799656)"
       inkscape:transform-center-x="124.13118"
       inkscape:transform-center-y="-61.436232">
      <path
         sodipodi:nodetypes="cscccc"
         inkscape:connector-curvature="0"
         id="path8189"
         d="m -494.49471,376.40156 c 2.26833,-3.78054 31.54396,-28.42474 46.87871,-32.51265 19.75008,-5.26495 61.24476,9.82941 61.24476,9.82941 l 27.21989,35.53708 -102.83071,-8.31719 c -0.47738,-5.24769 -11.91933,-3.31215 -32.51265,-4.53665 z"
         style="fill:#22241c;fill-rule:evenodd;stroke:none;stroke-width:1px;stroke-linecap:butt;stroke-linejoin:miter;stroke-opacity:1" />
      <path
         sodipodi:nodetypes="csaccccccccscc"
         inkscape:connector-curvature="0"
         id="path8167"
         d="m -351.22504,465.35936 c 0,0 -13.88179,-54.89531 -25.64866,-59.96366 -13.21419,-5.69175 -30.23824,2.00703 -41.87485,10.46871 -11.57262,8.41515 -22.74102,36.40752 -22.74102,36.40752 -6.98598,-22.36044 -13.20176,-27.16088 -13.20176,-27.16088 2.73077,-20.53721 11.74855,-31.92864 26.63712,-36.81446 l -14.88857,4.88582 c -14.60802,7.70776 -23.96185,39.43194 -23.96185,39.43194 -4.08984,-12.35997 -5.82174,-36.19597 -21.11201,-31.7553 0,0 16.17058,-37.73735 52.05342,-50.83135 l 17.21467,-3.2568 c 0,0 30.28606,-1.98214 42.92235,8.84093 22.18045,18.99773 30.70781,109.28405 30.70781,109.28405 z"
         style="display:inline;fill:#8a916f;fill-rule:evenodd;stroke:none;stroke-width:1px;stroke-linecap:butt;stroke-linejoin:miter;stroke-opacity:1" />
      <path
         sodipodi:nodetypes="ccsscsac"
         inkscape:connector-curvature="0"
         id="path8228"
         d="m -445.34768,392.27983 28.73211,-10.58551 c 0,0 18.09923,-2.05679 26.46379,0.7561 8.22003,2.76429 15.9862,8.17034 21.17102,15.12217 5.09871,6.83637 8.31719,24.19546 8.31719,24.19546 0,0 -7.81274,-17.69252 -15.12216,-23.43935 -9.64964,-7.58677 -22.54653,-11.1012 -34.78097,-12.09773 -11.72884,-0.95534 -34.78098,6.04886 -34.78098,6.04886 z"
         style="fill:#000000;fill-opacity:0.32921813;fill-rule:evenodd;stroke:none;stroke-width:1px;stroke-linecap:butt;stroke-linejoin:miter;stroke-opacity:1" />
      <path
         sodipodi:nodetypes="cscscc"
         inkscape:connector-curvature="0"
         id="path8230"
         d="m -407.54227,347.66945 c 0,0 18.91862,12.7635 26.46378,21.17103 4.38968,4.8914 10.58552,16.63438 10.58552,16.63438 0,0 -13.55546,-17.11339 -22.68325,-22.68325 -11.97485,-7.30717 -40.07373,-12.85383 -40.07373,-12.85383 8.56923,-2.6842 17.13845,-5.47731 25.70768,-2.26833 z"
         style="fill:#000000;fill-opacity:0.32921813;fill-rule:evenodd;stroke:none;stroke-width:1px;stroke-linecap:butt;stroke-linejoin:miter;stroke-opacity:1" />
      <path
         sodipodi:nodetypes="cscsc"
         inkscape:connector-curvature="0"
         id="path8232"
         d="m -480.12865,399.0848 c 0,0 9.13724,-13.49059 15.12216,-18.9027 7.5704,-6.84583 25.70768,-16.63438 25.70768,-16.63438 0,0 -19.01188,12.13292 -26.46378,20.41492 -5.14651,5.7198 -12.09773,19.65881 -12.09773,19.65881"
         style="fill:#000000;fill-opacity:0.32921813;fill-rule:evenodd;stroke:none;stroke-width:1px;stroke-linecap:butt;stroke-linejoin:miter;stroke-opacity:1" />
      <path
         sodipodi:nodetypes="ccczc"
         inkscape:connector-curvature="0"
         id="path8234"
         d="m -444.59157,444.45129 c 0.75611,-3.02443 8.31719,-27.21989 8.31719,-27.21989 l 25.70768,-16.63438 c 0,0 -18.39761,10.46021 -24.19546,18.14659 -5.79785,7.68638 -9.82941,25.70768 -9.82941,25.70768 z"
         style="fill:#000000;fill-opacity:0.32921813;fill-rule:evenodd;stroke:none;stroke-width:1px;stroke-linecap:butt;stroke-linejoin:miter;stroke-opacity:1" />
      <path
         sodipodi:nodetypes="csccc"
         inkscape:connector-curvature="0"
         id="path8236"
         d="m -367.46854,386.23097 c 0,0 9.93021,18.13872 12.85384,27.976 1.95979,6.59418 3.02443,20.41491 3.02443,20.41491 l -7.56108,-22.68324 z"
         style="fill:#000000;fill-opacity:0.32921813;fill-rule:evenodd;stroke:none;stroke-width:1px;stroke-linecap:butt;stroke-linejoin:miter;stroke-opacity:1" />
      <path
         sodipodi:nodetypes="sccsscsscccss"
         inkscape:connector-curvature="0"
         id="path8163"
         d="m -364.31124,583.36383 c -5.0214,54.38912 34.60516,149.12046 34.60516,149.12046 31.36217,19.83862 78.48288,10.49504 90.49566,-20.41368 0,0 -18.5388,-117.32601 -56.88021,-162.61361 -9.48083,-11.19844 -28.4395,-22.62422 -28.4395,-22.62422 -7.80702,-12.68614 -11.93402,-47.91398 -16.38347,-78.97483 0,0 4.76572,-4.7219 4.7449,-9.1592 -0.0224,-4.77765 2.50517,-15.74431 -8.83413,-15.27326 -9.5736,0.3977 -15.6239,-1.45729 -29.07879,10.58428 -6.32099,7.34757 -2.49624,14.69513 0.98846,22.0427 5.47075,3.83437 9.68667,2.6494 13.14398,-1.57 6.36326,30.98501 19.45071,66.37282 12.38788,84.91276 0,0 -15.3081,28.35134 -16.74994,43.9686 z"
         style="display:inline;fill:#005500;fill-rule:evenodd;stroke:none;stroke-width:1px;stroke-linecap:butt;stroke-linejoin:miter;stroke-opacity:1" />
      <path
         sodipodi:nodetypes="cccccccccccc"
         inkscape:connector-curvature="0"
         id="path8165"
         d="m -302.08048,571.55749 c 2.09374,8.37497 25.70644,30.65003 25.70644,30.65003 l 3.64785,-12.17701 15.545,43.75773 -1.17817,6.26856 c 7.27995,8.10334 8.58386,23.40819 11.29772,33.33797 l -20.93743,-10.46871 -36.38485,35.68141 2.88496,-46.15013 -37.57057,-33.49988 35.06989,-4.76901 z"
         style="display:inline;fill:#55d400;fill-opacity:0.48559672;fill-rule:evenodd;stroke:none;stroke-width:1px;stroke-linecap:butt;stroke-linejoin:miter;stroke-opacity:1" />
      <path
         sodipodi:nodetypes="csssssssssssscc"
         inkscape:connector-curvature="0"
         id="path8187"
         d="m -362.93189,426.3047 c 0,0 8.09095,15.75305 10.58551,24.19545 3.98029,13.4706 4.10783,27.80098 6.80497,41.58595 2.82936,14.46076 5.80117,26.90535 4.53665,41.58594 -1.28943,14.96981 -10.169,28.19724 -12.09773,43.09817 -2.80929,21.70403 0.857,44.74108 9.0733,65.0253 3.04705,7.5225 6.26547,19.15583 14.36606,19.65881 5.87253,0.36464 10.84815,-7.10422 12.09772,-12.85384 3.16527,-14.56428 -10.4765,-27.95427 -14.36605,-42.34206 -3.62472,-13.40814 -9.30299,-26.97541 -8.31719,-40.82983 0.79778,-11.21201 6.09956,-22.02852 6.04886,-33.26876 -0.0593,-13.15653 -5.25916,-22.74074 -8.31718,-35.53708 -3.00824,-12.58803 -3.08125,-25.70112 -4.53665,-38.56151 -1.3114,-11.58798 -3.78054,-34.78098 -3.78054,-34.78098 z"
         style="display:inline;fill:#22241c;fill-opacity:0.2921811;fill-rule:evenodd;stroke:none;stroke-width:1px;stroke-linecap:butt;stroke-linejoin:miter;stroke-opacity:1" />
      <path
         sodipodi:nodetypes="ccc"
         inkscape:connector-curvature="0"
         id="path8280"
         d="m -345.58775,448.82572 c -12.17077,7.56667 -20.71276,13.84203 -27.57335,7.08565 10.41189,-0.84448 16.91899,-2.91789 27.57335,-7.08565 z"
         style="fill:#000000;fill-rule:evenodd;stroke:none;stroke-width:1px;stroke-linecap:butt;stroke-linejoin:miter;stroke-opacity:1" />
      <path
         sodipodi:nodetypes="cassaccssc"
         inkscape:connector-curvature="0"
         id="path8282"
         d="m -347.46723,539.56167 c -1.1455,1.52733 -11.21098,29.78196 -12.60046,45.43802 -1.44653,16.29888 1.49091,32.80618 4.58198,48.87451 2.38129,12.37864 6.73054,24.30686 10.6913,36.27405 5.32666,16.09418 8.90146,33.15674 17.56428,47.72902 4.93136,8.29535 19.09161,21.76443 19.09161,21.76443 -5.03725,1.27767 -13.86121,-3.75585 -21.76443,-7.25481 0,0 -24.33483,-62.59118 -30.54658,-97.74903 -2.90305,-16.43098 -6.04148,-39.33151 -3.05465,-55.74748 2.64466,-14.53541 16.03695,-39.32871 16.03695,-39.32871 z"
         style="fill:#000000;fill-opacity:0.39094651;fill-rule:evenodd;stroke:none;stroke-width:1px;stroke-linecap:butt;stroke-linejoin:miter;stroke-opacity:1" />
      <path
         sodipodi:nodetypes="csscsssc"
         inkscape:connector-curvature="0"
         id="path8284"
         d="m -329.52112,732.00506 c 0,0 13.68335,-15.89441 21.3826,-19.47344 12.29553,-5.71562 26.49209,-7.27379 40.09237,-6.87298 10.75083,0.31684 29.01924,6.10931 29.01924,6.10931 0,0 -9.34027,15.31037 -17.18244,20.61894 -7.18342,4.86265 -13.61056,7.84759 -23.67359,8.78214 -14.02323,1.30234 -23.14709,1.1262 -33.60123,-1.1455 -5.84032,-1.2691 -16.03695,-8.01847 -16.03695,-8.01847 z"
         style="fill:#000000;fill-opacity:0.2962963;fill-rule:evenodd;stroke:none;stroke-width:1px;stroke-linecap:butt;stroke-linejoin:miter;stroke-opacity:1" />
      <path
         sodipodi:nodetypes="cssscsssc"
         inkscape:connector-curvature="0"
         id="path8286"
         d="m -323.02998,725.89574 c 0,0 7.09228,-9.97637 12.21863,-12.98229 7.24309,-4.24711 16.13918,-4.82784 24.43726,-6.10931 8.19158,-1.26503 16.5804,-2.43631 24.81909,-1.52733 5.92573,0.65379 17.18244,4.96382 17.18244,4.96382 0,0 -14.20333,-2.44148 -21.3826,-2.67283 -6.372,-0.20534 -12.78326,0.22385 -19.0916,1.1455 -8.2786,1.20951 -16.94967,1.99462 -24.43726,5.72748 -5.33784,2.66113 -13.74596,11.45496 -13.74596,11.45496 z"
         style="fill:#000000;fill-opacity:0.53086416;fill-rule:evenodd;stroke:none;stroke-width:1px;stroke-linecap:butt;stroke-linejoin:miter;stroke-opacity:1" />
      <path
         sodipodi:nodetypes="cssssccssc"
         inkscape:connector-curvature="0"
         id="path8288"
         d="m -321.50265,529.2522 c 1.52733,3.05466 25.77805,24.45615 34.36489,39.71054 8.1346,14.45101 10.62517,31.4287 15.27329,47.34719 6.19548,21.21777 10.76971,42.88266 16.80061,64.14779 2.61446,9.21865 8.61318,17.91206 8.40031,27.49191 -0.18601,8.3712 -8.40031,23.6736 -8.40031,23.6736 l 16.80062,-19.09161 c 0,0 -12.21585,-58.61675 -21.3826,-87.05772 -6.48187,-20.1108 -13.70641,-38.69044 -24.13613,-58.57088 -8.27896,-15.78082 -37.72068,-37.65082 -37.72068,-37.65082 z"
         style="fill:#000000;fill-opacity:0.16872427;fill-rule:evenodd;stroke:none;stroke-width:1px;stroke-linecap:butt;stroke-linejoin:miter;stroke-opacity:1" />
      <path
         sodipodi:nodetypes="sssss"
         inkscape:connector-curvature="0"
         id="path8290"
         d="m -320.53662,541.44863 c -2.14161,0.41243 -2.83542,3.67304 -2.92606,5.85212 -0.0728,1.7493 0.2177,4.62771 1.95071,4.87676 2.86485,0.4117 5.62195,-3.94468 5.36444,-6.82747 -0.17417,-1.94971 -2.46694,-4.27159 -4.38909,-3.90141 z"
         style="fill:#ffffff;fill-opacity:0.11522636;fill-rule:evenodd;stroke:none;stroke-width:1px;stroke-linecap:butt;stroke-linejoin:miter;stroke-opacity:1" />
      <path
         sodipodi:nodetypes="ssscss"
         inkscape:connector-curvature="0"
         id="path8292"
         d="m -303.67093,560.17699 c -3.22425,0.48071 -1.8907,1.92432 -0.55885,3.78215 1.75183,2.44369 5.24665,2.33242 10.37323,7.10425 7.09518,6.60421 11.30078,30.73691 11.30078,30.73691 0,0 -2.55324,-23.68635 -9.22659,-32.46658 -3.54609,-4.66564 -6.09235,-10.02091 -11.88857,-9.15673 z"
         style="fill:#ffffff;fill-opacity:0.11522636;fill-rule:evenodd;stroke:none;stroke-width:1px;stroke-linecap:butt;stroke-linejoin:miter;stroke-opacity:1" />
    </g>
  </g>
</svg>
