<?xml version="1.0" encoding="UTF-8" standalone="no"?>
<!-- Created with Inkscape (http://www.inkscape.org/) -->

<svg
   xmlns:dc="http://purl.org/dc/elements/1.1/"
   xmlns:cc="http://creativecommons.org/ns#"
   xmlns:rdf="http://www.w3.org/1999/02/22-rdf-syntax-ns#"
   xmlns:svg="http://www.w3.org/2000/svg"
   xmlns="http://www.w3.org/2000/svg"
   xmlns:sodipodi="http://sodipodi.sourceforge.net/DTD/sodipodi-0.dtd"
   xmlns:inkscape="http://www.inkscape.org/namespaces/inkscape"
   width="103.9873mm"
   height="108.22142mm"
   viewBox="0 0 368.45895 383.46172"
   id="svg4518"
   version="1.1"
   inkscape:version="0.91 r13725"
   sodipodi:docname="nuke.svg">
  <defs
     id="defs4520" />
  <sodipodi:namedview
     id="base"
     pagecolor="#ffffff"
     bordercolor="#666666"
     borderopacity="1.0"
     inkscape:pageopacity="0.0"
     inkscape:pageshadow="2"
     inkscape:zoom="0.35"
     inkscape:cx="-375.57098"
     inkscape:cy="124.588"
     inkscape:document-units="px"
     inkscape:current-layer="layer1"
     showgrid="false"
     fit-margin-top="10"
     fit-margin-left="10"
     fit-margin-right="10"
     fit-margin-bottom="10"
     inkscape:window-width="1366"
     inkscape:window-height="705"
     inkscape:window-x="-8"
     inkscape:window-y="-8"
     inkscape:window-maximized="1" />
  <metadata
     id="metadata4523">
    <rdf:RDF>
      <cc:Work
         rdf:about="">
        <dc:format>image/svg+xml</dc:format>
        <dc:type
           rdf:resource="http://purl.org/dc/dcmitype/StillImage" />
        <dc:title></dc:title>
      </cc:Work>
    </rdf:RDF>
  </metadata>
  <g
     inkscape:label="Capa 1"
     inkscape:groupmode="layer"
     id="layer1"
     transform="translate(-187.71384,-273.48848)">
    <g
       style="display:inline"
       id="g8915"
       transform="matrix(1.9892904,0,0,1.9892904,-3174.9912,-846.02766)">
      <g
         id="g8866">
        <path
           style="fill:#000000;fill-rule:evenodd;stroke:none;stroke-width:1px;stroke-linecap:butt;stroke-linejoin:miter;stroke-opacity:1"
           d="m 1775.2751,731.67061 -3.226,11.07447 16.3103,0.38794 -3.2518,-12.21876 z"
           id="path8638"
           inkscape:connector-curvature="0"
           sodipodi:nodetypes="ccccc" />
        <path
           style="display:inline;fill:#1c2422;fill-rule:evenodd;stroke:none;stroke-width:1px;stroke-linecap:butt;stroke-linejoin:miter;stroke-opacity:1"
           d="m 1765.1765,704.1472 -3.3315,17.24161 -17.1053,12.03248 -0.6882,19.89054 25.0407,-15.74039 -0.4423,-14.32005 z"
           id="path8324"
           inkscape:connector-curvature="0"
           sodipodi:nodetypes="ccccccc" />
        <path
           style="display:inline;fill:#1c2422;fill-rule:evenodd;stroke:none;stroke-width:1px;stroke-linecap:butt;stroke-linejoin:miter;stroke-opacity:1"
           d="m 1793.8327,708.48906 -2.0999,28.45135 23.3362,16.37142 -0.2986,-20.28131 -18.5537,-9.0995 z"
           id="path8326"
           inkscape:connector-curvature="0"
           sodipodi:nodetypes="cccccc" />
        <path
           style="display:inline;fill:#1c2422;fill-rule:evenodd;stroke:none;stroke-width:1px;stroke-linecap:butt;stroke-linejoin:miter;stroke-opacity:1"
           d="m 1762.4922,721.07236 c 0,0 11.8104,12.64198 18.315,12.5995 6.9045,-0.0451 15.1884,-9.83615 15.1884,-9.83615 l -2.1629,-15.34665 -29.5246,-2.60512 z"
           id="path8328"
           inkscape:connector-curvature="0"
           sodipodi:nodetypes="cscccc" />
        <path
           style="display:inline;fill:#fcc93c;fill-opacity:1;fill-rule:evenodd;stroke:none;stroke-width:1px;stroke-linecap:butt;stroke-linejoin:miter;stroke-opacity:1"
           d="m 1774.7286,718.04116 c -11.2234,-0.89585 -32.1298,-10.42047 -32.1298,-10.42047 0,0 -10.6354,-24.93002 -12.1572,-38.20838 -1.6532,-14.42469 -0.4235,-29.43227 3.4735,-43.41862 3.8219,-13.71691 7.3372,-28.74956 17.2882,-38.93472 7.7821,-7.96512 20.2225,-15.52918 31.3406,-14.90437 14.3486,0.80635 26.3834,13.29056 35.6033,24.31443 5.9017,7.05644 9.1922,16.2258 11.2888,25.1828 3.433,14.66649 4.2015,30.29546 1.7368,45.15536 -2.6388,15.90936 -17.3675,45.15536 -17.3675,45.15536 0,0 -25.9363,7.12747 -39.0767,6.07861 z"
           id="path8330"
           inkscape:connector-curvature="0"
           sodipodi:nodetypes="scssssssscs" />
        <path
           style="display:inline;fill:#000000;fill-opacity:0.10699589;fill-rule:evenodd;stroke:none;stroke-width:1px;stroke-linecap:butt;stroke-linejoin:miter;stroke-opacity:1"
           d="m 1740.1195,608.94269 c 2.2998,12.04946 26.1009,8.9258 39.4561,9.61502 15.3345,0.79137 47.1476,7.98414 46.4193,-5.60393 -0.6632,-12.37445 -23.2097,-37.34274 -42.1404,-40.94121 -12.1422,-2.30806 -25.9247,7.89007 -33.5195,15.85185 -5.3901,5.6505 -11.3245,15.26801 -10.2155,21.07827 z"
           id="path8332"
           inkscape:connector-curvature="0"
           sodipodi:nodetypes="ssssss" />
        <path
           style="display:inline;fill:#000000;fill-opacity:0.13168724;fill-rule:evenodd;stroke:none;stroke-width:1px;stroke-linecap:butt;stroke-linejoin:miter;stroke-opacity:1"
           d="m 1729.6361,656.10267 c 0,0 21.8541,7.10883 33.2031,7.87825 17.0308,1.15465 33.6679,2.54335 49.8766,-2.81005 6.4107,-2.1173 19.9097,-5.33607 19.9097,-5.33607 l -1.0895,5.69924 c 0,0 -12.2167,2.94543 -18.0939,3.97869 -16.6232,2.92249 -33.1392,3.74125 -50.0024,3.0312 -11.3832,-0.4793 -33.5825,-6.36266 -33.5825,-6.36266 z"
           id="path8334"
           inkscape:connector-curvature="0"
           sodipodi:nodetypes="cssccsscc" />
        <path
           style="display:inline;fill:#000000;fill-opacity:0.13168724;fill-rule:evenodd;stroke:none;stroke-width:1px;stroke-linecap:butt;stroke-linejoin:miter;stroke-opacity:1"
           d="m 1747.2247,623.98909 12.2201,3.61551 -3.4735,22.90845 -12.8673,-4.12071 z"
           id="path8338"
           inkscape:connector-curvature="0"
           sodipodi:nodetypes="ccccc" />
        <path
           style="display:inline;fill:#ffff00;fill-rule:evenodd;stroke:none;stroke-width:1px;stroke-linecap:butt;stroke-linejoin:miter;stroke-opacity:1"
           d="m 1779.5688,676.20068 -14.207,24.29298 29.0648,0.54225 z"
           id="path8351"
           inkscape:connector-curvature="0" />
        <path
           inkscape:connector-curvature="0"
           style="display:inline;fill:#000000;fill-rule:evenodd;stroke:none;stroke-width:1px;stroke-linecap:butt;stroke-linejoin:miter;stroke-opacity:1"
           d="m 1779.9391,674.62193 -15.6309,26.91992 32.334,0.64649 -16.7031,-27.56641 z m -0.2071,2.60938 13.502,22.9375 -26.7344,-0.32618 13.2324,-22.61132 z"
           id="path8336" />
        <path
           style="display:inline;fill:#000000;fill-opacity:0.50617281;fill-rule:evenodd;stroke:none;stroke-width:1px;stroke-linecap:butt;stroke-linejoin:miter;stroke-opacity:1"
           d="m 1777.5624,686.50351 c -1.987,0.71891 -3.6056,2.65221 -3.5788,5.09718 l 4.0126,-0.0542 c -0.1663,-1.2753 0.4716,-1.43365 1.0845,-1.62676 z"
           id="path8340"
           inkscape:connector-curvature="0"
           sodipodi:nodetypes="ccccc" />
        <path
           style="display:inline;fill:#000000;fill-opacity:0.50617281;fill-rule:evenodd;stroke:none;stroke-width:1px;stroke-linecap:butt;stroke-linejoin:miter;stroke-opacity:1"
           d="m 1782.6054,686.5035 c -0.1627,0.21691 -1.4641,3.14507 -1.4641,3.14507 0.8099,0.15644 0.9949,0.76711 1.0845,1.78945 l 3.6332,0.16267 c 0.4341,-1.93844 -0.9594,-4.5501 -3.2536,-5.09719 z"
           id="path8342"
           inkscape:connector-curvature="0"
           sodipodi:nodetypes="ccccc" />
        <path
           style="display:inline;fill:#000000;fill-opacity:0.50617281;fill-rule:evenodd;stroke:none;stroke-width:1px;stroke-linecap:butt;stroke-linejoin:miter;stroke-opacity:1"
           d="m 1779.4604,693.5528 c 0.7049,0.57228 0.976,0.59543 1.681,-3e-5 l 2.7112,3.90423 c -1.3633,0.86419 -4.304,1.59019 -6.5613,-0.32535 z"
           id="path8344"
           inkscape:connector-curvature="0"
           sodipodi:nodetypes="ccccc" />
        <path
           style="display:inline;fill:#000000;fill-opacity:0.50617281;fill-rule:evenodd;stroke:none;stroke-width:1px;stroke-linecap:butt;stroke-linejoin:miter;stroke-opacity:1"
           d="m 1780.7076,691.05844 c -0.3256,-0.2312 -0.9177,-0.18076 -1.193,0.10845 -0.2994,0.31447 -0.3652,0.99863 -0.054,1.30141 0.3766,0.36641 1.2636,0.31659 1.5725,-0.10845 0.2629,-0.36174 0.039,-1.04249 -0.3255,-1.30141 z"
           id="path8346"
           inkscape:connector-curvature="0"
           sodipodi:nodetypes="aaaaa" />
        <path
           style="display:inline;fill:#000000;fill-opacity:0.28395063;fill-rule:evenodd;stroke:none;stroke-width:1px;stroke-linecap:butt;stroke-linejoin:miter;stroke-opacity:1"
           d="m 1747.2342,624.3088 -4.1257,22.11046 c 0,0 1.9154,-7.94029 2.6328,-12.87979 0.4005,-2.75802 1.4929,-9.23067 1.4929,-9.23067 z"
           id="path8628"
           inkscape:connector-curvature="0"
           sodipodi:nodetypes="ccsc" />
        <path
           style="display:inline;fill:#000000;fill-opacity:0.43621401;fill-rule:evenodd;stroke:none;stroke-width:1px;stroke-linecap:butt;stroke-linejoin:miter;stroke-opacity:1"
           d="m 1754.1195,625.9986 6.0523,1.84386 -3.4291,23.42209 -9.1603,-3.47565 8.2419,2.43115 3.5206,-22.4356 z"
           id="path8630"
           inkscape:connector-curvature="0"
           sodipodi:nodetypes="ccccccc" />
        <path
           style="display:inline;fill:#000000;fill-opacity:0.28395063;fill-rule:evenodd;stroke:none;stroke-width:1px;stroke-linecap:butt;stroke-linejoin:miter;stroke-opacity:1"
           d="m 1730.5133,661.9526 c 0,0 10.9493,4.36631 16.7059,5.44757 10.6056,1.99206 30.9357,1.43769 30.9357,1.43769 0,0 -20.4128,-0.88124 -30.8397,-2.65326 -5.9049,-1.00351 -16.8019,-4.232 -16.8019,-4.232 z"
           id="path8632"
           inkscape:connector-curvature="0"
           sodipodi:nodetypes="cscsc" />
        <path
           style="display:inline;fill:#000000;fill-opacity:0.28395063;fill-rule:evenodd;stroke:none;stroke-width:1px;stroke-linecap:butt;stroke-linejoin:miter;stroke-opacity:1"
           d="m 1806.143,662.83501 c 0,0 7.869,-3.04706 13.0802,-4.09095 4.2498,-0.8513 12.9782,-2.60221 12.9782,-2.60221 l -12.711,3.55066 z"
           id="path8634"
           inkscape:connector-curvature="0"
           sodipodi:nodetypes="csccc" />
        <path
           style="display:inline;fill:#000000;fill-opacity:0.28395063;fill-rule:evenodd;stroke:none;stroke-width:1px;stroke-linecap:butt;stroke-linejoin:miter;stroke-opacity:1"
           d="m 1739.9857,606.81654 c 0,0 0.01,6.71642 5.1206,8.42796 9.356,3.13071 22.0095,2.15111 31.812,3.26855 9.3244,1.06296 16.0613,3.63971 25.443,3.3946 5.7696,-0.15074 17.0691,-1.51873 17.0691,-1.51873 0,0 -10.8266,0.6197 -17.0091,0.45922 -12.0544,-0.31289 -14.641,-2.28508 -26.6257,-3.61671 -6.5371,-0.72634 -23.6324,-0.5846 -29.822,-2.80933 -5.0138,-1.80209 -5.9879,-7.60556 -5.9879,-7.60556 z"
           id="path8636"
           inkscape:connector-curvature="0"
           sodipodi:nodetypes="cssscsssc" />
        <path
           style="fill:#000000;fill-opacity:0.16872427;fill-rule:evenodd;stroke:none;stroke-width:1px;stroke-linecap:butt;stroke-linejoin:miter;stroke-opacity:1"
           d="m 1762.4962,717.92139 8.5667,3.42665 10.7939,1.37066 10.28,-1.88466 3.2553,-1.19932 -0.3427,-3.59798 c -10.3866,3.4909 -21.0244,2.96092 -31.8678,-0.85667 z"
           id="path8706"
           inkscape:connector-curvature="0"
           sodipodi:nodetypes="cccccccc" />
        <path
           style="fill:#000000;fill-opacity:0.30041151;fill-rule:evenodd;stroke:none;stroke-width:1px;stroke-linecap:butt;stroke-linejoin:miter;stroke-opacity:1"
           d="m 1768.3215,722.37603 0.6854,15.07725 -3.2553,2.39866 z"
           id="path8708"
           inkscape:connector-curvature="0" />
        <path
           style="fill:#000000;fill-opacity:0.30041151;fill-rule:evenodd;stroke:none;stroke-width:1px;stroke-linecap:butt;stroke-linejoin:miter;stroke-opacity:1"
           d="m 1792.6507,723.2327 -0.8566,13.53525 3.598,3.08399 z"
           id="path8710"
           inkscape:connector-curvature="0" />
        <path
           style="color:#000000;clip-rule:nonzero;display:inline;overflow:visible;visibility:visible;opacity:1;isolation:auto;mix-blend-mode:normal;color-interpolation:sRGB;color-interpolation-filters:linearRGB;solid-color:#000000;solid-opacity:1;fill:#000000;fill-opacity:0.30041151;fill-rule:evenodd;stroke:none;stroke-opacity:1;color-rendering:auto;image-rendering:auto;shape-rendering:auto;text-rendering:auto;enable-background:accumulate"
           id="path8712"
           sodipodi:type="arc"
           sodipodi:cx="1743.9435"
           sodipodi:cy="645.57153"
           sodipodi:rx="0.38409901"
           sodipodi:ry="0.51213205"
           sodipodi:start="0"
           sodipodi:end="6.2831155"
           sodipodi:open="true"
           d="m 1744.3276,645.57153 a 0.38409901,0.51213205 0 0 1 -0.3841,0.51214 0.38409901,0.51213205 0 0 1 -0.3841,-0.51212 0.38409901,0.51213205 0 0 1 0.3841,-0.51215 0.38409901,0.51213205 0 0 1 0.3841,0.5121" />
        <path
           style="color:#000000;clip-rule:nonzero;display:inline;overflow:visible;visibility:visible;opacity:1;isolation:auto;mix-blend-mode:normal;color-interpolation:sRGB;color-interpolation-filters:linearRGB;solid-color:#000000;solid-opacity:1;fill:#000000;fill-opacity:0.30041151;fill-rule:evenodd;stroke:none;stroke-opacity:1;color-rendering:auto;image-rendering:auto;shape-rendering:auto;text-rendering:auto;enable-background:accumulate"
           id="path8712-0"
           sodipodi:type="arc"
           sodipodi:cx="1745.1875"
           sodipodi:cy="640.59753"
           sodipodi:rx="0.36554214"
           sodipodi:ry="0.48738953"
           sodipodi:start="0"
           sodipodi:end="6.2831155"
           sodipodi:open="true"
           d="m 1745.553,640.59753 a 0.36554214,0.48738953 0 0 1 -0.3655,0.48739 0.36554214,0.48738953 0 0 1 -0.3655,-0.48737 0.36554214,0.48738953 0 0 1 0.3655,-0.48741 0.36554214,0.48738953 0 0 1 0.3655,0.48736" />
        <path
           style="color:#000000;clip-rule:nonzero;display:inline;overflow:visible;visibility:visible;opacity:1;isolation:auto;mix-blend-mode:normal;color-interpolation:sRGB;color-interpolation-filters:linearRGB;solid-color:#000000;solid-opacity:1;fill:#000000;fill-opacity:0.30041151;fill-rule:evenodd;stroke:none;stroke-opacity:1;color-rendering:auto;image-rendering:auto;shape-rendering:auto;text-rendering:auto;enable-background:accumulate"
           id="path8712-2"
           sodipodi:type="arc"
           sodipodi:cx="1746.4431"
           sodipodi:cy="634.78308"
           sodipodi:rx="0.34698528"
           sodipodi:ry="0.46264705"
           sodipodi:start="0"
           sodipodi:end="6.2831155"
           sodipodi:open="true"
           d="m 1746.7901,634.78308 a 0.34698528,0.46264705 0 0 1 -0.347,0.46265 0.34698528,0.46264705 0 0 1 -0.347,-0.46263 0.34698528,0.46264705 0 0 1 0.347,-0.46267 0.34698528,0.46264705 0 0 1 0.347,0.46262" />
        <path
           style="color:#000000;clip-rule:nonzero;display:inline;overflow:visible;visibility:visible;opacity:1;isolation:auto;mix-blend-mode:normal;color-interpolation:sRGB;color-interpolation-filters:linearRGB;solid-color:#000000;solid-opacity:1;fill:#000000;fill-opacity:0.30041151;fill-rule:evenodd;stroke:none;stroke-opacity:1;color-rendering:auto;image-rendering:auto;shape-rendering:auto;text-rendering:auto;enable-background:accumulate"
           id="path8712-4"
           sodipodi:type="arc"
           sodipodi:cx="1747.1917"
           sodipodi:cy="628.91901"
           sodipodi:rx="0.29131463"
           sodipodi:ry="0.38841954"
           sodipodi:start="0"
           sodipodi:end="6.2831155"
           sodipodi:open="true"
           d="m 1747.483,628.91901 a 0.29131463,0.38841954 0 0 1 -0.2913,0.38842 0.29131463,0.38841954 0 0 1 -0.2914,-0.38841 0.29131463,0.38841954 0 0 1 0.2913,-0.38843 0.29131463,0.38841954 0 0 1 0.2914,0.38839" />
        <path
           style="color:#000000;clip-rule:nonzero;display:inline;overflow:visible;visibility:visible;opacity:1;isolation:auto;mix-blend-mode:normal;color-interpolation:sRGB;color-interpolation-filters:linearRGB;solid-color:#000000;solid-opacity:1;fill:#000000;fill-opacity:0.30041151;fill-rule:evenodd;stroke:none;stroke-opacity:1;color-rendering:auto;image-rendering:auto;shape-rendering:auto;text-rendering:auto;enable-background:accumulate"
           id="path8712-43"
           sodipodi:type="arc"
           sodipodi:cx="1758.3506"
           sodipodi:cy="628.67163"
           sodipodi:rx="0.51399714"
           sodipodi:ry="0.68532956"
           sodipodi:start="0"
           sodipodi:end="6.2831155"
           sodipodi:open="true"
           d="m 1758.8646,628.67163 a 0.51399714,0.68532956 0 0 1 -0.514,0.68533 0.51399714,0.68532956 0 0 1 -0.514,-0.68531 0.51399714,0.68532956 0 0 1 0.514,-0.68535 0.51399714,0.68532956 0 0 1 0.514,0.68528" />
        <path
           style="color:#000000;clip-rule:nonzero;display:inline;overflow:visible;visibility:visible;opacity:1;isolation:auto;mix-blend-mode:normal;color-interpolation:sRGB;color-interpolation-filters:linearRGB;solid-color:#000000;solid-opacity:1;fill:#000000;fill-opacity:0.30041151;fill-rule:evenodd;stroke:none;stroke-opacity:1;color-rendering:auto;image-rendering:auto;shape-rendering:auto;text-rendering:auto;enable-background:accumulate"
           id="path8712-23"
           sodipodi:type="arc"
           sodipodi:cx="1757.4103"
           sodipodi:cy="633.57068"
           sodipodi:rx="0.51399714"
           sodipodi:ry="0.68532956"
           sodipodi:start="0"
           sodipodi:end="6.2831155"
           sodipodi:open="true"
           d="m 1757.9243,633.57068 a 0.51399714,0.68532956 0 0 1 -0.514,0.68533 0.51399714,0.68532956 0 0 1 -0.514,-0.68531 0.51399714,0.68532956 0 0 1 0.514,-0.68535 0.51399714,0.68532956 0 0 1 0.514,0.68528" />
        <path
           style="color:#000000;clip-rule:nonzero;display:inline;overflow:visible;visibility:visible;opacity:1;isolation:auto;mix-blend-mode:normal;color-interpolation:sRGB;color-interpolation-filters:linearRGB;solid-color:#000000;solid-opacity:1;fill:#000000;fill-opacity:0.30041151;fill-rule:evenodd;stroke:none;stroke-opacity:1;color-rendering:auto;image-rendering:auto;shape-rendering:auto;text-rendering:auto;enable-background:accumulate"
           id="path8712-46"
           sodipodi:type="arc"
           sodipodi:cx="1756.6185"
           sodipodi:cy="638.56866"
           sodipodi:rx="0.51399714"
           sodipodi:ry="0.68532956"
           sodipodi:start="0"
           sodipodi:end="6.2831155"
           sodipodi:open="true"
           d="m 1757.1325,638.56866 a 0.51399714,0.68532956 0 0 1 -0.514,0.68533 0.51399714,0.68532956 0 0 1 -0.514,-0.6853 0.51399714,0.68532956 0 0 1 0.514,-0.68536 0.51399714,0.68532956 0 0 1 0.514,0.68529" />
        <path
           style="color:#000000;clip-rule:nonzero;display:inline;overflow:visible;visibility:visible;opacity:1;isolation:auto;mix-blend-mode:normal;color-interpolation:sRGB;color-interpolation-filters:linearRGB;solid-color:#000000;solid-opacity:1;fill:#000000;fill-opacity:0.30041151;fill-rule:evenodd;stroke:none;stroke-opacity:1;color-rendering:auto;image-rendering:auto;shape-rendering:auto;text-rendering:auto;enable-background:accumulate"
           id="path8712-4-0"
           sodipodi:type="arc"
           sodipodi:cx="1747.7606"
           sodipodi:cy="624.96027"
           sodipodi:rx="0.29131463"
           sodipodi:ry="0.38841951"
           sodipodi:start="0"
           sodipodi:end="6.2831155"
           sodipodi:open="true"
           d="m 1748.0519,624.96027 a 0.29131463,0.38841951 0 0 1 -0.2913,0.38842 0.29131463,0.38841951 0 0 1 -0.2913,-0.38841 0.29131463,0.38841951 0 0 1 0.2913,-0.38843 0.29131463,0.38841951 0 0 1 0.2913,0.38839" />
        <path
           style="color:#000000;clip-rule:nonzero;display:inline;overflow:visible;visibility:visible;opacity:1;isolation:auto;mix-blend-mode:normal;color-interpolation:sRGB;color-interpolation-filters:linearRGB;solid-color:#000000;solid-opacity:1;fill:#000000;fill-opacity:0.30041151;fill-rule:evenodd;stroke:none;stroke-opacity:1;color-rendering:auto;image-rendering:auto;shape-rendering:auto;text-rendering:auto;enable-background:accumulate"
           id="path8712-46-0"
           sodipodi:type="arc"
           sodipodi:cx="1755.901"
           sodipodi:cy="643.81403"
           sodipodi:rx="0.43976963"
           sodipodi:ry="0.58635956"
           sodipodi:start="0"
           sodipodi:end="6.2831155"
           sodipodi:open="true"
           d="m 1756.3408,643.81403 a 0.43976963,0.58635956 0 0 1 -0.4398,0.58636 0.43976963,0.58635956 0 0 1 -0.4398,-0.58634 0.43976963,0.58635956 0 0 1 0.4398,-0.58638 0.43976963,0.58635956 0 0 1 0.4398,0.58631" />
        <path
           style="color:#000000;clip-rule:nonzero;display:inline;overflow:visible;visibility:visible;opacity:1;isolation:auto;mix-blend-mode:normal;color-interpolation:sRGB;color-interpolation-filters:linearRGB;solid-color:#000000;solid-opacity:1;fill:#000000;fill-opacity:0.30041151;fill-rule:evenodd;stroke:none;stroke-opacity:1;color-rendering:auto;image-rendering:auto;shape-rendering:auto;text-rendering:auto;enable-background:accumulate"
           id="path8712-46-2"
           sodipodi:type="arc"
           sodipodi:cx="1755.1897"
           sodipodi:cy="648.98529"
           sodipodi:rx="0.45832652"
           sodipodi:ry="0.61110204"
           sodipodi:start="0"
           sodipodi:end="6.2831155"
           sodipodi:open="true"
           d="m 1755.648,648.98529 a 0.45832652,0.61110204 0 0 1 -0.4583,0.6111 0.45832652,0.61110204 0 0 1 -0.4583,-0.61108 0.45832652,0.61110204 0 0 1 0.4583,-0.61112 0.45832652,0.61110204 0 0 1 0.4583,0.61106" />
        <path
           style="color:#000000;clip-rule:nonzero;display:inline;overflow:visible;visibility:visible;opacity:1;isolation:auto;mix-blend-mode:normal;color-interpolation:sRGB;color-interpolation-filters:linearRGB;solid-color:#000000;solid-opacity:1;fill:#000000;fill-opacity:0.30041151;fill-rule:evenodd;stroke:none;stroke-opacity:1;color-rendering:auto;image-rendering:auto;shape-rendering:auto;text-rendering:auto;enable-background:accumulate"
           id="path8712-46-00"
           sodipodi:type="arc"
           sodipodi:cx="1731.2687"
           sodipodi:cy="663.91644"
           sodipodi:rx="0.36455661"
           sodipodi:ry="0.48607549"
           sodipodi:start="0"
           sodipodi:end="6.2831155"
           sodipodi:open="true"
           d="m 1731.6332,663.91644 a 0.36455661,0.48607549 0 0 1 -0.3645,0.48608 0.36455661,0.48607549 0 0 1 -0.3646,-0.48606 0.36455661,0.48607549 0 0 1 0.3646,-0.48609 0.36455661,0.48607549 0 0 1 0.3645,0.48604" />
        <path
           style="color:#000000;clip-rule:nonzero;display:inline;overflow:visible;visibility:visible;opacity:1;isolation:auto;mix-blend-mode:normal;color-interpolation:sRGB;color-interpolation-filters:linearRGB;solid-color:#000000;solid-opacity:1;fill:#000000;fill-opacity:0.30041151;fill-rule:evenodd;stroke:none;stroke-opacity:1;color-rendering:auto;image-rendering:auto;shape-rendering:auto;text-rendering:auto;enable-background:accumulate"
           id="path8712-46-9"
           sodipodi:type="arc"
           sodipodi:cx="1740.0856"
           sodipodi:cy="667.50299"
           sodipodi:rx="0.51399714"
           sodipodi:ry="0.68532956"
           sodipodi:start="0"
           sodipodi:end="6.2831155"
           sodipodi:open="true"
           d="m 1740.5996,667.50299 a 0.51399714,0.68532956 0 0 1 -0.514,0.68533 0.51399714,0.68532956 0 0 1 -0.514,-0.68531 0.51399714,0.68532956 0 0 1 0.5139,-0.68535 0.51399714,0.68532956 0 0 1 0.5141,0.68528" />
        <path
           style="color:#000000;clip-rule:nonzero;display:inline;overflow:visible;visibility:visible;opacity:1;isolation:auto;mix-blend-mode:normal;color-interpolation:sRGB;color-interpolation-filters:linearRGB;solid-color:#000000;solid-opacity:1;fill:#000000;fill-opacity:0.30041151;fill-rule:evenodd;stroke:none;stroke-opacity:1;color-rendering:auto;image-rendering:auto;shape-rendering:auto;text-rendering:auto;enable-background:accumulate"
           id="path8712-46-8"
           sodipodi:type="arc"
           sodipodi:cx="1749.6498"
           sodipodi:cy="669.59521"
           sodipodi:rx="0.51399714"
           sodipodi:ry="0.68532956"
           sodipodi:start="0"
           sodipodi:end="6.2831155"
           sodipodi:open="true"
           d="m 1750.1638,669.59521 a 0.51399714,0.68532956 0 0 1 -0.514,0.68533 0.51399714,0.68532956 0 0 1 -0.514,-0.6853 0.51399714,0.68532956 0 0 1 0.514,-0.68535 0.51399714,0.68532956 0 0 1 0.514,0.68528" />
        <path
           style="color:#000000;clip-rule:nonzero;display:inline;overflow:visible;visibility:visible;opacity:1;isolation:auto;mix-blend-mode:normal;color-interpolation:sRGB;color-interpolation-filters:linearRGB;solid-color:#000000;solid-opacity:1;fill:#000000;fill-opacity:0.30041151;fill-rule:evenodd;stroke:none;stroke-opacity:1;color-rendering:auto;image-rendering:auto;shape-rendering:auto;text-rendering:auto;enable-background:accumulate"
           id="path8712-46-4"
           sodipodi:type="arc"
           sodipodi:cx="1760.0732"
           sodipodi:cy="671.03979"
           sodipodi:rx="0.77551806"
           sodipodi:ry="1.0340241"
           sodipodi:start="0"
           sodipodi:end="6.2831155"
           sodipodi:open="true"
           d="m 1760.8488,671.03979 a 0.77551806,1.0340241 0 0 1 -0.7755,1.03403 0.77551806,1.0340241 0 0 1 -0.7756,-1.03399 0.77551806,1.0340241 0 0 1 0.7755,-1.03406 0.77551806,1.0340241 0 0 1 0.7756,1.03395" />
        <path
           style="color:#000000;clip-rule:nonzero;display:inline;overflow:visible;visibility:visible;opacity:1;isolation:auto;mix-blend-mode:normal;color-interpolation:sRGB;color-interpolation-filters:linearRGB;solid-color:#000000;solid-opacity:1;fill:#000000;fill-opacity:0.30041151;fill-rule:evenodd;stroke:none;stroke-opacity:1;color-rendering:auto;image-rendering:auto;shape-rendering:auto;text-rendering:auto;enable-background:accumulate"
           id="path8712-46-7"
           sodipodi:type="arc"
           sodipodi:cx="1772.016"
           sodipodi:cy="671.22241"
           sodipodi:rx="1.0619458"
           sodipodi:ry="1.4159278"
           sodipodi:start="0"
           sodipodi:end="6.2831155"
           sodipodi:open="true"
           d="m 1773.0779,671.22241 a 1.0619458,1.4159278 0 0 1 -1.0619,1.41593 1.0619458,1.4159278 0 0 1 -1.062,-1.41588 1.0619458,1.4159278 0 0 1 1.0619,-1.41598 1.0619458,1.4159278 0 0 1 1.062,1.41583" />
        <path
           style="color:#000000;clip-rule:nonzero;display:inline;overflow:visible;visibility:visible;opacity:1;isolation:auto;mix-blend-mode:normal;color-interpolation:sRGB;color-interpolation-filters:linearRGB;solid-color:#000000;solid-opacity:1;fill:#000000;fill-opacity:0.30041151;fill-rule:evenodd;stroke:none;stroke-opacity:1;color-rendering:auto;image-rendering:auto;shape-rendering:auto;text-rendering:auto;enable-background:accumulate"
           id="path8712-46-06"
           sodipodi:type="arc"
           sodipodi:cx="1787.9192"
           sodipodi:cy="670.54163"
           sodipodi:rx="0.92495859"
           sodipodi:ry="1.2332782"
           sodipodi:start="0"
           sodipodi:end="6.2831155"
           sodipodi:open="true"
           d="m 1788.8441,670.54163 a 0.92495859,1.2332782 0 0 1 -0.9249,1.23327 0.92495859,1.2332782 0 0 1 -0.925,-1.23323 0.92495859,1.2332782 0 0 1 0.9249,-1.23332 0.92495859,1.2332782 0 0 1 0.925,1.23319" />
        <path
           style="color:#000000;clip-rule:nonzero;display:inline;overflow:visible;visibility:visible;opacity:1;isolation:auto;mix-blend-mode:normal;color-interpolation:sRGB;color-interpolation-filters:linearRGB;solid-color:#000000;solid-opacity:1;fill:#000000;fill-opacity:0.30041151;fill-rule:evenodd;stroke:none;stroke-opacity:1;color-rendering:auto;image-rendering:auto;shape-rendering:auto;text-rendering:auto;enable-background:accumulate"
           id="path8712-46-3"
           sodipodi:type="arc"
           sodipodi:cx="1803.5729"
           sodipodi:cy="668.79816"
           sodipodi:rx="0.73815793"
           sodipodi:ry="0.98421061"
           sodipodi:start="0"
           sodipodi:end="6.2831155"
           sodipodi:open="true"
           d="m 1804.311,668.79816 a 0.73815793,0.98421061 0 0 1 -0.7381,0.98421 0.73815793,0.98421061 0 0 1 -0.7382,-0.98418 0.73815793,0.98421061 0 0 1 0.7381,-0.98424 0.73815793,0.98421061 0 0 1 0.7382,0.98414" />
        <path
           style="color:#000000;clip-rule:nonzero;display:inline;overflow:visible;visibility:visible;opacity:1;isolation:auto;mix-blend-mode:normal;color-interpolation:sRGB;color-interpolation-filters:linearRGB;solid-color:#000000;solid-opacity:1;fill:#000000;fill-opacity:0.30041151;fill-rule:evenodd;stroke:none;stroke-opacity:1;color-rendering:auto;image-rendering:auto;shape-rendering:auto;text-rendering:auto;enable-background:accumulate"
           id="path8712-46-32"
           sodipodi:type="arc"
           sodipodi:cx="1817.7947"
           sodipodi:cy="666.4071"
           sodipodi:rx="0.51399714"
           sodipodi:ry="0.68532956"
           sodipodi:start="0"
           sodipodi:end="6.2831155"
           sodipodi:open="true"
           d="m 1818.3087,666.4071 a 0.51399714,0.68532956 0 0 1 -0.514,0.68533 0.51399714,0.68532956 0 0 1 -0.514,-0.6853 0.51399714,0.68532956 0 0 1 0.514,-0.68536 0.51399714,0.68532956 0 0 1 0.514,0.68529" />
        <path
           style="color:#000000;clip-rule:nonzero;display:inline;overflow:visible;visibility:visible;opacity:1;isolation:auto;mix-blend-mode:normal;color-interpolation:sRGB;color-interpolation-filters:linearRGB;solid-color:#000000;solid-opacity:1;fill:#000000;fill-opacity:0.30041151;fill-rule:evenodd;stroke:none;stroke-opacity:1;color-rendering:auto;image-rendering:auto;shape-rendering:auto;text-rendering:auto;enable-background:accumulate"
           id="path8712-46-03"
           sodipodi:type="arc"
           sodipodi:cx="1829.0525"
           sodipodi:cy="663.75037"
           sodipodi:rx="0.3147431"
           sodipodi:ry="0.41965747"
           sodipodi:start="0"
           sodipodi:end="6.2831155"
           sodipodi:open="true"
           d="m 1829.3672,663.75037 a 0.3147431,0.41965747 0 0 1 -0.3147,0.41965 0.3147431,0.41965747 0 0 1 -0.3148,-0.41964 0.3147431,0.41965747 0 0 1 0.3148,-0.41967 0.3147431,0.41965747 0 0 1 0.3147,0.41963" />
        <path
           style="fill:#ffffff;fill-opacity:0.26337448;fill-rule:evenodd;stroke:none;stroke-width:1px;stroke-linecap:butt;stroke-linejoin:miter;stroke-opacity:1"
           d="m 1757.4207,586.50625 c 0,0 10.458,-8.45733 16.7373,-10.36121 3.6887,-1.11842 11.5568,-0.39851 11.5568,-0.39851 -8.8543,0.12408 -18.3788,4.26981 -28.2941,10.75972 z"
           id="path8858"
           inkscape:connector-curvature="0"
           sodipodi:nodetypes="cscc" />
        <path
           style="fill:#ffffff;fill-opacity:0.26337448;fill-rule:evenodd;stroke:none;stroke-width:1px;stroke-linecap:butt;stroke-linejoin:miter;stroke-opacity:1"
           d="m 1791.2939,577.34056 c 3.4092,-1.1978 8.894,2.76482 8.7672,6.37613 -0.044,1.25241 -1.935,1.9757 -3.1881,1.99254 -2.6197,0.0352 -3.7948,-3.15232 -4.7822,-5.57911 -0.5708,-1.4029 -2.2258,-2.28752 -0.7969,-2.78956 z"
           id="path8860"
           inkscape:connector-curvature="0"
           sodipodi:nodetypes="sssss" />
        <path
           style="fill:#000000;fill-opacity:0.18930042;fill-rule:evenodd;stroke:none;stroke-width:1px;stroke-linecap:butt;stroke-linejoin:miter;stroke-opacity:1"
           d="m 1757.0222,582.52117 c -1.5941,0.79701 -9.3614,17.25938 -13.1508,27.89556 -4.9198,13.80876 -8.6234,27.98209 -8.7671,42.64037 -0.127,12.95276 1.6334,30.54567 7.97,41.84335 4.9167,8.76618 19.1285,19.9254 19.1285,19.9254 l -19.5269,-7.57165 c 0,0 -11.8476,-28.28038 -13.1508,-44.2344 -1.0048,-12.30135 3.9851,-36.66274 3.9851,-38.25677 0,-1.59404 5.9189,-20.56319 11.5567,-29.4896 3.1114,-4.92635 11.9553,-12.75226 11.9553,-12.75226 z"
           id="path8862"
           inkscape:connector-curvature="0"
           sodipodi:nodetypes="csssccsssc" />
        <path
           style="fill:#000000;fill-opacity:0.06172838;fill-rule:evenodd;stroke:none;stroke-width:1px;stroke-linecap:butt;stroke-linejoin:miter;stroke-opacity:1"
           d="m 1817.5954,595.27343 c 0,0 7.073,17.46353 8.3687,26.70004 1.4767,10.52713 0.3708,21.31478 -0.797,31.88065 -1.2793,11.57448 -2.8413,23.31114 -6.7747,34.27169 -3.3124,9.23015 -13.9478,25.90303 -13.9478,25.90303 l 9.9627,-2.39105 c 0,0 8.9207,-19.05593 11.9553,-29.09109 2.9409,-9.72507 5.4288,-19.74294 5.9776,-29.88811 0.4827,-8.92258 -0.9656,-17.87883 -2.391,-26.70004 -0.7401,-4.58036 -3.1881,-13.54928 -3.1881,-13.54928 z"
           id="path8864"
           inkscape:connector-curvature="0"
           sodipodi:nodetypes="csssccssscc" />
      </g>
      <path
         inkscape:connector-curvature="0"
         id="path8913"
         d="m 1796.5996,702.22766 -1.1314,0.66859 -32.1437,-0.92574 15.6347,-26.43495 0.9257,-0.87431 -15.4804,26.79496 z"
         style="fill:#000000;fill-opacity:0.27160495;fill-rule:evenodd;stroke:none;stroke-width:1px;stroke-linecap:butt;stroke-linejoin:miter;stroke-opacity:1" />
    </g>
  </g>
</svg>
