<?xml version="1.0" encoding="UTF-8" standalone="no"?>
<!-- Created with Inkscape (http://www.inkscape.org/) -->

<svg
   xmlns:dc="http://purl.org/dc/elements/1.1/"
   xmlns:cc="http://creativecommons.org/ns#"
   xmlns:rdf="http://www.w3.org/1999/02/22-rdf-syntax-ns#"
   xmlns:svg="http://www.w3.org/2000/svg"
   xmlns="http://www.w3.org/2000/svg"
   xmlns:sodipodi="http://sodipodi.sourceforge.net/DTD/sodipodi-0.dtd"
   xmlns:inkscape="http://www.inkscape.org/namespaces/inkscape"
   width="103.9873mm"
   height="108.22142mm"
   viewBox="0 0 368.45895 383.46172"
   id="svg4518"
   version="1.1"
   inkscape:version="0.91 r13725"
   sodipodi:docname="pipe_bomb.svg">
  <defs
     id="defs4520" />
  <sodipodi:namedview
     id="base"
     pagecolor="#ffffff"
     bordercolor="#666666"
     borderopacity="1.0"
     inkscape:pageopacity="0.0"
     inkscape:pageshadow="2"
     inkscape:zoom="0.35"
     inkscape:cx="-375.57098"
     inkscape:cy="124.588"
     inkscape:document-units="px"
     inkscape:current-layer="layer1"
     showgrid="false"
     fit-margin-top="10"
     fit-margin-left="10"
     fit-margin-right="10"
     fit-margin-bottom="10"
     inkscape:window-width="1366"
     inkscape:window-height="705"
     inkscape:window-x="-8"
     inkscape:window-y="-8"
     inkscape:window-maximized="1" />
  <metadata
     id="metadata4523">
    <rdf:RDF>
      <cc:Work
         rdf:about="">
        <dc:format>image/svg+xml</dc:format>
        <dc:type
           rdf:resource="http://purl.org/dc/dcmitype/StillImage" />
        <dc:title></dc:title>
      </cc:Work>
    </rdf:RDF>
  </metadata>
  <g
     inkscape:label="Capa 1"
     inkscape:groupmode="layer"
     id="layer1"
     transform="translate(-187.71384,-273.48848)">
    <g
       style="display:inline"
       id="g8127"
       transform="matrix(1.3554306,0,0,1.3554306,738.04397,-138.76504)">
      <path
         sodipodi:nodetypes="ssssccs"
         inkscape:connector-curvature="0"
         id="path7828"
         d="m -310.55763,523.16085 c 3.19059,-4.87321 9.4944,-7.84326 15.31898,-7.89159 12.87998,-0.10688 26.6184,3.24279 37.13694,10.67687 5.43508,3.8413 14.50211,9.41123 12.99793,14.39056 -2.04125,6.75722 -24.13901,8.35581 -24.13901,8.35581 l -41.31485,-16.24741 c 0,0 -2.21836,-5.89599 10e-6,-9.28424 z"
         style="fill:#666666;fill-rule:evenodd;stroke:none;stroke-width:1px;stroke-linecap:butt;stroke-linejoin:miter;stroke-opacity:1" />
      <path
         sodipodi:nodetypes="ccccc"
         inkscape:connector-curvature="0"
         id="path7822"
         d="m -265.00381,371.11338 c -13.13168,53.0068 -22.72811,111.31647 -40.24852,157.74017 13.61884,13.71519 28.6909,23.0807 48.60433,17.95538 19.68261,-48.11865 30.69971,-104.9028 41.9477,-161.45607 z"
         style="display:inline;fill:#e6e6e6;fill-rule:evenodd;stroke:none;stroke-width:1px;stroke-linecap:butt;stroke-linejoin:miter;stroke-opacity:1" />
      <path
         sodipodi:nodetypes="cscsccccccc"
         inkscape:connector-curvature="0"
         id="path7934"
         d="m -260.62851,397.67606 c 0,0 -9.02354,31.17814 -14.17791,48.46209 -4.0664,13.6357 -12.41507,46.87478 -12.41507,46.87478 0,0 -4.60963,18.6483 -4.26596,28.76985 0.31455,9.26396 8.43145,26.49886 8.43145,26.49886 l -24.22787,-13.61955 8.47693,-24.08987 18.48617,-71.66737 6.90072,-30.34447 7.22696,-28.90785 z"
         style="fill:#000000;fill-opacity:0.07818933;fill-rule:evenodd;stroke:none;stroke-width:1px;stroke-linecap:butt;stroke-linejoin:miter;stroke-opacity:1" />
      <path
         sodipodi:nodetypes="ccssc"
         inkscape:connector-curvature="0"
         id="path7820"
         d="m -270.42327,390.4614 c 16.87031,14.21821 28.02563,13.79063 50.7743,13.622 10.43773,-2.62786 21.59918,-16.44597 15.95168,-34.57355 -2.7486,-8.82256 -44.14143,-28.4435 -65.47817,-9.93431 -6.8659,5.95603 -8.60798,19.61987 -1.24781,30.88586 z"
         style="display:inline;fill:#cccccc;fill-rule:evenodd;stroke:none;stroke-width:1px;stroke-linecap:butt;stroke-linejoin:miter;stroke-opacity:1" />
      <path
         sodipodi:nodetypes="ssssssss"
         inkscape:connector-curvature="0"
         id="path7826"
         d="m -267.15189,357.10065 c -3.04369,2.38762 -4.2117,5.66087 -2.55512,9.15666 2.82533,5.96213 9.47302,9.47525 15.31899,12.53371 6.98708,3.65546 14.86093,6.46296 22.74638,6.49897 9.30989,0.0425 20.31113,-0.87436 26.92427,-7.42739 2.40056,-2.37874 1.90664,-7.62065 0.46421,-10.67687 -6.12257,-12.9725 -22.59674,-14.15294 -36.81754,-16.03449 -9.34707,-1.23671 -18.65719,0.12566 -26.08119,5.94941 z"
         style="display:inline;fill:#e6e6e6;fill-opacity:1;fill-rule:evenodd;stroke:none;stroke-width:1px;stroke-linecap:butt;stroke-linejoin:miter;stroke-opacity:1" />
      <path
         sodipodi:nodetypes="cacac"
         inkscape:connector-curvature="0"
         id="path7875-4"
         d="m -270.54122,363.30919 c 0,0 -2.13628,2.67052 -2.72134,4.24673 -1.28327,3.45731 -1.55416,10.95366 -1.55416,10.95366 0,0 1.11807,-7.25418 2.25294,-10.72721 0.50827,-1.55546 2.02256,-4.47318 2.02256,-4.47318 z"
         style="display:inline;fill:#000000;fill-opacity:0.36213995;fill-rule:evenodd;stroke:none;stroke-width:1px;stroke-linecap:butt;stroke-linejoin:miter;stroke-opacity:1" />
      <path
         sodipodi:nodetypes="cscsc"
         inkscape:connector-curvature="0"
         id="path7877-1"
         d="m -265.9692,371.70971 c 0,0 -3.19539,4.12018 -4.24477,6.14364 -1.88599,3.63665 -1.40516,10.63993 -1.40516,10.63993 0,0 0.15197,-6.99971 2.04197,-10.7309 0.9592,-1.89363 3.60796,-6.05267 3.60796,-6.05267 z"
         style="display:inline;fill:#000000;fill-opacity:0.36213995;fill-rule:evenodd;stroke:none;stroke-width:1px;stroke-linecap:butt;stroke-linejoin:miter;stroke-opacity:1" />
      <path
         sodipodi:nodetypes="cscsc"
         inkscape:connector-curvature="0"
         id="path7879-1"
         d="m -257.8512,377.15458 c 0,0 -3.91011,4.62868 -4.77904,7.39783 -1.18518,3.777 -1.60654,10.88385 -1.60654,10.88385 0,0 1.15678,-7.118 2.33432,-10.97482 0.81065,-2.65514 4.05126,-7.30686 4.05126,-7.30686 z"
         style="display:inline;fill:#000000;fill-opacity:0.36213995;fill-rule:evenodd;stroke:none;stroke-width:1px;stroke-linecap:butt;stroke-linejoin:miter;stroke-opacity:1" />
      <path
         sodipodi:nodetypes="csssc"
         inkscape:connector-curvature="0"
         id="path7881-6"
         d="m -248.54291,381.87166 c 0,0 -2.39663,4.7023 -3.01762,7.02239 -1.3466,5.03102 -1.3491,12.46898 -1.3491,12.46898 -0.19313,0.30842 0.97071,-7.30681 2.16786,-12.37801 0.53538,-2.26791 2.19886,-7.11336 2.19886,-7.11336 z"
         style="display:inline;fill:#000000;fill-opacity:0.36213995;fill-rule:evenodd;stroke:none;stroke-width:1px;stroke-linecap:butt;stroke-linejoin:miter;stroke-opacity:1" />
      <path
         sodipodi:nodetypes="cscsc"
         inkscape:connector-curvature="0"
         id="path7883-1"
         d="m -239.61206,384.44989 c 0,0 -0.0237,5.05729 -0.27292,7.95917 -0.40878,4.7599 -1.36263,11.21085 -1.36263,11.21085 0,0 1.7627,-6.52696 2.09042,-11.3928 0.19182,-2.84807 -0.45487,-7.77722 -0.45487,-7.77722 z"
         style="display:inline;fill:#000000;fill-opacity:0.36213995;fill-rule:evenodd;stroke:none;stroke-width:1px;stroke-linecap:butt;stroke-linejoin:miter;stroke-opacity:1" />
      <path
         sodipodi:nodetypes="cscsc"
         inkscape:connector-curvature="0"
         id="path7885-1"
         d="m -230.15281,385.29766 c 0,0 0.92621,5.17332 0.76071,8.01916 -0.2674,4.59685 -0.81681,10.64953 -0.81681,10.64953 0,0 1.43282,-5.64638 1.63556,-10.10369 0.13823,-3.03899 -1.57946,-8.565 -1.57946,-8.565 z"
         style="display:inline;fill:#000000;fill-opacity:0.36213995;fill-rule:evenodd;stroke:none;stroke-width:1px;stroke-linecap:butt;stroke-linejoin:miter;stroke-opacity:1" />
      <path
         sodipodi:nodetypes="cscsc"
         inkscape:connector-curvature="0"
         id="path7887-0"
         d="m -221.00902,384.99573 c 0,0 2.00844,5.83743 2.42529,9.26181 0.47276,3.88365 0.13744,8.96749 0.13744,8.96749 0,0 0.86793,-5.51158 0.31743,-9.6043 -0.43847,-3.25983 -2.88016,-8.625 -2.88016,-8.625 z"
         style="display:inline;fill:#000000;fill-opacity:0.36213995;fill-rule:evenodd;stroke:none;stroke-width:1px;stroke-linecap:butt;stroke-linejoin:miter;stroke-opacity:1" />
      <path
         sodipodi:nodetypes="cscsc"
         inkscape:connector-curvature="0"
         id="path7889-8"
         d="m -213.9286,383.08529 c 0,0 1.31834,4.44234 1.92396,6.15913 1.30695,3.70485 1.24067,10.21605 1.24067,10.21605 0,0 0.79471,-7.04433 -0.60386,-10.76189 -0.64561,-1.71614 -2.56077,-5.61329 -2.56077,-5.61329 z"
         style="display:inline;fill:#000000;fill-opacity:0.36213995;fill-rule:evenodd;stroke:none;stroke-width:1px;stroke-linecap:butt;stroke-linejoin:miter;stroke-opacity:1" />
      <path
         sodipodi:nodetypes="cacac"
         inkscape:connector-curvature="0"
         id="path7891-0"
         d="m -206.86343,379.99811 c 0,0 1.22671,2.12525 1.57359,3.29052 0.6251,2.09988 0.86892,6.51515 0.86892,6.51515 0,0 0.21426,-4.90111 -0.59599,-7.15197 -0.36499,-1.01395 -1.84652,-2.6537 -1.84652,-2.6537 z"
         style="display:inline;fill:#000000;fill-opacity:0.36213995;fill-rule:evenodd;stroke:none;stroke-width:1px;stroke-linecap:butt;stroke-linejoin:miter;stroke-opacity:1" />
      <path
         sodipodi:nodetypes="cssssssscsssssssc"
         inkscape:connector-curvature="0"
         id="path7932"
         d="m -256.8957,353.64423 c -0.53232,0.10647 -6.21419,2.89309 -8.51706,5.32316 -1.05981,1.11835 -2.3808,2.5117 -2.23572,4.04561 0.33457,3.53742 4.05435,5.95902 6.81364,8.19767 2.77371,2.25035 6.21,3.55609 9.47523,5.00377 4.17698,1.85191 8.41247,3.73587 12.88204,4.68438 4.00183,0.84925 8.16015,1.10469 12.24327,0.85171 3.32041,-0.20573 6.65033,-0.82964 9.79462,-1.91634 3.46513,-1.19758 9.79461,-5.00377 9.79461,-5.00377 0,0 -8.62658,3.03872 -13.09497,3.93914 -2.97355,0.5992 -6.01944,1.10145 -9.04937,0.95817 -5.35302,-0.25313 -10.63065,-1.63057 -15.75656,-3.1939 -3.82004,-1.16506 -7.67557,-2.47717 -11.07217,-4.57792 -2.75976,-1.70687 -5.05962,-4.08512 -7.34596,-6.38779 -0.92211,-0.92869 -2.32735,-1.69222 -2.55512,-2.98097 -0.21108,-1.19432 0.55144,-2.43539 1.27756,-3.40683 1.8357,-2.45591 7.34596,-5.53609 7.34596,-5.53609 z"
         style="display:inline;fill:#000000;fill-opacity:0.13580244;fill-rule:evenodd;stroke:none;stroke-width:1px;stroke-linecap:butt;stroke-linejoin:miter;stroke-opacity:1" />
      <path
         sodipodi:nodetypes="cczssac"
         inkscape:connector-curvature="0"
         id="path7824"
         d="m -300.71272,516.24875 c -23.75672,19.61743 57.02073,38.97569 50.20792,15.03552 11.77126,9.37085 6.45747,16.61984 3.62875,23.12141 -2.82872,6.50158 -9.8442,10.02167 -16.42418,10.36082 -16.91487,0.87184 -35.85665,-4.05498 -46.98495,-17.95199 -3.81363,-4.76247 -5.13991,-13.73464 -2.74257,-20.03428 1.92109,-5.04817 5.07674,-9.8775 12.31503,-10.53148 z"
         style="display:inline;fill:#cccccc;fill-rule:evenodd;stroke:none;stroke-width:1px;stroke-linecap:butt;stroke-linejoin:miter;stroke-opacity:1" />
      <path
         sodipodi:nodetypes="cscsc"
         inkscape:connector-curvature="0"
         id="path7875"
         d="m -305.1241,521.26069 c 0,0 -3.87112,2.16539 -5.27645,3.82087 -1.84305,2.17112 -4.00282,8.8244 -4.00282,8.8244 0,0 2.54119,-6.1695 4.27574,-8.27856 1.40613,-1.70973 5.00353,-4.36671 5.00353,-4.36671 z"
         style="display:inline;fill:#000000;fill-opacity:0.36213995;fill-rule:evenodd;stroke:none;stroke-width:1px;stroke-linecap:butt;stroke-linejoin:miter;stroke-opacity:1" />
      <path
         sodipodi:nodetypes="cscsc"
         inkscape:connector-curvature="0"
         id="path7877"
         d="m -303.21366,529.44828 c 0,0 -3.40831,3.16201 -4.45769,5.18547 -1.88599,3.63665 -3.00211,11.91749 -3.00211,11.91749 0,0 1.74892,-8.27727 3.63892,-12.00846 0.9592,-1.89363 3.82088,-5.0945 3.82088,-5.0945 z"
         style="display:inline;fill:#000000;fill-opacity:0.36213995;fill-rule:evenodd;stroke:none;stroke-width:1px;stroke-linecap:butt;stroke-linejoin:miter;stroke-opacity:1" />
      <path
         sodipodi:nodetypes="cscsc"
         inkscape:connector-curvature="0"
         id="path7879"
         d="m -297.11846,534.36083 c 0,0 -2.95194,5.05454 -3.82087,7.82369 -1.18518,3.777 -1.81947,11.73555 -1.81947,11.73555 0,0 1.36971,-7.9697 2.54725,-11.82652 0.81065,-2.65514 3.09309,-7.73272 3.09309,-7.73272 z"
         style="display:inline;fill:#000000;fill-opacity:0.36213995;fill-rule:evenodd;stroke:none;stroke-width:1px;stroke-linecap:butt;stroke-linejoin:miter;stroke-opacity:1" />
      <path
         sodipodi:nodetypes="csssc"
         inkscape:connector-curvature="0"
         id="path7881"
         d="m -287.38432,538.5456 c 0,0 -2.29016,3.95706 -2.91115,6.27715 -1.3466,5.03102 -1.45557,15.92031 -1.45557,15.55641 0,-0.36389 1.07718,-10.39424 2.27433,-15.46544 0.53538,-2.26791 2.09239,-6.36812 2.09239,-6.36812 z"
         style="display:inline;fill:#000000;fill-opacity:0.36213995;fill-rule:evenodd;stroke:none;stroke-width:1px;stroke-linecap:butt;stroke-linejoin:miter;stroke-opacity:1" />
      <path
         sodipodi:nodetypes="cscsc"
         inkscape:connector-curvature="0"
         id="path7883"
         d="m -278.55993,540.9109 c 0,0 -0.0237,5.37668 -0.27292,8.27856 -0.40878,4.7599 -2.00141,14.19182 -2.00141,14.19182 0,0 2.40148,-9.50793 2.7292,-14.37377 0.19182,-2.84807 -0.45487,-8.09661 -0.45487,-8.09661 z"
         style="display:inline;fill:#000000;fill-opacity:0.36213995;fill-rule:evenodd;stroke:none;stroke-width:1px;stroke-linecap:butt;stroke-linejoin:miter;stroke-opacity:1" />
      <path
         sodipodi:nodetypes="cscsc"
         inkscape:connector-curvature="0"
         id="path7885"
         d="m -268.4619,542.18452 c 0,0 0.0745,5.70564 -0.091,8.55148 -0.2674,4.59685 -1.45558,13.73696 -1.45558,13.73696 0,0 2.07159,-8.73381 2.27433,-13.19112 0.13823,-3.03899 -0.72775,-9.09732 -0.72775,-9.09732 z"
         style="display:inline;fill:#000000;fill-opacity:0.36213995;fill-rule:evenodd;stroke:none;stroke-width:1px;stroke-linecap:butt;stroke-linejoin:miter;stroke-opacity:1" />
      <path
         sodipodi:nodetypes="cscsc"
         inkscape:connector-curvature="0"
         id="path7887"
         d="m -259.6375,541.45674 c 0,0 2.22137,6.58267 2.63822,10.00705 0.47276,3.88365 -0.18195,11.73554 -0.18195,11.73554 0,0 1.18732,-8.27963 0.63682,-12.37235 -0.43847,-3.25983 -3.09309,-9.37024 -3.09309,-9.37024 z"
         style="display:inline;fill:#000000;fill-opacity:0.36213995;fill-rule:evenodd;stroke:none;stroke-width:1px;stroke-linecap:butt;stroke-linejoin:miter;stroke-opacity:1" />
      <path
         sodipodi:nodetypes="cscsc"
         inkscape:connector-curvature="0"
         id="path7889"
         d="m -252.45062,539.5463 c 0,0 1.85066,3.37771 2.45628,5.0945 1.30695,3.70485 2.09238,11.28068 2.09238,11.28068 0,0 -0.057,-8.10896 -1.45557,-11.82652 -0.64561,-1.71614 -3.09309,-4.54866 -3.09309,-4.54866 z"
         style="display:inline;fill:#000000;fill-opacity:0.36213995;fill-rule:evenodd;stroke:none;stroke-width:1px;stroke-linecap:butt;stroke-linejoin:miter;stroke-opacity:1" />
      <path
         sodipodi:nodetypes="cscsc"
         inkscape:connector-curvature="0"
         id="path7891"
         d="m -250.17629,534.54278 c 0,0 1.86995,2.03969 2.63822,3.18406 1.68626,2.51177 4.27574,8.00564 4.27574,8.00564 0,0 -1.71651,-6.11612 -4.00281,-8.64246 -0.81899,-0.90497 -2.91115,-2.54724 -2.91115,-2.54724 z"
         style="display:inline;fill:#000000;fill-opacity:0.36213995;fill-rule:evenodd;stroke:none;stroke-width:1px;stroke-linecap:butt;stroke-linejoin:miter;stroke-opacity:1" />
      <path
         sodipodi:nodetypes="cssscsssc"
         inkscape:connector-curvature="0"
         id="path8089"
         d="m -284.62596,453.87043 c 0,0 5.78444,8.06196 9.62325,11.10375 4.36857,3.46156 9.4649,6.17566 14.80499,7.77262 6.05723,1.81143 12.6596,3.00091 18.87636,1.85062 2.7127,-0.50193 7.4025,-3.70125 7.4025,-3.70125 0,0 -4.21684,4.43939 -7.03237,5.18175 -6.00769,1.58402 -12.21761,0.87538 -18.87636,-1.11038 -5.71063,-1.70301 -10.83095,-4.4337 -15.17513,-8.51286 -3.34715,-3.14296 -9.62324,-12.58425 -9.62324,-12.58425 z"
         style="fill:#000000;fill-opacity:0.15637859;fill-rule:evenodd;stroke:none;stroke-width:1px;stroke-linecap:butt;stroke-linejoin:miter;stroke-opacity:1" />
      <path
         sodipodi:nodetypes="csssssssssccsssssssscc"
         inkscape:connector-curvature="0"
         id="path8091"
         d="m -241.69148,361.33924 c 0,0 10.07878,-8.16972 8.88299,-14.06474 -1.44209,-7.1092 -9.16559,-13.04661 -16.28549,-14.43487 -8.34938,-1.62798 -16.81608,4.0502 -24.05811,8.51287 -10.623,6.54609 -20.10615,15.52074 -27.01911,25.90873 -6.0802,9.13662 -9.87637,19.92336 -11.84399,30.72036 -2.96406,16.26483 -5.07051,33.98488 0.37012,49.59672 1.64871,4.73094 6.01951,8.01728 9.25312,11.844 2.48007,2.93496 4.69319,6.21465 7.77262,8.51287 3.62615,2.70624 7.73393,5.28899 12.21412,5.92199 7.18992,1.01585 21.46724,-3.70125 21.46724,-3.70125 l 0,2.22075 c 0,0 -15.56267,5.04018 -23.31786,3.70125 -4.57004,-0.78902 -8.59018,-3.76831 -12.21412,-6.66224 -7.58193,-6.05463 -15.75083,-12.78615 -19.24649,-21.83737 -6.04569,-15.65392 -3.93181,-33.86246 -0.74025,-50.33697 2.0613,-10.64023 6.51233,-21.00263 12.58424,-29.98011 7.47803,-11.05646 17.10857,-21.17172 28.49961,-28.12948 8.42368,-5.14526 18.52728,-11.53994 28.12949,-9.25312 7.97738,1.89986 15.91405,9.33037 17.39586,17.39587 1.19744,6.51765 -2.22075,17.02574 -2.22075,17.02574 0,0 -8.56353,1.78506 -9.62324,-2.961 z"
         style="fill:#000000;fill-rule:evenodd;stroke:#000000;stroke-width:1px;stroke-linecap:butt;stroke-linejoin:miter;stroke-opacity:1" />
      <path
         sodipodi:nodetypes="ssccssssssssss"
         inkscape:connector-curvature="0"
         id="path8095"
         transform="translate(0,308.26772)"
         d="m -303.50195,68.246094 c -1.99046,-0.109099 -4.10883,0.846307 -5.55274,2.220703 -4.71844,4.491298 -7.40233,22.577247 -7.40233,22.577247 l 4.4414,5.182518 c 0,1.480501 0.63659,10.905958 4.8125,12.214848 5.09356,1.59652 10.67935,-4.24623 13.32421,-8.88282 4.5305,-7.942214 5.9714,-19.425967 1.48047,-27.390621 -2.06025,-3.653841 -6.91514,-5.692307 -11.10351,-5.921875 z m -1.11133,4.441406 c 3.18707,-1.286032 7.74989,0.819752 9.62305,3.701172 3.9726,6.110922 1.98788,15.240021 -1.10938,21.83789 -1.78114,3.794228 -5.16479,9.434378 -9.25391,8.513668 -6.1018,-1.37389 -7.19527,-11.144068 -7.03125,-17.39648 0.16067,-6.124581 2.08992,-14.36365 7.77149,-16.65625 z"
         style="fill:#000000;fill-rule:evenodd;stroke:#000000;stroke-width:1px;stroke-linecap:butt;stroke-linejoin:miter;stroke-opacity:1" />
      <path
         sodipodi:nodetypes="ccccc"
         inkscape:connector-curvature="0"
         id="path8113"
         d="m -251.0456,453.76609 c -0.88609,2.16669 -8.51899,34.79255 -8.51899,34.79255 l 23.76085,3.39093 7.55099,-28.31116 z"
         style="fill:#4d4d4d;fill-rule:evenodd;stroke:none;stroke-width:1px;stroke-linecap:butt;stroke-linejoin:miter;stroke-opacity:1" />
      <path
         sodipodi:nodetypes="ccccc"
         inkscape:connector-curvature="0"
         id="path8117"
         d="m -251.49028,455.26871 -6.59777,4.38316 -5.38675,23.71912 4.25737,4.39742 z"
         style="fill:#000000;fill-rule:evenodd;stroke:#000000;stroke-width:1px;stroke-linecap:butt;stroke-linejoin:miter;stroke-opacity:1" />
      <path
         sodipodi:nodetypes="ccccc"
         inkscape:connector-curvature="0"
         id="path8119"
         d="m -246.87322,461.64304 -5.55188,22.2075 14.80499,2.59087 4.81162,-19.98674 z"
         style="fill:#800000;fill-rule:evenodd;stroke:none;stroke-width:1px;stroke-linecap:butt;stroke-linejoin:miter;stroke-opacity:1" />
      <path
         sodipodi:nodetypes="sssssss"
         inkscape:connector-curvature="0"
         id="path8121"
         d="m -244.28236,358.74836 c -2.51081,0.3869 -6.34584,1.18059 -6.66224,3.70125 -0.38043,3.03084 3.88797,5.01378 6.66224,6.29212 3.1554,1.45396 6.93357,1.66371 10.3635,1.11038 2.94343,-0.47485 6.65548,-1.1172 8.14274,-3.70125 0.6185,-1.07462 0.46095,-2.7811 -0.37012,-3.70125 -4.13556,-4.57885 -12.03811,-4.64091 -18.13612,-3.70125 z"
         style="fill:#000000;fill-opacity:0.21399177;fill-rule:evenodd;stroke:none;stroke-width:1px;stroke-linecap:butt;stroke-linejoin:miter;stroke-opacity:1" />
      <path
         inkscape:connector-curvature="0"
         id="path8123"
         d="m -249.37167,472.14512 14.24981,4.11764 2.22075,-9.85457 -13.83342,-4.62657 z"
         style="fill:#000000;fill-opacity:0.17283953;fill-rule:evenodd;stroke:none;stroke-width:1px;stroke-linecap:butt;stroke-linejoin:miter;stroke-opacity:1" />
      <path
         sodipodi:nodetypes="ccccc"
         inkscape:connector-curvature="0"
         id="path8125"
         d="m -249.3254,472.14512 -0.0463,12.26039 13.74089,2.35955 0.41636,-10.64109 z"
         style="fill:#c80000;fill-opacity:1;fill-rule:evenodd;stroke:none;stroke-width:1px;stroke-linecap:butt;stroke-linejoin:miter;stroke-opacity:1" />
    </g>
  </g>
</svg>
