<?xml version="1.0" encoding="UTF-8" standalone="no"?>
<!-- Created with Inkscape (http://www.inkscape.org/) -->

<svg
   xmlns:dc="http://purl.org/dc/elements/1.1/"
   xmlns:cc="http://creativecommons.org/ns#"
   xmlns:rdf="http://www.w3.org/1999/02/22-rdf-syntax-ns#"
   xmlns:svg="http://www.w3.org/2000/svg"
   xmlns="http://www.w3.org/2000/svg"
   xmlns:sodipodi="http://sodipodi.sourceforge.net/DTD/sodipodi-0.dtd"
   xmlns:inkscape="http://www.inkscape.org/namespaces/inkscape"
   width="103.9873mm"
   height="108.22142mm"
   viewBox="0 0 368.45895 383.46172"
   id="svg4518"
   version="1.1"
   inkscape:version="0.91 r13725"
   sodipodi:docname="tnt.svg">
  <defs
     id="defs4520" />
  <sodipodi:namedview
     id="base"
     pagecolor="#ffffff"
     bordercolor="#666666"
     borderopacity="1.0"
     inkscape:pageopacity="0.0"
     inkscape:pageshadow="2"
     inkscape:zoom="0.35"
     inkscape:cx="-375.57098"
     inkscape:cy="124.588"
     inkscape:document-units="px"
     inkscape:current-layer="layer1"
     showgrid="false"
     fit-margin-top="10"
     fit-margin-left="10"
     fit-margin-right="10"
     fit-margin-bottom="10"
     inkscape:window-width="1366"
     inkscape:window-height="705"
     inkscape:window-x="-8"
     inkscape:window-y="-8"
     inkscape:window-maximized="1" />
  <metadata
     id="metadata4523">
    <rdf:RDF>
      <cc:Work
         rdf:about="">
        <dc:format>image/svg+xml</dc:format>
        <dc:type
           rdf:resource="http://purl.org/dc/dcmitype/StillImage" />
        <dc:title></dc:title>
      </cc:Work>
    </rdf:RDF>
  </metadata>
  <g
     inkscape:label="Capa 1"
     inkscape:groupmode="layer"
     id="layer1"
     transform="translate(-187.71384,-273.48848)">
    <g
       style="display:inline"
       id="g4771"
       transform="matrix(1.2543208,0,0,1.2543208,680.92187,-202.46554)">
      <path
         sodipodi:nodetypes="ccccc"
         inkscape:connector-curvature="0"
         id="path4636"
         d="m -291.92298,418.51838 12.52195,5.00692 3.60639,5.74531 -0.53761,-4.30089 c -4.98424,-2.3935 -6.8065,-8.40069 -15.59073,-6.45134 z"
         style="fill:#000000;fill-rule:evenodd;stroke:#000000;stroke-width:1px;stroke-linecap:butt;stroke-linejoin:miter;stroke-opacity:1" />
      <path
         sodipodi:nodetypes="cccc"
         inkscape:connector-curvature="0"
         id="path4638"
         d="m -299.98715,438.41001 c -1.53001,-7.52656 1.05179,-13.21646 8.06992,-20.74302 -4.69905,7.34735 -4.11109,12.85805 -2.69381,20.2054 z"
         style="fill:#000000;fill-rule:evenodd;stroke:#000000;stroke-width:1px;stroke-linecap:butt;stroke-linejoin:miter;stroke-opacity:1" />
      <path
         sodipodi:nodetypes="cccc"
         inkscape:connector-curvature="0"
         id="path4640"
         d="m -291.4523,417.89657 c 11.20437,-14.48629 59.75461,-4.23721 59.74179,-4.21669 l -1.61283,3.76328 c -19.37632,0.15114 -16.27846,-15.75071 -58.12896,0.45341 z"
         style="fill:#000000;fill-rule:evenodd;stroke:#000000;stroke-width:1px;stroke-linecap:butt;stroke-linejoin:miter;stroke-opacity:1" />
      <path
         sodipodi:nodetypes="cccc"
         inkscape:connector-curvature="0"
         id="path4642"
         d="m -292.99821,416.90555 c -14.60406,14.97337 -36.07871,15.94071 -30.64384,52.68592 l 3.73448,-0.22958 c 8.94524,-17.47159 -20.2261,-13.42575 26.90936,-52.45634 z"
         style="fill:#000000;fill-rule:evenodd;stroke:#000000;stroke-width:1px;stroke-linecap:butt;stroke-linejoin:miter;stroke-opacity:1" />
      <path
         sodipodi:nodetypes="ccccc"
         inkscape:connector-curvature="0"
         id="path4544"
         d="m -299.84463,460.79366 c -9.23636,-5.67938 -27.75811,-1.0513 -30.49469,16.36503 l 71.56345,175.66685 c 16.26605,5.38854 29.57698,-1.86139 28.73505,-14.56908 z"
         style="display:inline;fill:#800000;fill-rule:evenodd;stroke:none;stroke-width:1px;stroke-linecap:butt;stroke-linejoin:miter;stroke-opacity:1" />
      <path
         sodipodi:nodetypes="ccsccc"
         inkscape:connector-curvature="0"
         id="path4546"
         d="m -288.86743,431.10524 c -13.18786,-7.32598 -26.43857,6.93236 -29.58429,18.46666 0,0 15.19258,38.40039 23.00523,57.51309 19.92829,48.75211 60.88525,145.80169 60.88525,145.80169 17.20668,6.84401 33.88103,0.29855 39.49253,-16.28574 z"
         style="display:inline;fill:#aa0000;fill-rule:evenodd;stroke:none;stroke-width:1px;stroke-linecap:butt;stroke-linejoin:miter;stroke-opacity:1" />
      <path
         sodipodi:nodetypes="ccccc"
         inkscape:connector-curvature="0"
         id="path4550"
         d="m -246.85198,423.59764 c -0.44943,-13.90961 27.11694,-15.93404 28.11221,-7.97188 l 83.90862,197.81137 c 1.57276,11.00725 -16.59664,17.56477 -21.95441,8.57658 z"
         style="display:inline;fill:#800000;fill-rule:evenodd;stroke:none;stroke-width:1px;stroke-linecap:butt;stroke-linejoin:miter;stroke-opacity:1" />
      <path
         sodipodi:nodetypes="csccscc"
         inkscape:connector-curvature="0"
         id="path4430"
         d="m -306.29538,535.89712 c 3.54194,0.49349 33.15518,-8.06762 55.12544,-16.5166 22.96416,-8.8312 73.51487,-6.6066 73.51487,-6.6066 l 7.42832,17.17059 c 0,0 -50.79692,0.53826 -75.83622,4.29264 -19.22782,2.88301 -53.35696,18.52151 -53.35696,18.52151 z"
         style="display:inline;fill:#000000;fill-opacity:0.44855969;fill-rule:evenodd;stroke:none;stroke-width:1px;stroke-linecap:butt;stroke-linejoin:miter;stroke-opacity:1" />
      <path
         sodipodi:nodetypes="csccscc"
         inkscape:connector-curvature="0"
         id="path4432"
         d="m -294.80391,564.81816 c 0,0 30.66258,-22.67966 48.27667,-31.50955 21.29581,-10.67553 66.96906,-24.94895 66.96906,-24.94895 l -7.54253,-18.22813 c 0,0 -44.77413,17.15705 -65.92631,28.32045 -16.85831,8.89724 -47.58396,30.81683 -47.58396,30.81683 z"
         style="display:inline;fill:#000000;fill-opacity:0.44855969;fill-rule:evenodd;stroke:none;stroke-width:1px;stroke-linecap:butt;stroke-linejoin:miter;stroke-opacity:1" />
      <path
         sodipodi:nodetypes="csccscc"
         inkscape:connector-curvature="0"
         id="path4434"
         d="m -290.39704,574.4536 c 0,0 27.76568,-24.59302 44.33407,-33.2524 21.97758,-11.48647 70.5082,-23.73118 70.5082,-23.73118 l -7.07089,-16.30285 c 0,0 -50.85751,15.35215 -74.57979,27.03448 -14.98192,7.37803 -41.37343,27.10266 -41.37343,27.10266 z"
         style="display:inline;fill:#000000;fill-opacity:0.44855969;fill-rule:evenodd;stroke:none;stroke-width:1px;stroke-linecap:butt;stroke-linejoin:miter;stroke-opacity:1" />
      <path
         sodipodi:nodetypes="ccccc"
         inkscape:connector-curvature="0"
         id="path4548"
         d="m -289.96687,429.9145 c 7.44363,-22.66905 33.27007,-23.81295 42.86471,-16.17598 l 95.03858,212.08678 c 1.55821,10.00462 -25.48228,25.39603 -44.07409,14.69137 z"
         style="display:inline;fill:#d40000;fill-rule:evenodd;stroke:none;stroke-width:1px;stroke-linecap:butt;stroke-linejoin:miter;stroke-opacity:1" />
      <path
         inkscape:connector-curvature="0"
         id="path4534"
         d="m -317.79037,460.71132 28.04033,70.56816 44.86452,108.42259 5.60807,14.02017 4.20605,-3.27138 -79.91493,-191.60889 z"
         style="display:inline;fill:#000000;fill-opacity:0.36625516;fill-rule:evenodd;stroke:none;stroke-width:1px;stroke-linecap:butt;stroke-linejoin:miter;stroke-opacity:1" />
      <path
         sodipodi:nodetypes="ccccc"
         inkscape:connector-curvature="0"
         id="path4536"
         d="m -288.81536,430.80164 -3.71414,-0.3268 93.39748,213.73551 2.3824,-4.97562 z"
         style="display:inline;fill:#000000;fill-opacity:0.36625516;fill-rule:evenodd;stroke:none;stroke-width:1px;stroke-linecap:butt;stroke-linejoin:miter;stroke-opacity:1" />
      <path
         inkscape:connector-curvature="0"
         id="path4538"
         d="m -245.35286,418.18349 4.67339,-4.67338 94.86977,212.1718 -5.60806,-1.40202 z"
         style="display:inline;fill:#000000;fill-opacity:0.36625516;fill-rule:evenodd;stroke:none;stroke-width:1px;stroke-linecap:butt;stroke-linejoin:miter;stroke-opacity:1" />
      <path
         sodipodi:nodetypes="ccccc"
         inkscape:connector-curvature="0"
         id="path4582"
         d="m -248.52135,517.85308 c 5.0968,5.39012 5.12927,12.12269 5.03785,14.36107 -17.99959,8.0015 -34.96383,19.10906 -50.47259,34.58307 l -7.47742,-19.16089 c 16.53356,-16.98926 35.40528,-20.2725 52.91216,-29.78325 z"
         style="display:inline;fill:#000000;fill-opacity:0.53086416;fill-rule:evenodd;stroke:none;stroke-width:1px;stroke-linecap:butt;stroke-linejoin:miter;stroke-opacity:1" />
      <path
         sodipodi:nodetypes="csssccccc"
         inkscape:connector-curvature="0"
         id="path4584"
         d="m -325.7925,467.97863 c 0,0 7.45514,25.94459 11.82745,38.70802 5.71657,16.68752 12.17524,33.11866 18.8164,49.46025 9.8514,24.24089 17.91904,49.4838 31.18146,72.03993 4.92328,8.3733 17.74118,23.11728 17.74118,23.11728 l 3.76328,2.68806 -15.59073,-0.53761 -73.11515,-177.41176 z"
         style="display:inline;fill:#000000;fill-opacity:0.25925927;fill-rule:evenodd;stroke:none;stroke-width:1px;stroke-linecap:butt;stroke-linejoin:miter;stroke-opacity:1" />
      <path
         sodipodi:nodetypes="ccsccssac"
         inkscape:connector-curvature="0"
         id="path4586"
         d="m -310.89052,436.10842 c -2.43137,4.55853 -5.90149,7.03956 -7.22428,13.81525 0,0 26.59069,67.1687 40.70732,101.38472 14.20192,34.42272 43.54653,102.68378 43.54653,102.68378 l 17.20356,1.61284 c 0,0 -27.26663,-40.56567 -38.17041,-62.36292 -14.322,-28.63044 -24.1557,-59.30139 -35.48235,-89.24349 -6.93931,-18.34414 -15.99669,-36.15183 -19.89162,-55.37398 -0.82979,-4.09515 -0.68875,-12.5162 -0.68875,-12.5162 z"
         style="display:inline;fill:#000000;fill-opacity:0.25925927;fill-rule:evenodd;stroke:none;stroke-width:1px;stroke-linecap:butt;stroke-linejoin:miter;stroke-opacity:1" />
      <path
         sodipodi:nodetypes="cssascccc"
         inkscape:connector-curvature="0"
         id="path4588"
         d="m -278.4827,414.2175 c 0,0 -0.11074,19.59463 2.15045,29.03101 3.89328,16.24738 13.10317,30.74065 19.35401,46.23458 8.70319,21.57256 14.88794,44.23318 25.26773,65.05098 12.60399,25.27868 26.3774,50.47569 44.62175,72.03992 5.08496,6.01026 17.74117,15.59073 17.74117,15.59073 -9.13939,0.48557 -18.27879,3.96152 -27.41818,-2.15044 l -92.46916,-208.59322 c 2.49919,-10.07406 6.93753,-12.39155 10.75223,-17.20356 z"
         style="display:inline;fill:#000000;fill-opacity:0.25925927;fill-rule:evenodd;stroke:none;stroke-width:1px;stroke-linecap:butt;stroke-linejoin:miter;stroke-opacity:1" />
      <path
         sodipodi:nodetypes="cssscccccc"
         inkscape:connector-curvature="0"
         id="path4590"
         d="m -226.872,412.06705 c 0,0 5.57473,7.20977 7.52655,11.28984 29.89717,62.49669 56.45721,123.74092 77.41604,181.17503 1.56623,4.29197 3.16122,8.89604 2.68806,13.44029 -0.28268,2.71487 -3.22567,7.52656 -3.22567,7.52656 l 8.06417,-8.06417 -6.45133,-19.35401 -76.87843,-180.09982 -3.22567,-5.37611 z"
         style="display:inline;fill:#000000;fill-opacity:0.25925927;fill-rule:evenodd;stroke:none;stroke-width:1px;stroke-linecap:butt;stroke-linejoin:miter;stroke-opacity:1" />
      <path
         sodipodi:nodetypes="ssssssccccs"
         inkscape:connector-curvature="0"
         id="path4426"
         d="m -235.84904,472.02501 c -8.31039,4.34791 -14.17697,16.04106 -16.71371,25.07056 -2.69481,9.59214 0.33343,19.39052 2.77823,27.56694 3.09607,10.35454 9.49877,19.32797 16.7211,25.82408 7.46569,6.715 15.95878,8.96115 25.99911,8.82113 10.51901,-0.1467 20.23133,-2.10033 26.92764,-10.21393 4.49262,-5.44349 5.57124,-20.42787 5.57124,-20.42787 l -15.78517,-24.14203 -11.60675,-19.49933 -7.89258,-16.24944 c 0,0 -17.76144,-1.05997 -25.99911,3.24989 z"
         style="display:inline;fill:#1a1a1a;fill-rule:evenodd;stroke:none;stroke-width:1px;stroke-linecap:butt;stroke-linejoin:miter;stroke-opacity:1" />
      <path
         sodipodi:nodetypes="csssssccccccc"
         inkscape:connector-curvature="0"
         id="path4475"
         d="m -240.65881,485.10751 c 0,0 -3.59179,12.42169 -4.02557,18.72763 -0.39646,5.76337 0.0162,11.71868 1.4002,17.32744 1.71893,6.96611 4.86539,13.88476 9.62635,19.2527 9.17889,10.34912 23.70243,17.27775 39.20551,12.7768 4.23596,-1.22981 9.73812,-4.3462 12.60178,-7.70108 4.13535,-4.84472 7.00097,-17.15241 7.00097,-17.15241 l -13.12684,7.176 -25.37857,3.15045 -16.80236,-3.15045 -5.42576,-27.30383 -4.37561,-17.85251 z"
         style="display:inline;fill:#000000;fill-opacity:0.42798354;fill-rule:evenodd;stroke:none;stroke-width:1px;stroke-linecap:butt;stroke-linejoin:miter;stroke-opacity:1" />
      <path
         sodipodi:nodetypes="sssssssssss"
         inkscape:connector-curvature="0"
         id="path4428"
         d="m -220.99241,468.77512 c -7.69214,1.47169 -15.12384,7.36004 -18.57079,14.39236 -3.06508,6.25326 -2.93585,17.66942 -2.32135,24.6063 0.77681,8.76912 2.77953,14.53958 6.96405,22.28495 3.64252,6.74214 9.87182,12.33366 16.71371,15.78517 5.47477,2.76184 12.06376,4.29199 18.10652,3.24989 8.60677,-1.48428 18.46794,-5.38706 22.74922,-12.99956 2.80788,-4.99267 0.80593,-11.5925 -0.46427,-17.17798 -1.76659,-7.76824 -4.31098,-17.95449 -7.89258,-25.07057 -3.83169,-7.61297 -7.71101,-13.74369 -14.39237,-19.03506 -5.6826,-4.50039 -13.77245,-7.39766 -20.89214,-6.0355 z"
         style="display:inline;fill:#e6e6e6;fill-rule:evenodd;stroke:none;stroke-width:1px;stroke-linecap:butt;stroke-linejoin:miter;stroke-opacity:1" />
      <path
         sodipodi:nodetypes="sssssss"
         inkscape:connector-curvature="0"
         id="path4492"
         d="m -207.05409,500.6847 c -1.91637,0.5121 -2.7235,2.04345 -2.80039,4.02557 -0.079,2.03625 0.90805,4.26891 2.45034,5.60078 1.51036,1.3043 3.41585,1.63288 5.07571,0.52507 1.90802,-1.27343 2.12847,-3.54957 1.57523,-5.7758 -0.29279,-1.17817 -1.21814,-2.14138 -2.1003,-2.97542 -1.19983,-1.13438 -2.60538,-1.82647 -4.20059,-1.4002 z"
         style="display:inline;fill:#000000;fill-opacity:0.46090537;fill-rule:evenodd;stroke:none;stroke-width:1px;stroke-linecap:butt;stroke-linejoin:miter;stroke-opacity:1" />
      <path
         sodipodi:nodetypes="cccc"
         inkscape:connector-curvature="0"
         id="path4494"
         d="m -224.03148,470.05539 8.75124,9.62636 -1.05015,-11.20157 c -2.33366,0.26018 -5.36743,0.43597 -7.70109,1.57521 z"
         style="display:inline;fill:#000000;fill-opacity:0.46090537;fill-rule:evenodd;stroke:none;stroke-width:1px;stroke-linecap:butt;stroke-linejoin:miter;stroke-opacity:1" />
      <path
         sodipodi:nodetypes="cccc"
         inkscape:connector-curvature="0"
         id="path4496"
         d="m -240.13374,518.88726 12.42675,-3.32547 -8.40118,13.12684 z"
         style="display:inline;fill:#000000;fill-opacity:0.46090537;fill-rule:evenodd;stroke:none;stroke-width:1px;stroke-linecap:butt;stroke-linejoin:miter;stroke-opacity:1" />
      <path
         sodipodi:nodetypes="cccc"
         inkscape:connector-curvature="0"
         id="path4498"
         d="m -190.95183,546.71617 -2.10029,-13.4769 9.80137,9.27631 z"
         style="display:inline;fill:#000000;fill-opacity:0.46090537;fill-rule:evenodd;stroke:none;stroke-width:1px;stroke-linecap:butt;stroke-linejoin:miter;stroke-opacity:1" />
      <path
         sodipodi:nodetypes="cccc"
         inkscape:connector-curvature="0"
         id="path4500"
         d="m -184.82597,496.65913 c 1.21433,1.4002 1.43743,2.8004 1.75025,4.20059 l -5.60079,-0.70009 z"
         style="display:inline;fill:#000000;fill-opacity:0.46090537;fill-rule:evenodd;stroke:none;stroke-width:1px;stroke-linecap:butt;stroke-linejoin:miter;stroke-opacity:1" />
      <path
         sodipodi:nodetypes="csssccccccc"
         inkscape:connector-curvature="0"
         id="path4502"
         d="m -206.17896,504.01016 c 0,0 -1.58927,1.27986 -1.75025,1.92528 -0.3296,1.32151 1.6168,2.8963 2.97542,2.80039 1.49056,-0.10522 3.31183,-2.09647 2.80039,-3.50049 -0.20364,-0.55904 -1.92527,-1.05015 -1.92527,-1.05015 1.32475,-5.75469 3.66173,-10.78636 1.92527,-18.72762 l 2.97542,2.10029 -4.20059,-9.80138 -3.67552,9.10128 3.32547,-1.40019 c 0.84461,6.89432 -1.09623,12.59806 -2.45034,18.55259 z"
         style="display:inline;fill:#000000;fill-rule:evenodd;stroke:none;stroke-width:1px;stroke-linecap:butt;stroke-linejoin:miter;stroke-opacity:1" />
      <path
         inkscape:transform-center-y="10.80617"
         inkscape:transform-center-x="4.0688384"
         sodipodi:nodetypes="csssccccccc"
         inkscape:connector-curvature="0"
         id="path4502-7"
         d="m -207.36401,507.70601 c 0,0 -0.70219,-1.68574 -0.55277,-2.26198 0.30594,-1.17987 2.50949,-1.58567 3.53659,-0.92935 1.12684,0.72006 1.70725,3.06428 0.70482,3.94939 -0.39912,0.35244 -1.96261,0.003 -1.96261,0.003 -1.41914,5.09061 -1.73333,10.04562 -6.49404,15.54634 l 3.23723,-0.37895 -7.49329,5.90946 1.00197,-8.72676 2.01569,2.52271 c 3.61191,-5.05898 4.52491,-10.37297 6.00641,-15.63325 z"
         style="display:inline;fill:#000000;fill-rule:evenodd;stroke:none;stroke-width:1px;stroke-linecap:butt;stroke-linejoin:miter;stroke-opacity:1" />
      <path
         sodipodi:nodetypes="cssssssassssasssscccssssssaaaasssssscc"
         inkscape:connector-curvature="0"
         id="path4634"
         d="m -250.06198,503.8417 c -2.15045,1.07523 -13.66863,4.50047 -20.35655,1.76973 -7.20311,-2.9411 -11.5018,-11.10575 -14.5155,-18.27879 -1.11926,-2.664 1.47243,-7.23831 -1.07523,-8.60178 -2.82638,-1.51263 -6.23462,2.13917 -8.60178,4.30089 -3.26826,2.98463 -2.87335,9.66152 -6.98895,11.28984 -4.4868,1.77518 -10.96368,0.005 -13.97789,-3.76328 -2.68901,-3.3614 -2.25977,-8.95756 -0.53761,-12.90267 1.81652,-4.16127 8.53535,-4.51883 10.36575,-8.83713 1.61005,-3.79844 5.08278,-7.26934 1.68552,-9.61007 -7.07248,-4.87297 -14.72711,13.08305 -22.73657,16.18376 -5.65491,2.1892 -11.78037,8.62655 -17.20356,5.91372 -5.22048,-2.61142 -8.10344,-17.44251 -8.13111,-26.76757 -0.0205,-6.91733 3.2325,-13.51503 5.91373,-19.89162 2.14544,-5.10234 4.00192,-10.75587 8.06417,-14.51551 3.47223,-3.21358 8.33254,-4.69005 12.90267,-5.91373 5.56368,-1.48971 11.45753,-2.00882 17.20357,-1.61283 6.24451,0.43035 18.27878,4.30089 18.27878,4.30089 l -0.53761,2.68806 -17.20356,-5.37612 c 0,0 -10.57818,-0.84596 -15.59073,0.53762 -5.72145,1.57926 -11.62121,4.18908 -15.59073,8.60178 -4.94151,5.4932 -6.65216,13.30233 -8.60178,20.42923 -1.0499,3.83796 -1.75599,7.85106 -1.61284,11.82745 0.12518,3.47726 1.72072,18.47935 4.67585,20.31624 6.1277,3.80896 9.01024,-0.76103 15.91603,-2.85071 7.26902,-2.19959 16.05955,-18.60656 25.86653,-16.02111 1.39119,0.36676 2.00748,2.34904 2.07199,3.78632 0.18643,4.15385 -2.44136,8.1451 -4.98388,11.43521 -1.95098,2.52464 -6.13181,3.04409 -7.52656,5.91373 -1.25339,2.5788 -1.61886,6.23525 0,8.60178 1.95409,2.85658 6.33756,4.67245 9.67701,3.76328 4.18571,-1.13956 4.5788,-7.63179 8.06417,-10.21462 3.55603,-2.63519 8.63767,-7.22515 12.36506,-4.8385 2.57004,1.6456 -0.50548,6.27147 0.53761,9.1394 2.67063,7.34278 6.77345,15.79239 13.9779,18.81639 4.83727,2.0304 19.26405,-3.29835 19.26405,-3.29835 0.30149,0.9647 1.51427,1.56488 -1.05795,3.67907 z"
         style="display:inline;fill:#000000;fill-rule:evenodd;stroke:#000000;stroke-width:1px;stroke-linecap:butt;stroke-linejoin:miter;stroke-opacity:1" />
    </g>
  </g>
</svg>
